<svg id="Back_Office_Automation.svg" xmlns="http://www.w3.org/2000/svg" width="64" height="64" viewBox="0 0 64 64"><style>.st1{fill:#8e97a2}.st2{fill:#e40b48}</style><path id="_GUIDE" fill-opacity="0" d="M0 0h64v64H0z"/><path class="st1" d="M55.2 29.7l-7.7-6 4.6-.6C51.4 17.2 47.5 12.2 42 10l1.8-4.2c7 2.9 11.8 9.2 12.7 16.7l4.9-.7-6.2 7.9z"/><path class="st2" d="M40.6 26.5c-.2 0-.4-.1-.5-.4-.1-.1-.1-.3-.2-.5s0-.5.1-.6l.5-.4c1.1-1.1 1.1-3 0-4.1l-.5-.4c-1.1-1.1-3-1.1-4.1 0l-.4.4c-.1.2-.4.2-.6.1l-.5-.1c-.2-.1-.4-.2-.4-.5 0-1.6-1.3-2.9-2.9-2.9h-.6c-1.6 0-2.9 1.3-2.9 2.9 0 .2-.1.4-.4.5l-.5.1c-.2 0-.5 0-.7-.2l-.2-.4c-1.1-1.1-2.9-1.1-4.1 0l-.5.5c-1.1 1.1-1.1 3 0 4.1l.4.4c.2.1.2.4.1.6-.1.1-.1.4-.2.5-.1.2-.2.4-.5.4-1.6 0-2.9 1.3-2.9 2.9v.6c0 1.6 1.3 2.9 2.9 2.9.2 0 .4.1.5.4.1.1.1.4.2.5.1.2 0 .5-.1.6l-.4.4c-1.1 1.1-1.1 3 0 4.1l.5.5c1.1 1.1 3 1.1 4.1 0l.4-.4c.1-.2.4-.2.6-.1.2 0 .4.1.5.1.2.1.4.2.4.5 0 1.6 1.3 2.9 2.9 2.9h.6c1.6 0 2.9-1.3 2.9-2.9 0-.2.1-.4.4-.5.2 0 .4-.1.5-.1.2-.1.5 0 .6.2l.4.4c1.1 1.1 3 1.1 4.1 0l.5-.5c1.1-1.1 1.1-3 0-4.1l-.6-.6c-.2-.1-.2-.4-.1-.6.1-.1.2-.4.2-.5.1-.2.2-.4.5-.4 1.6 0 2.9-1.3 2.9-2.9v-.6c0-1.5-1.4-2.8-2.9-2.8zm.3 3.5c0 .2-.2.5-.5.5-1.2 0-2.2.7-2.6 1.8 0 .1-.1.2-.1.4-.5 1.1-.2 2.4.5 3.2l.4.4c.1.1.1.2.1.4s0 .2-.1.4l-.5.5c-.2.2-.5.2-.7 0L37 37c-.8-.8-2.2-1.1-3.2-.6-.1 0-.2.1-.4.1-1.1.5-1.8 1.6-1.8 2.8 0 .2-.2.5-.5.5h-.8c-.1-.1-.1-.2-.1-.4-.1-1.2-.8-2.3-1.9-2.8-.1 0-.2-.1-.4-.1-.4-.1-.7-.2-1.2-.2-.7 0-1.6.4-2 .8l-.4.4c-.2.2-.5.2-.7 0l-.5-.5c-.1-.1-.1-.2-.1-.3s0-.2.1-.4l.4-.7c.8-.8 1.1-2.2.6-3.2 0-.1-.1-.2-.1-.4-.4-1.1-1.4-1.8-2.6-1.8-.2 0-.5-.2-.5-.5v-.6c0-.2.2-.5.5-.5 1.1 0 2.2-.7 2.6-1.8 0-.1.1-.2.1-.4.5-1.1.2-2.4-.6-3.2l-.4-.4c-.2-.2-.2-.5 0-.7l.4-.4c.2-.2.5-.2.7 0l.5.4c.8.8 2.2 1.1 3.2.6l.5-.1c1.1-.5 1.8-1.6 1.8-2.8 0-.2.2-.5.5-.5h.6c.2 0 .5.2.5.5 0 1.2.7 2.3 1.8 2.8l.4.1c1.1.5 2.4.2 3.4-.6l.4-.4c.2-.2.5-.2.7 0l.4.5c.2.2.2.5 0 .7l-.4.4c-.8.8-1.1 2.2-.6 3.4 0 .1.1.2.1.4.4 1.1 1.4 1.8 2.6 1.8.2 0 .5.2.5.5-.2 0-.2.6-.2.6z"/><circle class="st2" cx="30.9" cy="29.6" r="3"/><path class="st1" d="M15.8 12.7c-4.8 3.6-7.3 9.5-6.6 15.5l-4.6.6c-.8-7.6 2.3-15 8.4-19.6l-3-4 10 1.3-1.4 9.7-2.8-3.5zm9.6 36.9c5.5 2.5 11.9 1.7 16.6-2.2l2.8 4c-5.9 4.8-14 5.9-21 2.8l-2 4.8L18 49l9.1-3.8-1.7 4.4z"/></svg>