<svg id="Comprehensive_Reporting.svg" xmlns="http://www.w3.org/2000/svg" width="64" height="64" viewBox="0 0 64 64"><style>.st1{fill:#e40b48}.st2{fill:#8e97a2}</style><path id="_GUIDE" fill-opacity="0" d="M0 0h64v64H0z"/><path class="st1" d="M46.3 50.5l-9.1-9.3 3.7-3.7 5.4 5.6 11-11.1 3.7 3.7z"/><path class="st2" d="M18.8 42.5h11.9v2.6H18.8z"/><path class="st1" d="M18.8 37.3H28v2.6h-9.2z"/><path class="st2" d="M18.8 32h14.5v2.6H18.8z"/><path class="st1" d="M31.8 17.5h-6.5v-6.6c3.5.4 6.3 3.2 6.5 6.6z"/><path class="st2" d="M24.7 25.4c-4 0-7.3-3.2-7.3-7.3 0-3.7 2.9-6.9 6.6-7.3v7.9h7.8c-.2 3.8-3.4 6.7-7.1 6.7z"/><path class="st2" d="M50.4 35V14.3L39.1 3H13.5c-1.5 0-2.6 1.2-2.6 2.6v47.5c0 1.4 1.2 2.6 2.6 2.6h34.3c1.4 0 2.6-1.2 2.6-2.6v-2.8L47.8 53v.1H13.5V5.6h22.4v9.2c0 1.5 1.2 2.6 2.6 2.6h9.2v20.2l2.7-2.6zM38.5 14.9V6.2l8.7 8.7h-8.7z"/><path class="st2" d="M42.5 61H8.2c-1.5 0-2.6-1.2-2.6-2.6V10.9c0-1.4 1.2-2.6 2.6-2.6v50.1h36.9c0 1.4-1.2 2.6-2.6 2.6z"/></svg>