<svg id="Enhanced_Security.svg" xmlns="http://www.w3.org/2000/svg" width="64" height="64" viewBox="0 0 64 64"><style>.st1{fill:#e40b48}</style><path id="_GUIDE" fill-opacity="0" d="M0 0h64v64H0z"/><path class="st1" d="M59.4 11.4c-2.9.1-5.7-.6-8.3-1.9-1.7-.9-3.6-1.5-5.4-1.5s-3.6.6-5.2 1.5c-2.6 1.4-5.5 2.1-8.4 1.9-.7 0-1.1.5-1.1 1.1 0 22.1 13.8 28.2 14.4 28.4.1.1.3.1.5.1s.3 0 .5-.1c.6-.2 14.4-6.3 14.4-28.4-.3-.6-.8-1.1-1.4-1.1zM45.7 38.7c-2.3-1.1-12.2-7.2-12.5-25 2.8-.1 5.7-.8 8.2-2.2 1.4-.8 2.8-1.3 4.3-1.3 1.6.1 3.1.5 4.4 1.3 2.5 1.3 5.2 2.1 8.1 2.2-.4 17.7-10.2 23.8-12.5 25z"/><path class="st1" d="M45.7 35.4c-2.9-1.8-9.3-7.2-10.3-19.7 2.4-.3 4.8-1 7-2.2 1-.6 2.2-.8 3.3-.9 1.3.1 2.4.5 3.4 1 2.2 1 4.4 1.7 6.8 2.1-.9 12.5-7.4 17.8-10.2 19.7z"/><path d="M45.7 44.5c-.3-.2-.7-.5-1.1-.7v9.8H5.8V30.8h27.4c-.3-.7-.7-1.5-1-2.3h-6.5l-4-4.5h-16c-1.3 0-2.3 1-2.3 2.3v27.4c0 1.3 1 2.3 2.3 2.3h38.8c1.3 0 2.3-1 2.3-2.3v-9.8c-.4.2-.8.5-1.1.6zM5.8 26.2h14.8l1.7 2.3H5.8v-2.3z" fill="#8e97a2"/></svg>