<svg id="Keeping_All_Data_in_One_Location_svg" xmlns="http://www.w3.org/2000/svg" width="64" height="64" viewBox="0 0 64 64"><style>.st1{fill:#8e97a2}</style><path id="_GUIDE" fill-opacity="0" d="M0 0h64v64H0z"/><path class="st1" d="M51.7 40.5c-.5-.5-1.2-1-1.8-1.3 5.2-9.5 1.7-21.3-7.7-26.4-.2-1-.4-2-.9-2.8 11.2 4.7 16.2 17.5 11.5 28.5-.3.7-.7 1.3-1.1 2z"/><path d="M27.3 3.4c-7.2 0-13.1 5.9-13.1 13.1 0 5.8 8.6 17.7 11.9 22.1 0 .1.1.2.2.3.7.5 1.6.3 2.2-.3 3.3-4.4 11.9-16.3 11.9-22.1 0-7.2-5.9-13.1-13.1-13.1zm0 19.9c-4.2 0-7.6-3.4-7.6-7.6s3.4-7.6 7.6-7.6 7.6 3.4 7.6 7.6-3.3 7.6-7.6 7.6z" fill="#e40b48"/><path class="st1" d="M16.4 40.6v3.6c-5.7-6.4-7.1-15.6-3.5-23.4.3 1 .8 1.8 1.3 2.7-1.9 5.7-1.1 12.1 2.2 17.1zm26.2-1c-2.3 0-4.5.5-6.5 1.5v-.4c0-1.4-1.2-2.6-3.2-3.4L31.2 39c1.5.4 2.6 1 2.6 1.7 0 1.2-2.9 2.2-6.5 2.2s-6.5-1-6.5-2.2c0-.8 1.1-1.3 2.6-1.7l-1.6-1.6c-2 .8-3.2 2-3.2 3.4V57c0 2.4 3.9 4.4 8.7 4.4 4.4 0 7.9-1.6 8.6-3.7 2.1 1.1 4.4 1.6 6.6 1.5 4.8 0 8.7-2 8.7-4.4V44c.1-2.4-3.8-4.4-8.6-4.4zm-8.7 16.9c0 1.5-2.9 2.7-6.5 2.7s-6.5-1.2-6.5-2.7v-2.1c4.1 2 8.9 2 13.1 0l-.1 2.1zm0-5.5c0 1.5-2.9 2.7-6.5 2.7s-6.5-1.2-6.5-2.7v-2c4.1 2 8.9 2 13.1 0l-.1 2zm0-5.4c0 1.5-2.9 2.7-6.5 2.7s-6.5-1.2-6.5-2.7v-2.1c4.1 2 8.9 2 13.1 0l-.1 2.1zm15.2 8.7c0 1.5-2.9 2.7-6.5 2.7S36 55.8 36 54.3v-2.1c4.1 2 8.9 2 13.1 0v2.1zm0-5.4c0 1.5-2.9 2.7-6.5 2.7S36 50.4 36 48.9v-2.1c4.1 2 8.9 2 13.1 0v2.1zm-6.5-2.8c-3.6 0-6.5-1-6.5-2.2s2.9-2.2 6.5-2.2 6.5 1 6.5 2.2c0 1.3-2.9 2.2-6.5 2.2z"/></svg>