<svg id="Слой_1" xmlns="http://www.w3.org/2000/svg" width="64" height="64" viewBox="0 0 64 64"><style>.st1{fill:#8e97a2}</style><g id="Regulatory_compliance.svg"><path id="_GUIDE" fill-opacity="0" d="M-7.9-3.8h74.6v74.6H-7.9z"/><path class="st1" d="M57.3 42v-8.4c0-.5-.1-.8-.3-1.2.2-.3.3-.7.3-1.2V7.9c0-1.3-1-2.3-2.3-2.3H31.6c-1.3 0-2.3 1-2.3 2.3v23.3H6c-1.3 0-2.3 1-2.3 2.3v23.3c0 1.3 1 2.3 2.3 2.3h23.3c.7-.5 1.6-.5 2.3 0h11.7c-.7 0-1.2-.5-1.2-1.2s.5-1.2 1.2-1.2 1.2.5 1.2 1.2-.5 1.2-1.2 1.2H55c1.3 0 2.3-1 2.3-2.3v-8.4c1-.3 1.7-1.2 2.1-2.1.7-1.7-.3-3.8-2.1-4.3zM31.6 7.9h23.3v23.3H43.3c.7 0 1.2.5 1.2 1.2s-.5 1.2-1.2 1.2-1.2-.5-1.2-1.2.5-1.2 1.2-1.2H31.6V7.9zm-2.3 49H6V33.6h23.3V42c-.9.3-1.7 1-2.1 2.1-.7 1.7.2 3.8 2.1 4.4v8.4zm26.8-10.5c-.7 0-1.2-.5-1.2-1.2v11.7h-8.4c-.3-.9-1-1.7-2.1-2.1-1.7-.7-3.8.2-4.4 2.1h-8.4V45.2c0 .7-.5 1.2-1.2 1.2s-1.2-.5-1.2-1.2.5-1.2 1.2-1.2 1.2.5 1.2 1.2V33.6H40c.3.9 1 1.7 2.1 2.1 1.7.7 3.8-.2 4.4-2.1h8.4v11.7c0-.7.5-1.2 1.2-1.2s1.2.5 1.2 1.2-.5 1.1-1.2 1.1z"/><path class="st1" d="M50.3 41.8h-3.5v6.9h2.3v-2.8h1.2l2.3-1.4v-1.4l-2.3-1.3zm0 2.7h-1.2v-1.4h1.2v1.4zm-4.7-1.3l-2.3-1.4h-3.5v6.9h2.3v-2.8h1.2v2.8h2.3v-2.8h-1.2l-.3-.5 1.5-.9v-1.3zm-2.3 1.3h-1.2v-1.4h1.2v1.4zm-8.2 4.2h-1.2v-6.9h4.7v1.4h-2.3v1.3h2.3v1.4h-2.3v1.4h2.3v1.4z"/><path d="M38.6 19l1.6-1.6 2.5 2.4 4.8-4.9 1.6 1.6-6.4 6.6zM11.8 44.6l1.6-1.6 2.5 2.5 4.7-4.9 1.7 1.6-6.4 6.5z" fill="#e40b48"/></g></svg>