<svg id="Слой_1" xmlns="http://www.w3.org/2000/svg" width="177" height="49" viewBox="0 0 177 49"><style>.st11{fill:#333}</style><path d="M91.4 32.5c0 4-3.1 7-7 7-4 0-7-3.1-7-7s3.1-7 7-7c4 0 7 3.3 7 7" fill="#f60"/><path d="M105.2 22.9c0 4-3.1 7-7 7s-7-3.1-7-7 3.1-7 7-7 7 3 7 7" fill="#fc0"/><path d="M88.2 22.7c0 4-3.1 7-7 7-4 0-7-3.1-7-7s3.1-7 7-7c3.7-.1 7 3 7 7" fill="#0089cc"/><path d="M102.3 32.5c0 4-3.1 7-7 7-4 0-7-3.1-7-7s3.1-7 7-7 7 3.3 7 7" fill="#009939"/><path d="M96.7 16.4c0 4-3.1 7-7 7-4 0-7-3.1-7-7s3.1-7 7-7c4 0 7 3.1 7 7" fill="#bf0000"/><path d="M91.2 22.9v.4c3.1-.7 5.5-3.5 5.5-6.8v-.4c-3.1.6-5.5 3.3-5.5 6.8" fill="#fc0007"/><path d="M92.3 26.3c1.3 2.2 3.5 3.5 6.2 3.5 1.1 0 2-.2 3.1-.7-1.3-2.2-3.5-3.5-6.2-3.5-1.3 0-2.2.3-3.1.7" fill="#1cd306"/><path d="M88.2 32.5c0 1.8.7 3.3 1.5 4.6 1.1-1.3 1.5-2.9 1.5-4.6 0-1.8-.7-3.3-1.5-4.6-.8 1.4-1.5 2.9-1.5 4.6" fill="#0f7504"/><path d="M78.5 29.1c.9.4 1.8.7 2.9.7 2.6 0 4.8-1.3 6.2-3.5-.9-.4-1.8-.7-2.9-.7-2.9 0-5.1 1.3-6.2 3.5" fill="#0c5e87"/><path d="M82.8 15.9v.7c0 3.3 2.4 6.2 5.5 6.8v-.7c-.2-3.5-2.4-6.1-5.5-6.8" fill="#6b0001"/><path d="M83.4 31.7h-1.1c-.9 0-1.8-.9-1.8-1.8V20c0-.9.9-1.8 1.8-1.8h13.8c.9 0 1.8.9 1.8 1.8v9.9c0 .9-.9 1.8-1.8 1.8h-4.6l-9.4 4.6c-.2 0 1.3-4.6 1.3-4.6z" fill="#fff"/><path class="st11" d="M21 33.3L17.1 19l-3.9 14.3c-.3 1.1-.5 1.9-.7 2.3-.2.5-.5.9-.9 1.3s-1 .6-1.8.6c-.6 0-1.1-.1-1.5-.3-.4-.2-.7-.5-.9-.9s-.4-.9-.6-1.5c-.2-.6-.3-1.1-.4-1.6l-4-16.1c-.2-.9-.4-1.6-.4-2.1 0-.6.2-1.1.7-1.6s1-.6 1.6-.6c.9 0 1.5.3 1.8.8.3.6.6 1.4.8 2.5l3.1 14L13.5 17c.3-1 .5-1.8.7-2.3s.5-1 1-1.4 1.1-.6 1.9-.6c.8 0 1.4.2 1.9.6s.8.8.9 1.3c.2.5.4 1.2.7 2.3L24.1 30l3.1-14c.2-.7.3-1.3.4-1.7.1-.4.4-.8.7-1.1.3-.3.8-.5 1.5-.5.6 0 1.2.2 1.6.6.4.4.7.9.7 1.6 0 .4-.1 1.2-.4 2.1l-4 16.1c-.3 1.1-.5 1.9-.7 2.4s-.5.9-.9 1.3-1 .6-1.8.6c-.7 0-1.3-.2-1.8-.6-.4-.4-.8-.8-.9-1.2 0-.3-.3-1.1-.6-2.3zM46.7 30H38c0 1 .2 1.7.6 2.5.4.8.9 1.3 1.6 1.6.7.4 1.4.5 2.2.5.5 0 1-.1 1.5-.2.4-.1.9-.3 1.3-.6s.8-.6 1.1-.9.8-.7 1.4-1.2c.2-.2.6-.3 1-.3.5 0 .8.1 1.1.4.3.3.4.6.4 1.1 0 .4-.2.9-.5 1.4s-.8 1-1.4 1.5c-.6.5-1.4.9-2.4 1.2-1 .3-2.1.5-3.3.5-2.9 0-5.1-.8-6.7-2.4-1.6-1.6-2.4-3.8-2.4-6.6 0-1.3.2-2.5.6-3.7.4-1.1 1-2.1 1.7-2.9.8-.8 1.7-1.4 2.8-1.8s2.3-.7 3.7-.7c1.7 0 3.2.4 4.5 1.1s2.2 1.7 2.8 2.8c.6 1.2.9 2.3.9 3.6 0 1.1-.3 1.8-1 2.2-.7.3-1.7.7-2.8.7v.2zM38 27h8.1c-.1-2-.5-2.7-1.2-3.4-.7-.8-1.6-1.1-2.8-1.1-1.1 0-2 .4-2.7 1.2-.8.7-1.3 1.8-1.4 3.3zm20-11.7v6.8c0-.9 1.5-1.5 2.4-2 .9-.5 1.8-.7 3.1-.7 1.5 0 2.8.4 3.9 1.1 1.1.7 2 1.7 2.6 3.1.6 1.3.9 2.9.9 4.7 0 1.3-.2 2.6-.5 3.7s-.8 2.1-1.5 2.9-1.4 1.5-2.4 1.9c-.9.4-1.9.7-3.1.7-.7 0-1.3-.1-1.9-.2-.6-.2-1.1-.4-1.5-.6-.4-.3-.6-.5-.9-.8s-1-.7-1-1.3v.4c0 .8-.4 1.5-.8 1.9-.4.4-1 .6-1.6.6s-1.4-.2-1.8-.6-.9-1.1-.9-1.9V15.6c0-.9.4-1.6.7-2 .4-.5 1-.7 1.6-.7.7 0 1.3.2 1.7.7.5.3.8.9.8 1.7h.2zm0 13.3c0 1.8.4 3.1 1.2 4.1.8.9 1.9 1.4 3.2 1.4 1.1 0 2.1-.5 2.9-1.5.8-1 1.2-2.4 1.2-4.2 0-1.2-.2-2.2-.5-3s-.8-1.5-1.4-2c-.6-.5-1.3-.7-2.2-.7-.8 0-1.6.2-2.3.7s-1.2 1.1-1.6 2c-.4.9-.5 2-.5 3.2zM115.8 26H114v8.5c0 1.1-.2 1.8-.7 2.4-.5.5-1.1.8-1.8.8-.8 0-1.3-.3-1.8-.8-.4-.5-.6-1.3-.6-2.3V15.2c0-1.1.1-1.9.6-2.4s1.2-.7 2.3-.7h8.3c1.1 0 2.1.1 2.9.2s1.5.3 2.2.6c.8.3 1.5.8 2.1 1.4s1.1 1.3 1.4 2.2c.3.8.5 1.7.5 2.6 0 1.9-.5 3.4-1.6 4.5s-2.7 1.9-4.8 2.4c.9.5 1.8 1.2 2.6 2.1.8.9 1.6 1.9 2.2 3 .7 1.1 1.2 2 1.5 2.9.4.8.5 1.4.5 1.7 0 .3-.1.7-.3 1s-.5.6-.9.8c-.4.2-.8.3-1.3.3-.6 0-1.1-.1-1.4-.4-.4-.3-.7-.6-1-1s-.7-1-1.1-1.8l-2-3.4c-.7-1.2-1.4-2.2-2-2.8-.6-.7-1.2-1.1-1.7-1.3-.7-.6-1.4-.9-2.3-.9V26zm2.9-10H114v7h4.6c1.2 0 2.3-.3 3.1-.5.8-.2 1.5-.7 1.9-1.2s.7-1.2.7-2.1c0-.7-.2-1.3-.5-1.8-.4-.5-.8-.8-1.5-1.1-.7-.3-1.8-.3-3.6-.3zm30.2 0H143v18.5c0 1.1-.1 1.8-.6 2.4-.5.5-1 .8-1.7.8-.8 0-1.5-.3-2-.8s-.8-1.3-.8-2.3V16h-5.4c-.9 0-1.5-.1-1.9-.5s-.6-.9-.6-1.5c0-.7.2-1.2.7-1.5.4-.4 1.1-.6 1.9-.6h16.2c.9 0 1.5.2 2 .6.4.4.7.9.7 1.5s-.2 1-.7 1.4-1.1.6-1.9.6zM175 29.2c0 .8-.2 1.7-.6 2.6s-1 1.8-1.9 2.7c-.8.9-1.9 1.6-3.2 2.2-1.3.6-2.8.8-4.6.8-1.3 0-2.5-.1-3.6-.4-1.1-.3-2.1-.6-3-1.2-.9-.5-1.7-1.2-2.4-2.1-.7-.8-1.2-1.7-1.7-2.6-.5-1-.8-2-1.1-3.1-.2-1.1-.3-2.3-.3-3.5 0-2 .3-3.8.9-5.4s1.4-3 2.5-4.1 2.4-2 3.9-2.6 3-.9 4.7-.9c2 0 3.8.4 5.4 1.2 1.6.8 2.8 1.8 3.7 3 .8 1.2 1.3 2.3 1.3 3.4 0 .6-.2 1.1-.6 1.5-.4.4-.9.7-1.5.7-.7 0-1.1-.2-1.5-.5-.3-.3-.7-.8-1.1-1.6-.7-1.2-1.4-2.2-2.4-2.8-.9-.6-2-.9-3.3-.9-2.1 0-3.8.8-5 2.4s-1.9 3.8-1.9 6.8c0 2 .3 3.6.8 4.9s1.3 2.3 2.3 2.9 2.2 1 3.5 1c1.5 0 2.7-.4 3.7-1.1s1.8-1.8 2.3-3.2c.2-.7.5-1.2.8-1.6.3-.4.8-.6 1.5-.6.6 0 1.1.2 1.6.6s.8.8.8 1.5z"/></svg>