<svg id="Слой_1" xmlns="http://www.w3.org/2000/svg" width="68" height="68" viewBox="0 0 68 68"><style>.st0{fill:#fff}</style><path class="st0" d="M64.5 57.3L48.3 41.1c6.5-9.8 5.4-23.1-3.2-31.7-9.8-9.8-25.9-9.8-35.7 0-4.1 4.1-6.7 9.5-7.3 15.3-.5 5.6.8 11.3 3.9 16.1.4.6 1.1.7 1.7.4.6-.4.7-1.1.4-1.7-5.7-8.9-4.4-20.8 3.1-28.3 8.9-8.9 23.3-8.9 32.2 0 8.9 8.9 8.9 23.3 0 32.1-7.5 7.5-19.1 8.8-28.1 3.2-.6-.4-1.4-.2-1.7.4-.4.6-.2 1.4.4 1.7 4 2.5 8.6 3.8 13.4 3.8.9 0 1.8 0 2.7-.1 4-.4 7.8-1.8 11.2-4l16.3 16.2c.9.9 2.2 1.5 3.5 1.5 1.3 0 2.6-.5 3.6-1.5 1.8-2.1 1.8-5.2-.2-7.2zM43.2 46.7c1.3-1.1 2.5-2.3 3.6-3.6l3.2 3.2-3.6 3.6-3.2-3.2zm19.6 15.9c-1 1-2.6 1-3.6 0l-11-11 3.6-3.6 11 11c.9 1.1.9 2.7 0 3.6z"/><path class="st0" d="M11.2 43.2c-.5-.5-1.3-.5-1.8 0s-.5 1.3 0 1.8 1.3.5 1.8 0 .5-1.3 0-1.8zM27.3 8C16.6 8 8 16.6 8 27.2s8.6 19.2 19.3 19.2c10.6 0 19.2-8.6 19.2-19.2S37.9 8 27.3 8zm0 35.9c-6 0-11.4-3.2-14.3-8l7.4-7.4 5.9 5.9c.5.5 1.3.5 1.8 0l9.3-9.3v.4c0 .7.6 1.2 1.3 1.2s1.3-.6 1.3-1.2v-3.4c0-.7-.6-1.2-1.3-1.2h-3.4c-.7 0-1.3.5-1.3 1.2s.5 1.3 1.2 1.3h.5l-8.4 8.4-5.9-5.9c-.5-.5-1.3-.5-1.8 0l-7.7 7.7c-.8-2-1.3-4.2-1.3-6.4 0-9.2 7.5-16.7 16.8-16.7S44 18 44 27.2s-7.5 16.7-16.7 16.7z"/></svg>