<svg xmlns="http://www.w3.org/2000/svg" xmlns:xlink="http://www.w3.org/1999/xlink" preserveAspectRatio="xMidYMid" width="60" height="51" viewBox="0 0 60 51">
  <defs>
    <style>

      .cls-2 {
        fill: #ffffff;
      }
    </style>
  </defs>
  <path d="M59.453,26.225 C59.453,26.225 31.417,40.890 31.417,40.890 C30.643,41.295 29.388,41.295 28.614,40.890 C28.614,40.890 0.578,26.225 0.578,26.225 C-0.196,25.820 -0.196,25.163 0.578,24.758 C0.578,24.758 6.676,21.568 6.676,21.568 C6.676,21.568 14.355,25.585 14.355,25.585 C14.355,25.585 10.366,27.689 10.366,27.689 C9.700,28.041 9.700,28.611 10.366,28.962 C10.366,28.962 29.059,38.968 29.059,38.968 C29.725,39.319 30.805,39.319 31.472,38.968 C31.472,38.968 55.600,26.238 55.600,26.238 C56.266,25.886 56.266,25.316 55.600,24.965 C55.600,24.965 51.281,22.653 51.281,22.653 C51.281,22.653 53.355,21.568 53.355,21.568 C53.355,21.568 59.453,24.758 59.453,24.758 C60.228,25.163 60.228,25.820 59.453,26.225 ZM59.453,16.417 C59.453,16.417 31.417,31.082 31.417,31.082 C30.643,31.487 29.388,31.487 28.614,31.082 C28.614,31.082 0.578,16.417 0.578,16.417 C-0.196,16.012 -0.196,15.356 0.578,14.950 C0.578,14.950 28.614,0.285 28.614,0.285 C29.388,-0.120 30.643,-0.120 31.417,0.285 C31.417,0.285 59.453,14.950 59.453,14.950 C60.228,15.356 60.228,16.012 59.453,16.417 ZM7.406,13.719 C6.595,13.719 5.937,14.383 5.937,15.203 C5.937,16.023 6.595,16.687 7.406,16.687 C8.217,16.687 8.875,16.023 8.875,15.203 C8.875,14.383 8.217,13.719 7.406,13.719 ZM11.344,11.781 C10.533,11.781 9.875,12.439 9.875,13.250 C9.875,14.061 10.533,14.719 11.344,14.719 C12.155,14.719 12.812,14.061 12.812,13.250 C12.812,12.439 12.155,11.781 11.344,11.781 ZM15.281,9.812 C14.470,9.812 13.812,10.470 13.812,11.281 C13.812,12.092 14.470,12.750 15.281,12.750 C16.092,12.750 16.750,12.092 16.750,11.281 C16.750,10.470 16.092,9.812 15.281,9.812 ZM55.600,15.157 C55.600,15.157 36.907,5.152 36.907,5.152 C36.241,4.800 35.160,4.800 34.494,5.152 C34.494,5.152 10.366,17.881 10.366,17.881 C9.700,18.233 9.700,18.803 10.366,19.155 C10.366,19.155 29.059,29.160 29.059,29.160 C29.725,29.512 30.805,29.512 31.472,29.160 C31.472,29.160 55.600,16.430 55.600,16.430 C56.266,16.079 56.266,15.509 55.600,15.157 ZM0.578,34.566 C0.578,34.566 6.676,31.376 6.676,31.376 C6.676,31.376 14.355,35.393 14.355,35.393 C14.355,35.393 10.366,37.497 10.366,37.497 C9.700,37.848 9.700,38.419 10.366,38.770 C10.366,38.770 29.059,48.775 29.059,48.775 C29.725,49.127 30.805,49.127 31.472,48.775 C31.472,48.775 55.600,36.045 55.600,36.045 C56.266,35.694 56.266,35.124 55.600,34.773 C55.600,34.773 51.281,32.461 51.281,32.461 C51.281,32.461 53.355,31.376 53.355,31.376 C53.355,31.376 59.453,34.566 59.453,34.566 C60.228,34.971 60.228,35.627 59.453,36.032 C59.453,36.032 31.417,50.697 31.417,50.697 C30.643,51.102 29.388,51.102 28.614,50.697 C28.614,50.697 0.578,36.032 0.578,36.032 C-0.196,35.627 -0.196,34.971 0.578,34.566 Z" id="path-1" class="cls-2" fill-rule="evenodd"/>
</svg>
