<svg xmlns="http://www.w3.org/2000/svg" width="40" height="40" viewBox="0 0 40 40"><path d="M12 10.3c4.6-4.2 11.6-4.3 16.3-.4l-3.7.1c-.5 0-.9.4-.8.9 0 .5.4.9.9.9l5.8-.2c.5 0 .8-.4.8-.9v-.1L31 4.8c0-.4-.4-.8-.9-.8s-.9.4-.8.9l.1 3.6c-2.4-1.9-5.3-3.1-8.3-3.2-3.8-.2-7.5 1.1-10.3 3.7-3.9 3.6-5.6 9-4.3 14.2.1.5.6.8 1 .6.5-.1.8-.6.6-1.1-1-4.4.4-9.2 3.9-12.4zm22.6 6.5c-.1-.5-.6-.8-1.1-.6-.5.1-.8.6-.6 1.1 1.1 4.5-.4 9.3-3.8 12.5-2.3 2.1-5.3 3.3-8.4 3.3-2.9 0-5.7-1-8.1-2.9l3.8-.3c.5 0 .8-.5.8-1s-.5-.8-.9-.8l-5.7.5c-.5 0-.8.5-.8 1l.5 5.8c0 .5.4.8.9.8h.1c.5 0 .8-.5.8-1l-.3-3.5c2.3 1.9 5.3 3 8.3 3.2h.7c3.6 0 6.9-1.3 9.6-3.7 3.8-3.8 5.4-9.3 4.2-14.4z" fill="#e93c6d"/></svg>