<svg xmlns="http://www.w3.org/2000/svg" xmlns:xlink="http://www.w3.org/1999/xlink" preserveAspectRatio="xMidYMid" width="120" height="133" viewBox="0 0 120 133">
  <defs>
    <style>

      .cls-3 {
        fill: #222222;
      }

      .cls-4 {
        fill: #ffffff;
      }
    </style>
  </defs>
  <g id="группа-1">
    <path d="M57.973,51.422 C56.743,53.570 53.602,53.874 52.124,51.337 C51.795,50.775 49.749,47.238 46.924,42.351 C38.453,48.001 32.583,56.793 30.511,66.665 C24.201,63.089 14.258,57.456 3.741,51.498 C7.518,36.034 16.814,22.280 29.977,13.027 C27.587,8.891 25.831,5.851 25.345,5.008 C24.024,2.717 25.616,0.015 28.211,0.002 C31.105,-0.013 78.148,0.145 81.521,0.217 C83.991,0.267 85.792,2.848 84.436,5.214 C83.061,7.616 58.922,49.765 57.973,51.422 ZM85.448,91.990 C86.445,90.261 88.990,90.017 90.188,92.059 C90.509,92.605 92.859,96.643 95.902,101.874 C102.386,95.246 106.389,86.411 106.935,76.976 C111.010,79.326 115.494,81.912 119.760,84.371 C119.286,97.180 114.040,109.226 105.388,118.182 C108.663,123.813 111.321,128.387 111.885,129.359 C112.955,131.202 111.665,133.378 109.563,133.388 C107.218,133.401 69.102,133.273 66.369,133.216 C64.368,133.175 62.909,131.097 64.007,129.192 C65.121,127.259 84.680,93.324 85.448,91.990 Z" id="path-1" class="cls-3" fill-rule="evenodd"/>
    <path d="M114.477,71.956 C113.346,71.290 93.491,59.593 92.710,59.133 C91.698,58.537 91.555,57.015 92.750,56.298 C93.113,56.080 96.106,54.300 99.769,52.122 C94.202,44.314 85.927,38.886 76.687,36.811 C77.525,35.358 78.384,33.870 79.257,32.357 C89.793,34.449 99.434,39.954 106.674,48.017 C110.571,45.700 113.929,43.704 114.574,43.322 C115.653,42.682 116.926,43.453 116.932,44.711 C116.939,46.113 116.865,68.909 116.831,70.543 C116.807,71.741 115.592,72.613 114.477,71.956 ZM45.830,85.357 C47.860,86.509 47.818,89.268 45.815,90.432 C45.132,90.830 41.231,93.059 36.081,95.998 C42.223,105.354 52.125,111.596 63.095,113.122 C59.586,119.191 55.857,125.638 52.499,131.446 C37.957,127.943 24.928,119.533 15.707,107.607 C9.905,110.908 5.333,113.501 4.461,113.979 C2.526,115.039 -0.004,113.881 0.003,111.481 C0.010,109.047 0.129,66.310 0.134,64.631 C0.140,62.452 2.437,60.825 4.699,62.093 C6.512,63.108 42.738,83.604 45.830,85.357 Z" id="path-2" class="cls-4" fill-rule="evenodd"/>
  </g>
</svg>
