<svg xmlns="http://www.w3.org/2000/svg" xmlns:xlink="http://www.w3.org/1999/xlink" preserveAspectRatio="xMidYMid" width="44" height="32" viewBox="0 0 44 32">
  <defs>
    <style>

      .cls-2 {
        fill: #ffffff;
      }
    </style>
  </defs>
  <path d="M44.000,9.000 C44.000,8.601 43.764,8.265 43.427,8.103 C43.427,8.103 43.430,8.097 43.430,8.097 C43.430,8.097 43.400,8.086 43.400,8.086 C43.391,8.082 43.381,8.078 43.372,8.075 C43.372,8.075 22.430,0.098 22.430,0.098 C22.430,0.098 22.427,0.103 22.427,0.103 C22.297,0.041 22.154,-0.000 22.000,-0.000 C21.846,-0.000 21.704,0.041 21.573,0.103 C21.573,0.103 21.570,0.098 21.570,0.098 C21.570,0.098 0.629,8.075 0.629,8.075 C0.619,8.078 0.609,8.082 0.600,8.086 C0.600,8.086 0.570,8.097 0.570,8.097 C0.570,8.097 0.573,8.103 0.573,8.103 C0.236,8.265 -0.000,8.601 -0.000,9.000 C-0.000,9.398 0.236,9.735 0.573,9.896 C0.573,9.896 0.570,9.902 0.570,9.902 C0.570,9.902 0.600,9.914 0.600,9.914 C0.609,9.918 0.619,9.921 0.629,9.924 C0.629,9.924 2.506,10.640 2.506,10.640 C2.506,10.640 1.238,20.152 1.238,20.152 C0.512,20.451 -0.000,21.166 -0.000,22.000 C-0.000,23.104 0.895,24.000 2.000,24.000 C3.104,24.000 4.000,23.104 4.000,22.000 C4.000,21.356 3.691,20.791 3.219,20.424 C3.219,20.424 4.426,11.372 4.426,11.372 C4.426,11.372 7.786,12.652 7.786,12.652 C7.786,12.652 6.009,26.867 6.009,26.867 C6.009,26.867 6.026,26.870 6.026,26.870 C6.020,26.914 6.000,26.953 6.000,27.000 C6.000,27.552 6.447,28.000 7.000,28.000 C7.076,28.000 7.143,27.976 7.213,27.960 C7.213,27.960 7.217,27.976 7.217,27.976 C7.217,27.976 14.744,26.094 14.744,26.094 C14.744,26.094 21.400,31.800 21.400,31.800 C21.400,31.800 21.410,31.787 21.410,31.787 C21.578,31.912 21.775,32.000 22.000,32.000 C22.205,32.000 22.386,31.923 22.545,31.816 C22.545,31.816 22.555,31.832 22.555,31.832 C22.555,31.832 30.218,26.085 30.218,26.085 C30.218,26.085 37.783,27.976 37.783,27.976 C37.783,27.976 37.787,27.957 37.787,27.957 C37.857,27.972 37.925,28.000 38.000,28.000 C38.553,28.000 39.000,27.552 39.000,27.000 C39.000,26.935 38.979,26.879 38.968,26.818 C38.968,26.818 38.982,26.815 38.982,26.815 C38.982,26.815 36.320,12.611 36.320,12.611 C36.320,12.611 43.372,9.924 43.372,9.924 C43.381,9.921 43.391,9.918 43.400,9.914 C43.400,9.914 43.430,9.902 43.430,9.902 C43.430,9.902 43.427,9.896 43.427,9.896 C43.764,9.735 44.000,9.398 44.000,9.000 ZM36.730,25.652 C36.730,25.652 30.217,24.023 30.217,24.023 C30.217,24.023 30.213,24.043 30.213,24.043 C30.142,24.027 30.076,24.000 30.000,24.000 C29.795,24.000 29.614,24.076 29.455,24.183 C29.455,24.183 29.445,24.168 29.445,24.168 C29.445,24.168 22.041,29.720 22.041,29.720 C22.041,29.720 15.600,24.199 15.600,24.199 C15.600,24.199 15.590,24.214 15.590,24.214 C15.423,24.088 15.226,24.000 15.000,24.000 C14.925,24.000 14.857,24.027 14.787,24.043 C14.787,24.043 14.783,24.023 14.783,24.023 C14.783,24.023 8.174,25.675 8.174,25.675 C8.174,25.675 9.710,13.385 9.710,13.385 C9.710,13.385 21.570,17.902 21.570,17.902 C21.570,17.902 21.573,17.896 21.573,17.896 C21.704,17.959 21.846,18.000 22.000,18.000 C22.154,18.000 22.297,17.959 22.427,17.896 C22.427,17.896 22.430,17.902 22.430,17.902 C22.430,17.902 34.420,13.335 34.420,13.335 C34.420,13.335 36.730,25.652 36.730,25.652 Z" id="path-1" class="cls-2" fill-rule="evenodd"/>
</svg>
