<svg xmlns="http://www.w3.org/2000/svg" xmlns:xlink="http://www.w3.org/1999/xlink" preserveAspectRatio="xMidYMid" width="44" height="36" viewBox="0 0 44 36">
  <defs>
    <style>

      .cls-2 {
        fill: #ffffff;
      }
    </style>
  </defs>
  <path d="M42.985,21.632 C42.985,21.632 35.656,4.000 35.656,4.000 C35.656,4.000 35.634,4.004 35.634,4.004 C34.809,1.676 32.610,-0.000 30.000,-0.000 C26.686,-0.000 24.000,2.686 24.000,6.000 C24.000,6.000 20.000,6.000 20.000,6.000 C20.000,2.686 17.313,-0.000 14.000,-0.000 C11.390,-0.000 9.191,1.676 8.366,4.004 C8.366,4.004 8.344,4.000 8.344,4.000 C8.344,4.000 1.014,21.632 1.014,21.632 C0.371,22.954 -0.000,24.431 -0.000,26.000 C-0.000,31.523 4.476,36.000 10.000,36.000 C14.838,36.000 18.873,32.564 19.799,28.000 C19.799,28.000 24.201,28.000 24.201,28.000 C25.127,32.564 29.162,36.000 34.000,36.000 C39.523,36.000 44.000,31.523 44.000,26.000 C44.000,24.431 43.629,22.953 42.985,21.632 ZM10.000,34.000 C5.582,34.000 2.000,30.418 2.000,26.000 C2.000,21.582 5.582,18.000 10.000,18.000 C14.418,18.000 18.000,21.582 18.000,26.000 C18.000,30.418 14.418,34.000 10.000,34.000 ZM18.001,20.019 C16.178,17.584 13.277,16.000 10.000,16.000 C8.162,16.000 6.445,16.504 4.966,17.369 C4.966,17.369 10.371,4.347 10.371,4.347 C10.371,4.347 10.367,4.347 10.367,4.347 C10.996,2.965 12.383,2.000 14.000,2.000 C16.088,2.000 17.783,3.606 17.965,5.647 C17.965,5.647 18.004,5.654 18.004,5.654 C18.004,5.654 18.001,20.019 18.001,20.019 ZM24.000,26.000 C24.000,26.000 20.000,26.000 20.000,26.000 C20.000,26.000 20.000,24.000 20.000,24.000 C20.000,24.000 24.000,24.000 24.000,24.000 C24.000,24.000 24.000,26.000 24.000,26.000 ZM24.000,22.000 C24.000,22.000 20.000,22.000 20.000,22.000 C20.000,22.000 20.000,8.000 20.000,8.000 C20.000,8.000 24.000,8.000 24.000,8.000 C24.000,8.000 24.000,22.000 24.000,22.000 ZM25.996,5.654 C25.996,5.654 26.036,5.647 26.036,5.647 C26.217,3.606 27.912,2.000 30.000,2.000 C31.617,2.000 33.004,2.965 33.634,4.347 C33.634,4.347 33.629,4.347 33.629,4.347 C33.629,4.347 39.034,17.369 39.034,17.369 C37.555,16.504 35.838,16.000 34.000,16.000 C30.723,16.000 27.822,17.584 25.999,20.019 C25.999,20.019 25.996,5.654 25.996,5.654 ZM34.000,34.000 C29.582,34.000 26.000,30.418 26.000,26.000 C26.000,21.582 29.582,18.000 34.000,18.000 C38.418,18.000 42.000,21.582 42.000,26.000 C42.000,30.418 38.418,34.000 34.000,34.000 ZM10.000,20.000 C6.686,20.000 4.000,22.686 4.000,26.000 C4.000,26.553 4.447,27.000 5.000,27.000 C5.553,27.000 6.000,26.553 6.000,26.000 C6.000,23.791 7.791,22.000 10.000,22.000 C10.553,22.000 11.000,21.553 11.000,21.000 C11.000,20.447 10.553,20.000 10.000,20.000 ZM34.000,20.000 C30.686,20.000 28.000,22.686 28.000,26.000 C28.000,26.553 28.447,27.000 29.000,27.000 C29.553,27.000 30.000,26.553 30.000,26.000 C30.000,23.791 31.791,22.000 34.000,22.000 C34.553,22.000 35.000,21.553 35.000,21.000 C35.000,20.447 34.553,20.000 34.000,20.000 Z" id="path-1" class="cls-2" fill-rule="evenodd"/>
</svg>
