<svg xmlns="http://www.w3.org/2000/svg" width="40" height="40" viewBox="0 0 40 40"><path d="M31.6 15.9v-1.3c0-3.1-1.1-6-3.1-8.2-2.1-2.2-4.9-3.4-8-3.4h-1.1c-3.1 0-5.9 1.2-8 3.4-2 2.2-3.1 5.1-3.1 8.2v1.3c-2.4.2-4.3 2.2-4.3 4.7v2c0 2.6 2.1 4.7 4.7 4.7h2.6c.5 0 .9-.4.9-.9v-9.7c0-.5-.4-.9-.9-.9h-1.2v-1.3c0-5.6 4-9.9 9.4-9.9h1.1c5.3 0 9.4 4.3 9.4 9.9v1.3h-1.2c-.5 0-.9.4-.9.9v9.7c0 .5.4.9.9.9H30c-.4 4.5-3.4 5.5-4.9 5.7-.4-1.2-1.6-2.1-2.9-2.1H20c-1.7 0-3 1.3-3 3s1.3 3 3 3h2.2c1.4 0 2.5-.9 2.9-2.2.7-.1 1.8-.3 2.9-1 1.5-.9 3.4-2.8 3.6-6.5C34.1 27 36 25 36 22.5v-2c0-2.4-1.9-4.4-4.4-4.6zm-21.1 9.7H8.7c-1.6 0-3-1.3-3-3v-2c0-1.6 1.3-3 3-3h1.8v8zm11.7 9.7H20c-.7 0-1.3-.6-1.3-1.3 0-.7.6-1.3 1.3-1.3h2.2c.7 0 1.3.6 1.3 1.3 0 .7-.6 1.3-1.3 1.3zm12.1-12.7c0 1.6-1.3 3-3 3h-1.8v-8h1.8c1.6 0 3 1.3 3 3v2z" fill="#e93c6d"/></svg>