<svg id="img-financial-management.svg" xmlns="http://www.w3.org/2000/svg" width="226.7" height="206.3" viewBox="0 0 226.7 206.3"><style>.st1{fill:#dd3a75}.st3{fill:#565656}</style><path id="Прямоугольник_575" d="M32 44h130v111H32V44zm141-33c17.7 0 32 14.3 32 32s-14.3 32-32 32-32-14.3-32-32 14.3-32 32-32zM9 124h25c4.4 0 8 3.6 8 8v43c0 4.4-3.6 8-8 8H9c-4.4 0-8-3.6-8-8v-43c0-4.4 3.6-8 8-8z" fill="#efefef"/><path id="Прямоугольник_560" class="st1" d="M26 153v-2h10v2H26zM6 171h10v2H6v-2zm6-2h-2v-2h2v2zm0-12h-2v-4H6v-2h4v-4h2v4h4v2h-4v4zm0 20h-2v-2h2v2zm16.2-9.2l2.8 2.8 2.8-2.8 1.4 1.4-2.8 2.8 2.8 2.8-1.4 1.4-2.8-2.8-2.8 2.8-1.4-1.4 2.8-2.8-2.8-2.8 1.4-1.4z"/><path id="Прямоугольник_скругл._углы_557" d="M172 106c-3.3 0-6-2.7-6-6s2.7-6 6-6 6 2.7 6 6-2.7 6-6 6zm0-10c-2.2 0-4 1.8-4 4s1.8 4 4 4 4-1.8 4-4-1.8-4-4-4zm-31-53v1H32v80h2c4.4 0 8 3.6 8 8v23h120V73.1c.7.2 1.3.4 2 .6V155h10c3.3 0 6-2.7 6-6V74.2c.7-.1 1.3-.3 2-.5V149c0 4.4-3.6 8-8 8H42v18c0 4.4-3.6 8-8 8H8c-4.4 0-8-3.6-8-8v-43c0-4.4 3.6-8 8-8h4V50c0-4.4 3.6-8 8-8h121v1zM22 181h12c3.3 0 6-2.7 6-6v-12H22v18zm0-20h18v-18H22v18zM2 175c0 3.3 2.7 6 6 6h12v-18H2v12zm0-14h18v-18H2v18zm6-35c-3.3 0-6 2.7-6 6v9h38v-9c0-3.3-2.7-6-6-6H8zm22-82H20c-3.3 0-6 2.7-6 6v74h16V44zm-8 8c.6 0 1 .4 1 1s-.4 1-1 1-1-.4-1-1 .4-1 1-1zm0 40c.6 0 1 .4 1 1v12c0 .6-.4 1-1 1s-1-.4-1-1V93c0-.6.4-1 1-1z" fill="#8e8e8d"/><path id="_12345" class="st3" d="M35.2 135.4v1.5h-1.3v-1.5h-3.3v-.7l3.3-4.6h1.3v4.4h1v.9h-1zm-1.3-3.7l-.1.2-1.9 2.6h2v-2.8zm-6.4-.5H26v-.8l2.8-.2v6.8h-1.3v-5.8zM24 136h1v1h-1v-1zm-1.3-1c0 .6-.3 1.1-.7 1.5-1.1.7-2.5.7-3.6 0-.5-.3-.7-.8-.7-1.4h1.2c0 .3.1.6.3.7.3.2.6.3.9.3s.7-.1.9-.3c.2-.2.4-.5.3-.8 0-.3-.1-.6-.3-.8-.3-.2-.6-.3-1-.3h-.9v-.9h.9c.3 0 .6-.1.9-.3.2-.2.3-.5.3-.8s-.1-.6-.3-.8c-.2-.2-.6-.3-.9-.3s-.6.1-.8.3c-.2.2-.3.4-.3.7h-1.2c0-.5.2-1 .7-1.3.5-.4 1.1-.6 1.7-.5.6 0 1.3.1 1.8.5.4.3.7.9.7 1.4 0 .3-.1.6-.3.8-.2.3-.5.5-.8.6.4.1.7.3 1 .6.1.4.2.7.2 1.1z"/><path id="Фигура_566" class="st3" d="M50 137h-2V62h2v73h98v2H50z"/><path id="Фигура_566-2" d="M225 13V3.2l-25.1 22.4c-.4-.6-.7-1.1-1.1-1.7L223.4 2H214V0h13v13h-2zm-90.7 69.7l-17.1-10.4L99 87.9 79.5 98l-16.1 19-1.4-1.4L78.6 96l18.7-9.4L117.1 70l17.8 10.7 16.2-14.5c.5.5 1 .9 1.5 1.3l-16.9 15.1-1.4.1z" fill="#e40b48"/><path id="Прямоугольник_561_копия_4" d="M130 131V87h10v44h-10zm-18-50h10v50h-10V81zM94 97h10v34H94V97zm-18 10h10v24H76v-24zm-18 16h10v8H58v-8z" fill="#ed85aa"/><path id="Эллипс_575" class="st1" d="M173 73c-16.6 0-30-13.4-30-30s13.4-30 30-30 30 13.4 30 30-13.4 30-30 30zm0-58c-15.5 0-28 12.5-28 28s12.5 28 28 28 28-12.5 28-28-12.5-28-28-28zm0 54c-14.4 0-26-11.6-26-26s11.6-26 26-26 26 11.6 26 26-11.6 26-26 26zm-3.8-36.1c1.1-1 2.5-1.5 3.9-1.4 1.5-.1 3 .5 3.9 1.7 1 1.2 1.5 2.8 1.4 4.3h2l.1-.1c.1-2-.5-3.9-1.7-5.5-1.2-1.4-2.9-2.2-4.8-2.3V26h-1.8v3.6c-1.8.1-3.5.8-4.8 2-1.2 1.2-1.8 2.9-1.8 4.6-.1 1.7.5 3.4 1.8 4.6 1.6 1.3 3.4 2.3 5.4 2.8 1.6.5 3.1 1.3 4.5 2.4.8.8 1.3 2 1.3 3.2 0 1.3-.5 2.6-1.5 3.5-1.2 1-2.6 1.4-4.1 1.4s-3.1-.4-4.3-1.4c-1.2-.9-1.8-2.4-1.8-4.5h-2l-.1.1c0 2.5.6 4.3 2 5.5 1.5 1.3 3.3 2 5.3 2v3.3h1.8v-3.3c1.8-.1 3.6-.8 4.9-2 1.2-1.2 1.9-2.9 1.8-4.7.1-1.7-.5-3.4-1.7-4.5-1.6-1.3-3.4-2.3-5.4-2.8-1.7-.4-3.2-1.2-4.6-2.4-.8-.9-1.3-2-1.2-3.2.1-1.2.6-2.4 1.5-3.3z"/></svg>