<svg xmlns="http://www.w3.org/2000/svg" width="226.7" height="120" viewBox="0 0 226.7 120"><path d="M162.6 12c-14.1 0-26.8 8.7-31.8 22 1.1-17.6 16.3-31 33.9-29.9 16.4 1 29.3 14.3 30 30.6C189.8 21.1 177 12 162.6 12z" fill="#d8d8d8"/><path d="M24 50c-5.6 0-11.5 0-16.4-.1H4.5C2.4 49.9.7 48.1.7 46c0-.7.2-1.4.6-2 2.8-4.8 7.5-8.2 12.9-9.5-4.1-2.7-5.4-8.2-2.7-12.3s8.2-5.4 12.3-2.7 5.4 8.2 2.7 12.3c-.7 1.1-1.6 2-2.7 2.7 5.4 1.3 10.1 4.7 12.9 9.5.7 1.2.7 2.7.1 3.9-.7 1.2-1.9 2-3.3 2-2.7.1-6 .1-9.5.1zm-5-16c3.9-.1 7-3.2 6.9-7s-3.2-6.9-7-6.8-6.9 3.2-6.8 7c.1 3.7 3.1 6.8 6.9 6.8z" fill="#dd3a75"/><path d="M96 50c-5.6 0-11.5 0-16.4-.1h-3.1c-2.1 0-3.8-1.8-3.8-3.9 0-.7.2-1.4.6-2 2.8-4.8 7.5-8.2 12.9-9.5-4.1-2.7-5.4-8.2-2.7-12.3s8.2-5.4 12.3-2.7 5.4 8.2 2.7 12.3c-.7 1.1-1.6 2-2.7 2.7 5.4 1.3 10.1 4.7 12.9 9.5.7 1.2.7 2.7.1 3.9-.7 1.2-1.9 2-3.3 2-2.7.1-6 .1-9.5.1zm-5-16c3.9-.1 7-3.2 6.9-7s-3.2-6.9-7-6.8-6.9 3.2-6.8 7c.1 3.7 3.1 6.8 6.9 6.8z" fill="#8e8e8e"/><path d="M168.1 50c-5.6 0-11.5 0-16.4-.1h-3.1c-2.1 0-3.8-1.8-3.8-3.9 0-.7.2-1.4.6-2 2.8-4.8 7.5-8.2 12.9-9.5-4.1-2.7-5.4-8.2-2.7-12.3s8.2-5.4 12.3-2.7 5.4 8.2 2.7 12.3c-.7 1.1-1.6 2-2.7 2.7 5.4 1.3 10.1 4.7 12.9 9.5.7 1.2.7 2.7.1 3.9-.7 1.2-1.9 2-3.3 2-2.8.1-6.1.1-9.5.1zm-5-16h.1c3.8-.1 6.9-3.2 6.8-7-.1-3.8-3.2-6.9-7-6.8s-6.9 3.2-6.8 7c.1 3.7 3.1 6.8 6.9 6.8z" fill="#ed85aa"/><path d="M138.7 120V61.5c.6.6 1.3 1.2 2 1.7V118h45V62.3c.7-.6 1.4-1.2 2-1.9V120h-49zm16-11h14c.6 0 1 .4 1 1s-.4 1-1 1h-14c-.6 0-1-.4-1-1s.4-1 1-1zm24-4h-24c-.6 0-1-.4-1-1s.4-1 1-1h24c.6 0 1 .4 1 1s-.5 1-1 1zm0-18h-17c-.6 0-1-.4-1-1s.4-1 1-1h17c.6 0 1 .4 1 1s-.5 1-1 1zm-2-4h-15c-.6 0-1-.4-1-1s.4-1 1-1h15c.6 0 1 .4 1 1s-.5 1-1 1zm-30 14c0-.6.4-1 1-1h2c.6 0 1 .4 1 1v2c0 .6-.4 1-1 1h-2c-.6 0-1-.4-1-1v-2zm0 6c0-.6.4-1 1-1h2c.6 0 1 .4 1 1v2c0 .6-.4 1-1 1h-2c-.6 0-1-.4-1-1v-2zm3 9h-2c-.6 0-1-.4-1-1v-2c0-.6.4-1 1-1h2c.6 0 1 .4 1 1v2c0 .6-.5 1-1 1zm12-21c-.6 0-1-.4-1-1s.4-1 1-1h13c.6 0 1 .4 1 1s-.4 1-1 1h-13zm16 7c0 .6-.4 1-1 1h-22c-.6 0-1-.4-1-1s.4-1 1-1h22c.5 0 1 .4 1 1zm-26-9c-2.4 0-4.4.9-4.9 2h-.1V81h10v10h-.1c-.5-1.1-2.5-2-4.9-2zm0-6c-.9-.2-1.8.5-2 1.4v.6c0 1.7.9 4 2 4s2-2.3 2-4c.2-.9-.5-1.8-1.4-2h-.6z" fill="#e40b48"/><path d="M224.3 97.8c-3.1 3.1-8.2 3.1-11.3 0l-18.2-18.2c-2.8-2.8-3.1-7.3-.7-10.5l-6.9-6.9c-14.5 13.6-37.2 12.9-50.9-1.6-13.6-14.5-12.9-37.2 1.6-50.9 14.5-13.6 37.2-12.9 50.9 1.6 13 13.9 13 35.5 0 49.3l6.9 6.9c3.2-2.4 7.6-2.1 10.5.7l18.2 18.2c3.1 3.2 3.1 8.2-.1 11.4zM196.6 36c0-18.8-15.2-34-34-34s-34 15.2-34 34 15.2 34 34 34c18.7 0 34-15.2 34-34z" fill="#565656"/></svg>