<svg xmlns="http://www.w3.org/2000/svg" preserveAspectRatio="xMidYMid" width="41" height="41" viewBox="0 0 41 41"><defs><style>.cls-1 { fill: #fff; fill-rule: evenodd; }</style></defs><path d="M40.604 36.618l-3.982 3.983c-.257.257-.606.402-.97.402-.363 0-.712-.145-.969-.402l-8.161-8.161-3.363 5.822c-.263.455-.762.72-1.286.682-.524-.038-.981-.372-1.175-.86L10.342 12.117c-.203-.508-.083-1.089.304-1.477.388-.388.969-.507 1.478-.304l25.964 10.357c.488.194.822.651.859 1.175.038.524-.227 1.023-.682 1.286l-5.822 3.363 8.161 8.162c.536.535.536 1.404 0 1.939zM29.24 27.193c-.301-.301-.445-.725-.39-1.148.056-.423.305-.796.674-1.009l4.922-2.843-20.374-8.127 8.126 20.376 2.842-4.922c.213-.369.586-.618 1.009-.673.06-.008.12-.012.179-.012.361 0 .711.143.97.402l8.454 8.455 2.043-2.043-8.455-8.456zM19.732 8.429c-.268.268-.619.402-.97.402s-.702-.134-.969-.402c-.536-.535-.536-1.404 0-1.939l3.047-3.048c.535-.535 1.404-.535 1.939 0 .536.536.536 1.404 0 1.94l-3.047 3.047zm-6.171-1.383c-.758 0-1.372-.614-1.372-1.372v-4.31c0-.757.614-1.371 1.372-1.371.757 0 1.371.614 1.371 1.371v4.31c0 .758-.614 1.372-1.371 1.372zM8.097 9.462c-.351 0-.702-.134-.97-.401L4.08 6.013c-.536-.535-.536-1.404 0-1.939.536-.536 1.404-.536 1.94 0l3.047 3.047c.535.536.535 1.404 0 1.94-.268.267-.619.401-.97.401zm-1.045 4.092c0 .758-.614 1.372-1.371 1.372h-4.31C.614 14.926 0 14.312 0 13.554c0-.757.614-1.371 1.371-1.371h4.31c.757 0 1.371.614 1.371 1.371zm-.556 4.234c.536-.536 1.404-.536 1.94 0 .535.535.535 1.403 0 1.939l-3.048 3.048c-.268.267-.619.401-.969.401-.352 0-.702-.134-.97-.401-.536-.536-.536-1.404 0-1.94l3.047-3.047z" class="cls-1"/></svg>