<svg id="Слой_1" xmlns="http://www.w3.org/2000/svg" width="84" height="84" viewBox="0 0 84 84"><style>.st0{fill:#faceda}.st1{fill:#f49db6}.st2{fill:#ef6d91}.st3{fill:#e93c6d}</style><path class="st0" d="M37.3 50l-7.6 7.5c-.9.9-2.4.9-3.3 0-.9-.9-.9-2.3-.1-3.2l.1-.1 7.5-7.6c.9-.9 2.4-.9 3.3 0 1 1 1 2.5.1 3.4z"/><path class="st1" d="M37.3 50l-7.6 7.5c-.9.9-2.4.9-3.3 0l10.9-10.9c.9 1 .9 2.5 0 3.4z"/><path class="st1" d="M29.7 64.2l-2.1 2.1-3.3-1.4-5.2-5.2-1.4-3.3 2.1-2.1c2.8-2.8 7.2-2.8 9.9 0 2.8 2.7 2.8 7.1 0 9.9z"/><path class="st2" d="M29.7 64.2l-2.1 2.1-3.3-1.4-2.6-2.6 8-8c2.8 2.7 2.8 7.1 0 9.9zm44-53.9c-11-11-28.8-11-39.7 0C23 21.3 23 39 34 50c11 11 28.8 11 39.7 0 11.1-11 11.1-28.8 0-39.7z"/><path class="st3" d="M73.7 50C62.8 61 45 61 34 50l39.7-39.7C84.8 21.2 84.8 39 73.7 50z"/><path class="st0" d="M70.4 13.6c-9.1-9.2-23.9-9.2-33.1 0-9.2 9.1-9.2 23.9 0 33.1 9.1 9.2 23.9 9.2 33.1 0 9.2-9.2 9.2-24 0-33.1z"/><path class="st1" d="M70.4 46.7c-9.1 9.2-23.9 9.2-33.1 0l33.1-33.1c9.2 9.1 9.2 23.9 0 33.1z"/><path class="st2" d="M27.7 66.3C22.9 71 18.8 75.1 14 79.9c-2.7 2.7-7.1 2.8-9.9.1l-.1-.1c-2.7-2.7-2.7-7.1 0-9.9l.1-.1 13.7-13.7 9.9 10.1z"/><path class="st3" d="M27.7 66.3C22.9 71 18.8 75.1 14 79.9c-2.7 2.7-7.1 2.8-9.9.1l-.1-.1 18.6-18.6c.1 0 5.1 5 5.1 5z"/></svg>