<svg xmlns="http://www.w3.org/2000/svg" xmlns:xlink="http://www.w3.org/1999/xlink" preserveAspectRatio="xMidYMid" width="120" height="101" viewBox="0 0 120 101">
  <defs>
    <style>
      .cls-1 {
        fill: #f192a7;
      }

      .cls-1, .cls-2 {
        fill-rule: evenodd;
      }

      .cls-2 {
        fill: #54a0d3;
      }
    </style>
  </defs>
  <g>
    <path d="M60.000,4.006 C90.875,4.006 115.994,22.041 115.994,44.208 C115.994,57.115 107.189,69.345 92.440,76.923 L90.839,77.745 L90.391,79.490 C88.935,85.161 85.537,90.020 80.939,93.322 C81.370,91.198 81.590,89.031 81.590,86.855 C81.590,86.701 81.582,86.550 81.570,86.372 L81.503,81.492 L76.687,82.577 C71.291,83.793 65.677,84.409 60.000,84.409 C29.124,84.409 4.005,66.375 4.005,44.208 C4.005,22.041 29.124,4.006 60.000,4.006 M60.000,0.000 C26.863,0.000 0.001,19.793 0.001,44.208 C0.001,68.623 26.863,88.415 60.000,88.415 C66.113,88.415 72.010,87.737 77.567,86.485 C77.569,86.610 77.585,86.730 77.585,86.855 C77.585,92.004 76.214,96.824 73.845,100.997 C83.829,98.405 91.694,90.519 94.269,80.486 C109.817,72.498 119.999,59.233 119.999,44.208 C119.999,19.793 93.136,0.000 60.000,0.000 L60.000,0.000 Z" class="cls-1"/>
    <path d="M91.837,43.276 C92.146,43.994 92.015,44.856 91.428,45.442 C91.303,45.567 91.163,45.665 91.016,45.749 L80.347,56.429 C79.580,57.197 78.337,57.197 77.571,56.429 C76.804,55.662 76.804,54.418 77.571,53.651 L87.210,44.003 L77.571,34.354 C76.803,33.586 76.803,32.340 77.571,31.572 C78.339,30.803 79.584,30.803 80.352,31.572 L91.172,42.403 C91.250,42.461 91.328,42.518 91.398,42.588 C91.600,42.790 91.742,43.026 91.837,43.276 ZM55.979,66.734 C55.693,67.801 54.596,68.434 53.530,68.148 C52.463,67.862 51.829,66.765 52.115,65.699 L64.021,21.266 C64.307,20.199 65.403,19.566 66.470,19.852 C67.537,20.138 68.170,21.234 67.885,22.301 L55.979,66.734 ZM32.767,43.987 L42.428,53.648 C43.196,54.416 43.196,55.661 42.428,56.429 C41.661,57.197 40.416,57.197 39.648,56.429 L28.954,45.735 C28.807,45.651 28.666,45.553 28.541,45.428 C27.954,44.841 27.823,43.978 28.132,43.259 C28.228,43.009 28.369,42.773 28.571,42.571 C28.642,42.501 28.720,42.443 28.798,42.386 L39.643,31.541 C40.412,30.772 41.659,30.772 42.428,31.541 C43.197,32.310 43.197,33.557 42.428,34.326 L32.767,43.987 Z" class="cls-2"/>
  </g>
</svg>
