<svg xmlns="http://www.w3.org/2000/svg" xmlns:xlink="http://www.w3.org/1999/xlink" preserveAspectRatio="xMidYMid" width="44" height="36" viewBox="0 0 44 36">
  <defs>
    <style>

      .cls-2 {
        fill: #ffffff;
      }
    </style>
  </defs>
  <path d="M4.829,26.924 C6.173,26.553 8.487,25.031 8.487,21.589 C8.487,18.508 7.483,17.150 6.944,16.421 C6.944,16.421 6.877,16.330 6.877,16.330 C6.871,16.321 6.865,16.314 6.859,16.306 C6.816,16.177 6.688,15.652 6.962,14.530 C7.068,14.094 7.005,13.592 6.818,13.184 C6.413,12.296 5.659,10.644 6.188,9.401 C7.066,7.268 7.435,7.108 8.419,6.679 C8.514,6.638 8.606,6.588 8.694,6.532 C8.940,6.375 9.949,5.999 10.983,5.999 C11.481,5.999 11.895,6.091 12.227,6.257 C12.313,5.913 12.417,5.567 12.560,5.222 C12.682,4.917 12.810,4.655 12.937,4.383 C12.316,4.113 11.644,3.999 10.983,3.999 C9.537,3.999 8.166,4.497 7.619,4.846 C6.019,5.544 5.349,6.189 4.339,8.639 C3.463,10.699 4.506,12.933 5.018,14.057 C4.393,16.625 5.262,17.509 5.262,17.509 C5.716,18.131 6.487,19.031 6.487,21.589 C6.487,24.501 4.245,25.010 4.245,25.010 C2.425,25.646 -0.000,26.999 -0.000,30.998 C-0.000,30.998 -0.000,31.998 1.000,31.998 C1.000,31.998 5.459,31.999 5.459,31.999 C5.699,31.257 6.014,30.587 6.399,30.000 C6.399,30.000 2.073,29.999 2.073,29.999 C2.373,28.098 3.553,27.380 4.829,26.924 ZM29.974,27.213 C29.974,27.213 26.391,26.359 26.391,22.615 C26.391,19.326 27.863,18.168 28.432,17.368 C28.432,17.368 29.600,16.344 28.817,13.042 C30.121,11.233 30.546,8.286 28.949,4.648 C28.058,2.522 27.273,1.358 26.076,0.681 C25.197,0.183 24.199,-0.000 23.229,-0.000 C21.422,-0.000 19.708,0.639 19.023,1.087 C17.023,1.986 15.678,2.813 14.416,5.965 C13.321,8.613 14.624,11.486 15.266,12.930 C14.483,16.233 15.568,17.368 15.568,17.368 C16.137,18.168 17.609,19.326 17.609,22.615 C17.609,26.359 14.025,27.213 14.025,27.213 C11.750,28.032 7.000,29.600 7.000,35.000 C7.000,35.000 7.000,36.000 8.000,36.000 C8.000,36.000 36.000,36.000 36.000,36.000 C37.000,36.000 37.000,35.000 37.000,35.000 C37.000,29.600 32.250,28.032 29.974,27.213 ZM39.755,25.010 C39.755,25.010 37.513,24.501 37.513,21.589 C37.513,19.031 38.284,18.131 38.738,17.509 C38.738,17.509 39.607,16.625 38.981,14.057 C39.494,12.933 40.537,10.699 39.661,8.639 C38.651,6.189 37.981,5.544 36.381,4.846 C35.834,4.497 34.463,3.999 33.017,3.999 C32.333,3.999 31.638,4.121 31.000,4.411 C31.255,5.058 31.470,5.699 31.624,6.331 C31.650,6.316 31.676,6.297 31.702,6.282 C32.043,6.095 32.486,5.999 33.017,5.999 C34.051,5.999 35.060,6.375 35.306,6.532 C35.393,6.588 35.486,6.638 35.581,6.679 C36.565,7.108 36.934,7.268 37.811,9.401 C38.341,10.644 37.587,12.296 37.182,13.184 C36.995,13.592 36.932,14.094 37.038,14.530 C37.311,15.652 37.183,16.177 37.140,16.306 C37.135,16.314 37.129,16.321 37.123,16.330 C37.123,16.330 37.056,16.421 37.056,16.421 C36.516,17.150 35.513,18.508 35.513,21.589 C35.513,25.031 37.827,26.553 39.171,26.924 C40.447,27.380 41.627,28.098 41.927,29.999 C41.927,29.999 37.602,30.000 37.602,30.000 C37.985,30.587 38.301,31.257 38.540,31.999 C38.540,31.999 43.000,31.998 43.000,31.998 C44.000,31.998 44.000,30.998 44.000,30.998 C44.000,26.999 41.575,25.646 39.755,25.010 Z" id="path-1" class="cls-2" fill-rule="evenodd"/>
</svg>
