<svg xmlns="http://www.w3.org/2000/svg" xmlns:xlink="http://www.w3.org/1999/xlink" preserveAspectRatio="xMidYMid" width="366" height="156" viewBox="0 0 366 156">
  <defs>
    <style>

      .cls-4 {
        fill: #ffffff;
      }

      .cls-8 {
        fill: #222222;
      }
    </style>
  </defs>
  <g id="teamsvg">
    <path d="M69.000,112.071 C68.997,114.241 67.238,116.000 65.067,116.000 C65.067,116.000 3.933,116.000 3.933,116.000 C1.762,116.000 0.002,114.241 0.000,112.071 C0.000,112.071 -0.000,112.071 -0.000,112.071 C-0.000,111.489 -0.000,110.741 -0.000,109.786 C-0.000,102.226 6.204,96.098 13.857,96.098 C21.509,96.098 26.582,90.448 26.582,83.808 C26.582,83.808 26.582,83.513 26.582,83.513 C23.602,80.809 21.100,76.940 19.372,73.268 C17.710,73.664 15.593,71.104 14.625,67.511 C13.650,63.890 14.211,60.594 15.879,60.149 C16.179,60.069 16.494,60.090 16.815,60.194 C13.022,25.475 55.241,27.697 52.610,59.918 C52.609,59.927 52.604,59.934 52.600,59.943 C52.803,59.913 53.002,59.920 53.194,59.972 C54.820,60.409 55.367,63.652 54.417,67.215 C53.466,70.778 51.378,73.312 49.752,72.874 C49.719,72.865 49.688,72.848 49.656,72.837 C47.955,76.635 45.438,80.615 42.418,83.398 C42.418,83.398 42.418,83.605 42.418,83.605 C42.418,90.283 47.491,95.965 55.143,95.965 C62.796,95.965 69.000,102.128 69.000,109.730 C69.000,110.717 69.000,111.478 69.000,112.071 C69.000,112.071 69.000,112.071 69.000,112.071 Z" id="path-1" class="cls-4" fill-rule="evenodd"/>
    <path d="M18.000,48.000 C19.891,40.308 24.583,37.271 30.000,35.000 C35.417,32.728 33.000,33.000 33.000,33.000 C33.000,33.000 31.622,32.121 31.000,31.000 C30.378,29.879 35.000,28.000 35.000,28.000 C35.000,28.000 42.931,28.611 41.000,31.000 C39.068,33.389 38.000,34.000 38.000,34.000 C38.000,34.000 52.000,35.063 52.000,53.000 " id="path-2" class="cls-4" fill-rule="evenodd"/>
    <path d="M366.000,112.071 C365.997,114.241 364.238,116.000 362.067,116.000 C362.067,116.000 300.933,116.000 300.933,116.000 C298.762,116.000 297.003,114.241 297.000,112.071 C297.000,112.071 297.000,112.071 297.000,112.071 C297.000,111.489 297.000,110.741 297.000,109.786 C297.000,102.226 303.204,96.098 310.857,96.098 C318.509,96.098 323.582,90.448 323.582,83.808 C323.582,83.808 323.582,83.513 323.582,83.513 C320.602,80.809 318.100,76.940 316.372,73.268 C314.710,73.664 312.593,71.104 311.625,67.511 C310.650,63.890 311.211,60.594 312.880,60.149 C313.179,60.069 313.494,60.090 313.815,60.194 C323.178,35.926 342.057,49.625 342.057,49.625 C342.057,49.625 340.084,45.305 349.610,59.918 C349.615,59.926 349.604,59.934 349.600,59.943 C349.803,59.913 350.002,59.920 350.194,59.972 C351.820,60.409 352.367,63.652 351.417,67.215 C350.466,70.778 348.378,73.312 346.752,72.874 C346.719,72.865 346.688,72.848 346.656,72.837 C344.955,76.635 342.438,80.615 339.418,83.398 C339.418,83.398 339.418,83.605 339.418,83.605 C339.418,90.283 344.491,95.965 352.143,95.965 C359.796,95.965 366.000,102.128 366.000,109.730 C366.000,110.717 366.000,111.478 366.000,112.071 C366.000,112.071 366.000,112.071 366.000,112.071 Z" id="path-3" class="cls-4" fill-rule="evenodd"/>
    <path d="M330.500,35.000 C330.500,35.000 333.500,35.000 333.500,35.000 C342.613,35.000 350.000,42.387 350.000,51.500 C350.000,60.613 342.613,68.000 333.500,68.000 C333.500,68.000 330.500,68.000 330.500,68.000 C321.387,68.000 314.000,60.613 314.000,51.500 C314.000,42.387 321.387,35.000 330.500,35.000 Z" id="path-4" class="cls-4" fill-rule="evenodd"/>
    <path d="M141.500,132.625 C141.500,132.625 60.500,132.625 60.500,132.625 C57.600,132.625 55.250,130.274 55.250,127.375 C55.250,126.584 55.250,125.563 55.250,124.250 C55.250,114.102 63.477,105.875 73.625,105.875 C83.773,105.875 90.500,98.290 90.500,89.375 C90.500,89.375 90.500,89.099 90.500,89.099 C86.496,85.383 83.158,80.071 80.902,75.000 C80.859,75.016 80.819,75.039 80.774,75.051 C78.618,75.635 75.849,72.253 74.588,67.496 C73.328,62.740 74.054,58.411 76.210,57.827 C76.465,57.758 76.729,57.748 76.997,57.788 C76.993,57.776 76.986,57.767 76.984,57.755 C72.217,31.279 87.000,32.000 87.000,32.000 C87.000,32.000 129.622,10.472 124.452,58.123 C124.877,57.985 125.295,57.957 125.692,58.064 C127.904,58.657 128.649,63.057 127.356,67.891 C126.073,72.688 123.265,76.105 121.061,75.577 C118.769,80.478 115.451,85.642 111.500,89.253 C111.500,89.253 111.500,89.646 111.500,89.646 C111.500,98.510 118.227,106.053 128.375,106.053 C138.523,106.053 146.750,114.233 146.750,124.324 C146.750,125.599 146.750,126.598 146.750,127.375 C146.750,130.274 144.399,132.625 141.500,132.625 Z" id="path-5" class="cls-8" fill-rule="evenodd"/>
    <path d="M300.500,132.625 C300.500,132.625 219.500,132.625 219.500,132.625 C216.600,132.625 214.250,130.274 214.250,127.375 C214.250,126.584 214.250,125.563 214.250,124.250 C214.250,114.102 222.477,105.875 232.625,105.875 C242.773,105.875 249.500,98.290 249.500,89.375 C249.500,89.375 249.500,89.099 249.500,89.099 C246.073,85.919 243.140,81.568 240.949,77.202 C241.165,84.147 241.719,91.014 243.000,94.000 C245.748,100.407 224.601,74.540 235.452,43.082 C236.058,39.578 237.270,37.170 238.671,35.532 C239.097,34.689 239.523,33.847 240.000,33.000 C242.461,28.628 247.891,25.924 254.051,26.925 C300.551,15.552 290.488,83.973 277.831,103.352 C280.457,105.047 283.686,106.053 287.375,106.053 C297.523,106.053 305.750,114.233 305.750,124.324 C305.750,125.599 305.750,126.598 305.750,127.375 C305.750,130.274 303.399,132.625 300.500,132.625 ZM270.500,89.646 C270.500,92.397 271.150,95.019 272.346,97.329 C272.622,93.859 272.761,90.337 272.667,87.032 C271.966,87.815 271.249,88.569 270.500,89.253 C270.500,89.253 270.500,89.646 270.500,89.646 Z" id="path-6" class="cls-8" fill-rule="evenodd"/>
    <path d="M234.000,153.000 C234.000,153.000 126.000,153.000 126.000,153.000 C122.134,153.000 119.000,149.866 119.000,146.000 C119.000,146.000 119.000,152.031 119.000,138.500 C119.000,124.969 129.969,114.000 143.500,114.000 C157.031,114.000 166.000,103.886 166.000,92.000 C166.000,92.000 166.000,91.502 166.000,91.502 C160.857,86.731 156.534,80.001 153.537,73.602 C150.613,74.301 146.890,69.776 145.187,63.423 C143.472,57.022 144.460,51.195 147.394,50.409 C147.921,50.268 148.475,50.305 149.039,50.488 C149.144,47.674 149.475,44.940 149.998,42.306 C149.968,24.600 151.300,15.555 163.000,13.000 C175.073,10.363 181.600,11.898 184.000,7.000 C186.400,2.102 181.000,-0.000 181.000,-0.000 C181.000,-0.000 226.807,11.948 212.000,50.000 C211.994,50.015 211.989,50.029 211.983,50.043 C212.339,49.991 212.689,50.003 213.027,50.095 C215.887,50.868 216.850,56.602 215.178,62.901 C213.506,69.199 209.833,73.679 206.973,72.905 C206.914,72.889 206.861,72.858 206.803,72.838 C203.798,79.584 199.344,86.657 194.000,91.581 C194.000,91.581 194.000,92.361 194.000,92.361 C194.000,104.181 202.969,114.237 216.500,114.237 C230.031,114.237 241.000,125.144 241.000,138.599 C241.000,152.053 241.000,146.000 241.000,146.000 C241.000,149.866 237.866,153.000 234.000,153.000 Z" id="path-7" class="cls-4" fill-rule="evenodd"/>
  </g>
</svg>
