<svg id="Слой_1" xmlns="http://www.w3.org/2000/svg" width="84" height="94" viewBox="0 0 84 94"><style>.st1{fill:#ef6d91}</style><path d="M80.3 40.1l-9.7-3.2c-.3-1.1-.8-2.1-1.3-3.1l4.4-8.9c.5-.9.3-2-.4-2.7l-6.6-6.6c-.7-.7-1.8-.9-2.7-.4l-8.9 4.4c-1-.5-2.1-.9-3.1-1.3l-3.2-9.7c-.3-.9-1.2-1.6-2.2-1.6h-9.4c-1 0-1.9.7-2.2 1.6l-3.2 9.7c-1.1.3-2.1.8-3.1 1.3l-8.9-4.4c-.9-.5-2-.3-2.7.4l-6.6 6.6c-.7.7-.9 1.8-.4 2.7l4.4 8.9c-.5 1-.9 2.1-1.3 3.1l-9.7 3.2c-.9.3-1.6 1.2-1.6 2.2v9.4c0 1 .7 1.9 1.6 2.2l9.7 3.2c.3 1.1.8 2.1 1.3 3.1l-4.4 8.9c-.5.9-.3 2 .4 2.7l6.6 6.6c.7.7 1.8.9 2.7.4l8.9-4.4c1 .5 2.1.9 3.1 1.3l3.2 9.7c.3.9 1.2 1.6 2.2 1.6h9.4c1 0 1.9-.7 2.2-1.6l3.2-9.7c1.1-.3 2.1-.8 3.1-1.3l8.9 4.4c.9.5 2 .3 2.7-.4l6.6-6.6c.7-.7.9-1.8.4-2.7l-4.4-8.9c.5-1 .9-2.1 1.3-3.1l9.7-3.2c.9-.3 1.6-1.2 1.6-2.2v-9.4c0-1-.6-1.9-1.6-2.2zM42 65.7c-10.3 0-18.7-8.4-18.7-18.7 0-10.3 8.4-18.7 18.7-18.7 10.3 0 18.7 8.4 18.7 18.7 0 10.3-8.4 18.7-18.7 18.7z" fill="#f49db6"/><path class="st1" d="M81.9 42.3v9.4c0 1-.7 1.9-1.6 2.2l-9.7 3.2c-.3 1.1-.8 2.1-1.3 3.1l4.4 8.9c.5.9.3 2-.4 2.7l-6.6 6.6c-.7.7-1.8.9-2.7.4l-8.9-4.4c-1 .5-2.1.9-3.1 1.3l-3.2 9.7c-.3.9-1.2 1.6-2.2 1.6H42V65.7c10.3 0 18.7-8.4 18.7-18.7 0-10.3-8.4-18.7-18.7-18.7V7.1h4.7c1 0 1.9.7 2.2 1.6l3.2 9.7c1.1.3 2.1.8 3.1 1.3l8.9-4.4c.9-.5 2-.3 2.7.4l6.6 6.6c.7.7.9 1.8.4 2.7l-4.4 8.9c.5 1 .9 2.1 1.3 3.1l9.7 3.2c.9.2 1.5 1.1 1.5 2.1z"/><path class="st1" d="M42 25.9c-11.6 0-21.1 9.4-21.1 21.1S30.4 68.1 42 68.1c11.6 0 21.1-9.5 21.1-21.1 0-11.6-9.5-21.1-21.1-21.1zm0 32.8c-6.5 0-11.7-5.2-11.7-11.7S35.5 35.3 42 35.3 53.7 40.5 53.7 47 48.5 58.7 42 58.7z"/><path d="M63.1 47c0 11.6-9.5 21.1-21.1 21.1v-9.4c6.5 0 11.7-5.2 11.7-11.7S48.5 35.3 42 35.3v-9.4c11.6 0 21.1 9.5 21.1 21.1z" fill="#e93c6d"/></svg>