<svg xmlns="http://www.w3.org/2000/svg" xmlns:xlink="http://www.w3.org/1999/xlink" preserveAspectRatio="xMidYMid" width="121" height="90" viewBox="0 0 121 90">
  <defs>
    <style>
      .cls-1 {
        fill: #54a0d3;
      }

      .cls-1, .cls-2 {
        fill-rule: evenodd;
      }

      .cls-2 {
        fill: #f192a7;
      }
    </style>
  </defs>
  <g>
    <path d="M20.000,90.000 L2.000,90.000 C0.895,90.000 -0.000,89.105 -0.000,88.000 L-0.000,50.000 C-0.000,48.895 0.895,48.000 2.000,48.000 L20.000,48.000 C21.104,48.000 22.000,48.895 22.000,50.000 L22.000,88.000 C22.000,89.105 21.104,90.000 20.000,90.000 ZM20.000,56.000 L2.000,56.000 L2.000,80.000 L20.000,80.000 L20.000,56.000 ZM10.000,84.000 L10.000,86.000 L12.000,86.000 L12.000,84.000 L10.000,84.000 ZM20.000,88.000 L2.000,88.000 L2.000,88.000 L20.000,88.000 L20.000,88.000 Z" class="cls-1"/>
    <path d="M119.000,90.000 L61.000,90.000 C59.895,90.000 59.000,89.104 59.000,88.000 L59.000,50.000 C59.000,48.895 59.895,48.000 61.000,48.000 L119.000,48.000 C120.104,48.000 121.000,48.895 121.000,50.000 L121.000,88.000 C121.000,89.104 120.104,90.000 119.000,90.000 ZM65.000,68.000 L63.000,68.000 L63.000,70.000 L65.000,70.000 L65.000,68.000 ZM113.000,49.999 L69.000,49.999 L69.000,87.999 L113.000,87.999 L113.000,49.999 Z" class="cls-1"/>
    <path d="M106.999,46.000 L106.999,4.000 L14.999,4.000 L14.999,46.000 L11.000,46.000 L11.000,2.000 C11.000,0.895 11.895,-0.000 13.000,-0.000 L109.000,-0.000 C110.104,-0.000 111.000,0.895 111.000,2.000 L111.000,46.000 L106.999,46.000 ZM57.000,82.000 L46.023,82.000 C45.891,82.003 45.761,81.979 45.633,81.926 C45.622,81.921 45.611,81.919 45.600,81.915 C45.568,81.899 45.532,81.898 45.500,81.879 C45.445,81.846 45.409,81.796 45.363,81.754 C45.328,81.725 45.294,81.698 45.263,81.664 C45.217,81.610 45.181,81.553 45.147,81.491 C45.114,81.433 45.085,81.377 45.063,81.312 C45.043,81.252 45.034,81.191 45.026,81.128 C45.020,81.084 45.000,81.045 45.000,81.000 L45.000,80.000 L49.855,72.000 L24.000,72.000 L24.000,70.000 L24.000,70.000 L24.000,60.000 L24.000,60.000 L24.000,58.000 L57.000,58.000 L57.000,82.000 Z" class="cls-2"/>
  </g>
</svg>
