<svg xmlns="http://www.w3.org/2000/svg" preserveAspectRatio="xMidYMid" width="43" height="55" viewBox="0 0 43 55"><defs><style>.cls-1 { fill: #fff; fill-rule: evenodd; }</style></defs><path d="M33.948 24.062V27.5h1.131c4.367 0 7.921 3.599 7.921 8.02 0 4.423-3.554 8.022-7.921 8.022h-1.131v5.729c0 3.16-2.537 5.729-5.658 5.729H7.923c-3.12 0-5.658-2.569-5.658-5.729V24.062c0-.633.506-1.146 1.132-1.146h.432l-2.567-5.198c-.06-.116-.099-.239-.116-.364L.017 10.5c-.073-.441.115-.884.48-1.134.362-.256.836-.269 1.219-.036l5.635 3.424c.127.074.243.173.337.298.001.001.001.002.003.003.001 0-.003 0 .003.003.001 0-.001 0 .002.004v.001c.001 0 .001.001.002.002l.001.001s0 .001.002.003h.001c0 .002.001.002.001.002.033.045.062.092.087.139l5.324 9.706h.466V1.146C13.58.512 14.086 0 14.712 0h9.052c.625 0 1.132.512 1.132 1.146v21.77h.466l5.116-9.307c-.424-.428-.758-.922-.983-1.468-.48-1.157-.451-2.497.079-3.771.279-.67.741-1.259 1.227-1.881 1.275-1.631 1.995-2.723.8-4.568-.254-.393-.248-.904.02-1.289.269-.384.738-.566 1.191-.453 3.275.802 5.593 3.14 6.36 6.414.69 2.952-.077 5.991-1.911 7.562-.648.556-1.388.897-2.184 1.021l-2.886 7.74h.625c.626 0 1.132.513 1.132 1.146zm0 17.188h1.131c3.121 0 5.658-2.569 5.658-5.73 0-3.159-2.537-5.728-5.658-5.728h-1.131V41.25zM2.653 12.571l.422 2.568 1.691-1.283-2.113-1.285zm3.779 2.884L3.699 17.53l2.66 5.386h4.167l-4.094-7.461zm16.201 5.17h-1.132c-.625 0-1.132-.513-1.132-1.146 0-.634.507-1.146 1.132-1.146h1.132v-2.292h-3.395c-.625 0-1.132-.512-1.132-1.146 0-.633.507-1.146 1.132-1.146h3.395v-2.291h-1.132c-.625 0-1.132-.512-1.132-1.146 0-.633.507-1.146 1.132-1.146h1.132V6.875h-3.395c-.625 0-1.132-.513-1.132-1.146 0-.633.507-1.146 1.132-1.146h3.395V2.291h-6.79v20.625h6.79v-2.291zm3.37 4.583H4.528v24.063c0 1.895 1.523 3.437 3.395 3.437H28.29c1.872 0 3.395-1.542 3.395-3.437V25.208h-5.636c-.022-.002-.031-.001-.046 0zM35.8 12.406c1.16-.996 1.653-3.218 1.169-5.285-.371-1.591-1.247-2.881-2.495-3.744.128 1.944-1.039 3.436-1.899 4.534-.389.498-.758.967-.915 1.348-.296.713-.324 1.404-.079 1.997.168.406.457.757.853 1.036.015.008.033.017.049.026.057.032.11.069.161.109.128.077.267.147.413.21 1.096.465 2.02.385 2.743-.231zm-3.061 2.552c-.115-.037-.23-.078-.345-.123l-4.442 8.081h1.819l2.968-7.958z" class="cls-1"/></svg>