<svg id="Слой_1" xmlns="http://www.w3.org/2000/svg" width="68" height="68" viewBox="0 0 68 68"><style>.st0{fill:#fff;stroke:#fff;stroke-width:.3}</style><path class="st0" d="M11.3 7.1h2.1v2.1h-2.1V7.1zm4.1 0h2.1v2.1h-2.1V7.1zm-8.3 0h2.1v2.1H7.1V7.1z"/><path class="st0" d="M60.8 3H7.1C4.8 3 3 4.8 3 7.1v53.7c0 2.3 1.8 4.1 4.1 4.1h53.7c2.3 0 4.1-1.8 4.1-4.1V7.1c0-2.3-1.8-4.1-4.1-4.1zm2.1 57.8c0 1.1-.9 2.1-2.1 2.1H7.1C6 62.9 5 62 5 60.8V13.3h57.8l.1 47.5zm0-49.5H5.1V7.1c0-1.1.9-2 2-2h53.7c1.1 0 2.1.9 2.1 2.1v4.1z"/><path class="st0" d="M54.6 34H51c-.4-1.8-1.1-3.5-2.1-5l2.5-2.5c.4-.4.4-1.1 0-1.5L47 20.6c-.4-.4-1.1-.4-1.5 0L43 23.1c-1.6-.9-3.2-1.6-5-2.1v-3.6c0-.6-.5-1-1-1h-6.2c-.6 0-1 .5-1 1V21c-1.8.4-3.5 1.1-5 2.1l-2.5-2.5c-.4-.4-1.1-.4-1.5 0L16.4 25c-.4.4-.4 1.1 0 1.5L19 29c-.9 1.6-1.6 3.2-2.1 5h-3.6c-.6 0-1 .5-1 1v6.2c0 .6.5 1 1 1h3.6c.4 1.8 1.1 3.5 2.1 5l-2.5 2.5c-.4.4-.4 1.1 0 1.5l4.4 4.4c.4.4 1 .4 1.5 0l2.5-2.5c1.6.9 3.2 1.6 5 2.1v3.6c0 .6.5 1 1 1h6.2c.6 0 1-.5 1-1v-3.6c1.8-.4 3.5-1.1 5-2.1l2.5 2.5c.4.4 1.1.4 1.5 0l4.4-4.4c.4-.4.4-1.1 0-1.5L49 47.2c.9-1.6 1.6-3.2 2.1-5h3.6c.6 0 1-.5 1-1V35c-.1-.6-.5-1-1.1-1zm-1 6.2h-3.4c-.5 0-.9.4-1 .8-.4 2.1-1.2 4.1-2.4 5.8-.3.4-.2 1 .1 1.3l2.4 2.4-2.9 2.9L44 51c-.3-.3-.9-.4-1.3-.1-1.7 1.2-3.7 2-5.8 2.4-.5.1-.8.5-.8 1v3.4H32v-3.4c0-.5-.4-.9-.8-1-2.1-.4-4.1-1.2-5.8-2.4-.4-.3-1-.2-1.3.1l-2.4 2.4-2.9-2.9 2.4-2.4c.4-.3.4-.9.1-1.3-1.2-1.7-2-3.7-2.4-5.8-.1-.5-.5-.8-1-.8h-3.4V36h3.4c.5 0 .9-.4 1-.8.4-2.1 1.2-4.1 2.4-5.8.3-.4.2-1-.1-1.3l-2.4-2.4 2.9-2.9 2.4 2.4c.4.4.9.4 1.3.1 1.7-1.2 3.7-2 5.8-2.4.5-.1.8-.5.8-1v-3.4h4v3.4c0 .5.4.9.8 1 2.1.4 4.1 1.2 5.8 2.4.4.3 1 .2 1.3-.1l2.4-2.4 2.9 2.9-2.4 2.4c-.3.4-.4.9-.1 1.3 1.2 1.7 2 3.7 2.4 5.8.1.5.5.8 1 .8h3.4c.1 0 .1 4.2.1 4.2z"/><path class="st0" d="M34 24.7c-7.4 0-13.4 6-13.4 13.4s6 13.4 13.4 13.4 13.4-6 13.4-13.4-6-13.4-13.4-13.4zm0 24.8c-6.3 0-11.4-5.1-11.4-11.4S27.7 26.7 34 26.7c6.3 0 11.4 5.1 11.4 11.4-.1 6.3-5.2 11.3-11.4 11.4z"/><path class="st0" d="M30.5 35.8l-1.2-1.7-4.1 3.1c-.5.3-.5 1-.2 1.4l.2.2 4.1 3.1 1.2-1.7-3-2.3c-.1.2 3-2.1 3-2.1zm12.6 1.7l-.2-.2-4.1-3.1-1.2 1.7 3 2.3-3 2.3 1.2 1.7 4.1-3.1c.4-.5.5-1.2.2-1.6zm-12.2 5.4L35 32.6l1.9.8-4.1 10.3-1.9-.8z"/></svg>