<svg id="Слой_1" xmlns="http://www.w3.org/2000/svg" width="66" height="66" viewBox="0 0 66 66"><style>.st0{fill:#ef6d91;stroke:#ef6d91;stroke-width:.4}</style><path class="st0" d="M56.8 5H9.3C5.8 5 3 7.8 3 11.4v34.4c0 3.5 2.8 6.4 6.3 6.4h17.1l-1.8 6.4h-4.1V61h25v-2.5h-4.1l-1.8-6.4h17.1c3.5 0 6.2-2.9 6.3-6.4V11.4C63 7.8 60.2 5 56.8 5zM27.2 58.5l1.8-6.4h8.1l1.8 6.4H27.2zm33.3-12.8c0 2.1-1.7 3.8-3.8 3.8H9.3c-2.1 0-3.8-1.7-3.8-3.8v-2.5h55v2.5zm0-5.1h-55V11.4c0-2.1 1.7-3.8 3.8-3.8h47.5c2.1 0 3.8 1.7 3.8 3.8v29.2h-.1z"/><path class="st0" d="M28.3 33.2l5-17.5 2.4.7-5 17.5-2.4-.7zM25.9 19l-1.6-2-7.5 6.4c-.5.5-.6 1.3-.1 1.8l.1.1 7.5 6.4 1.6-2-6.3-5.4c-.1 0 6.3-5.3 6.3-5.3zm22.4 4.5c0-.1-.1-.1-.2-.2L40.6 17 39 19l6.3 5.4-6.3 5.3 1.6 2 7.5-6.4c.5-.4.6-1.2.2-1.8z"/></svg>