<?xml version="1.0" encoding="utf-8"?>
<svg version="1.1" id="Слой_1" xmlns="http://www.w3.org/2000/svg" xmlns:xlink="http://www.w3.org/1999/xlink" x="0px" y="0px"
	 width="635px" height="28.3px" viewBox="0 0 635 28.3" style="enable-background:new 0 0 635 28.3;" xml:space="preserve">
<style type="text/css">
	.st0{fill:#A1A1A1;}
</style>
<g>
	<path class="st0" d="M13.5,0l-3.4,0C6.3,0,3.9,2.7,3.9,6.9v3.2H0.5c-0.3,0-0.5,0.3-0.5,0.6v4.6c0,0.3,0.2,0.6,0.5,0.6h3.4v11.6
		c0,0.3,0.2,0.6,0.5,0.6h4.4c0.3,0,0.5-0.3,0.5-0.6V15.8h3.9c0.3,0,0.5-0.3,0.5-0.6l0-4.6c0-0.2-0.1-0.3-0.2-0.4
		c-0.1-0.1-0.2-0.2-0.4-0.2H9.4V7.4c0-1.3,0.3-2,1.8-2l2.3,0c0.3,0,0.5-0.3,0.5-0.6V0.6C14,0.3,13.8,0,13.5,0z"/>
	<path class="st0" d="M279.8,17.7h-2.5v2.5c0,0.5-0.4,1-0.9,1H273c-0.5,0-0.9-0.4-0.9-1v-2.5h-2.5c-0.5,0-0.9-0.4-0.9-1v-3.4
		c0-0.5,0.4-1,0.9-1h2.5V9.9c0-0.5,0.4-1,0.9-1h3.4c0.5,0,0.9,0.4,0.9,1v2.5h2.5c0.5,0,0.9,0.4,0.9,1v3.4
		C280.7,17.3,280.3,17.7,279.8,17.7z M266.1,17c-0.3,2.9-1.4,5.4-3.1,7.3c-2.2,2.4-5.5,3.8-9,3.8c-3.5,0-6.9-1.4-9.3-3.8
		c-2.4-2.4-3.7-5.7-3.7-9.3c0-3.5,1.4-6.8,3.8-9.2c2.4-2.4,5.6-3.7,9-3.7c1.6,0,3.2,0.3,4.8,0.9c0,0,0,0,0.1,0l1.8,0.9
		c0,0,0.1,0,0.1,0.1l1.8,1.3c0.2,0.2,0.4,0.4,0.4,0.7c0,0.3-0.1,0.6-0.3,0.8l-3.1,3.1c-0.3,0.3-0.8,0.4-1.2,0.1L257,9.1
		c-0.9-0.6-2-0.9-3.2-0.9c-1.7,0-3.4,0.7-4.6,1.9c-2.6,2.6-2.6,7.1-0.1,9.7c1.2,1.3,3,2,4.8,2c1.8,0,3.4-0.7,4.6-1.9
		c0.5-0.6,0.9-1.2,1.2-1.7h-5.6c-0.5,0-0.9-0.4-0.9-1v-3.8c0-0.5,0.4-1,0.9-1h11c0.5,0,0.9,0.3,0.9,0.8l0.1,0.9c0,0.1,0,0.1,0,0.2
		L266.1,17C266.1,16.9,266.1,16.9,266.1,17z"/>
	<path class="st0" d="M190.6,2.5c-1.3,0.8-2.7,1.3-4.2,1.6c-1.2-1.3-2.9-2.1-4.8-2.1c-3.6,0-6.5,2.9-6.5,6.6c0,0.5,0.1,1,0.2,1.5
		c-5.4-0.3-10.3-2.9-13.5-6.9c-0.6,1-0.9,2.1-0.9,3.3c0,2.3,1.2,4.3,2.9,5.5c-1.1,0-2.1-0.3-3-0.8v0.1c0,3.2,2.3,5.8,5.2,6.4
		c-0.5,0.1-1.1,0.2-1.7,0.2c-0.4,0-0.8,0-1.2-0.1c0.8,2.6,3.2,4.5,6.1,4.6c-2.2,1.8-5.1,2.8-8.1,2.8c-0.5,0-1,0-1.6-0.1
		c2.9,1.9,6.3,2.9,10,2.9c12,0,18.6-10,18.6-18.7l0-0.8c1.3-0.9,2.4-2.1,3.3-3.4c-1.2,0.5-2.4,0.9-3.8,1
		C189.1,5.3,190.2,4,190.6,2.5z"/>
	<path class="st0" d="M106.4,13.2c0.7-0.8,1.2-1.5,1.6-2c2.8-3.6,4-6,3.7-7L111.5,4c-0.1-0.1-0.3-0.3-0.8-0.4
		c-0.4-0.1-0.9-0.1-1.6-0.1l-7,0c-0.2,0-0.3,0-0.5,0c-0.2,0-0.3,0-0.3,0.1c0,0-0.1,0-0.1,0.1l-0.1,0.1c-0.1,0-0.2,0.1-0.3,0.2
		c-0.1,0.1-0.2,0.3-0.2,0.4c-0.8,1.9-1.6,3.7-2.6,5.3c-0.6,1-1.2,1.8-1.7,2.6c-0.5,0.7-0.9,1.3-1.3,1.6c-0.3,0.3-0.7,0.6-0.9,0.8
		c-0.3,0.2-0.5,0.3-0.6,0.3c-0.1,0-0.3-0.1-0.4-0.1c-0.2-0.1-0.4-0.3-0.5-0.6s-0.2-0.6-0.3-0.9c0-0.4-0.1-0.7-0.1-1
		c0-0.3,0-0.6,0-1.1c0-0.5,0-0.8,0-1c0-0.6,0-1.3,0-2s0-1.3,0.1-1.7c0-0.4,0-0.8,0-1.3c0-0.5,0-0.8-0.1-1.1
		c-0.1-0.3-0.1-0.5-0.3-0.8c-0.1-0.2-0.3-0.4-0.5-0.6c-0.2-0.1-0.5-0.2-0.8-0.3c-0.9-0.2-2-0.3-3.3-0.3c-3,0-5,0.2-5.8,0.6
		c-0.3,0.2-0.7,0.4-0.9,0.7c-0.3,0.3-0.3,0.5-0.1,0.6c1,0.1,1.7,0.5,2.1,1l0.1,0.3C82.9,5.7,83,6,83.1,6.6c0.1,0.5,0.2,1.1,0.2,1.7
		c0.1,1.2,0.1,2.1,0,3s-0.2,1.5-0.2,1.9c-0.1,0.5-0.2,0.8-0.3,1.1c-0.1,0.3-0.2,0.5-0.3,0.5c0,0.1-0.1,0.1-0.1,0.1
		c-0.2,0.1-0.4,0.1-0.7,0.1c-0.2,0-0.5-0.1-0.8-0.3c-0.3-0.2-0.7-0.5-1-0.9c-0.3-0.4-0.7-0.9-1.2-1.6c-0.4-0.7-0.9-1.5-1.4-2.5L77,9
		c-0.2-0.4-0.6-1.1-1-1.9c-0.4-0.8-0.8-1.7-1.1-2.5c-0.1-0.3-0.3-0.6-0.6-0.8l-0.1-0.1c-0.1-0.1-0.2-0.1-0.4-0.2
		c-0.2-0.1-0.4-0.1-0.6-0.2l-6.7,0c-0.7,0-1.1,0.2-1.4,0.5L65,4.1c0,0.1-0.1,0.2-0.1,0.4c0,0.2,0,0.4,0.1,0.6c1,2.2,2,4.4,3.2,6.5
		c1.1,2.1,2.1,3.7,3,5c0.8,1.3,1.7,2.5,2.6,3.6c0.9,1.1,1.5,1.8,1.7,2.2c0.3,0.3,0.5,0.6,0.7,0.7l0.6,0.6c0.4,0.4,1,0.8,1.7,1.4
		c0.8,0.5,1.6,1.1,2.5,1.6c0.9,0.5,2,0.9,3.2,1.3c1.2,0.3,2.4,0.5,3.6,0.4h2.8c0.6,0,1-0.2,1.3-0.5l0.1-0.1c0.1-0.1,0.1-0.2,0.2-0.4
		c0.1-0.2,0.1-0.4,0.1-0.7c0-0.7,0-1.3,0.2-1.8c0.1-0.5,0.3-1,0.4-1.2c0.2-0.3,0.3-0.5,0.5-0.7c0.2-0.2,0.3-0.3,0.4-0.3
		c0.1,0,0.1-0.1,0.2-0.1c0.4-0.1,0.8,0,1.4,0.4c0.5,0.4,1,0.8,1.5,1.4c0.5,0.5,1,1.2,1.7,1.8c0.6,0.7,1.2,1.2,1.7,1.5l0.5,0.3
		c0.3,0.2,0.7,0.4,1.3,0.5c0.5,0.2,1,0.2,1.4,0.1l6.2-0.1c0.6,0,1.1-0.1,1.4-0.3c0.3-0.2,0.5-0.4,0.6-0.7c0.1-0.2,0.1-0.5,0-0.8
		c-0.1-0.3-0.1-0.5-0.2-0.6c-0.1-0.1-0.1-0.2-0.2-0.3c-0.8-1.4-2.4-3.2-4.7-5.2l0,0l0,0l0,0h0c-1-1-1.7-1.6-2-1.9
		c-0.5-0.6-0.6-1.3-0.3-1.9C104.4,15.8,105.2,14.8,106.4,13.2z"/>
	<path class="st0" d="M356.7,17.9V28h-5.8v-9.4c0-2.4-0.8-4-2.9-4c-1.6,0-2.5,1.1-3,2.1c-0.2,0.4-0.2,0.9-0.2,1.4V28H339
		c0,0,0.1-15.9,0-17.5h5.8v2.5c0,0,0,0,0,0.1h0v-0.1c0.8-1.2,2.1-2.9,5.2-2.9C353.8,10,356.7,12.6,356.7,17.9z M333,2
		c-2,0-3.3,1.3-3.3,3c0,1.7,1.3,3,3.2,3h0c2,0,3.3-1.3,3.3-3C336.2,3.3,334.9,2,333,2z M330,28h5.8V10.5H330V28z"/>
	<path class="st0" d="M410.3,17.3c1.2-2.2-0.4-2.7-0.7-4.3c-1-6.6,7.5-11.1,12-6.5c3.1,3.2,1.1,13-3.9,12c-4.8-1,2.3-8.8-1.5-10.3
		c-3.1-1.2-4.7,3.8-3.3,6.3c-0.9,4.3-2.7,8.4-2,13.8c2.4-1.8,3.3-5.2,3.9-8.8c1.2,0.8,1.9,1.5,3.4,1.7c5.8,0.5,9-5.8,8.2-11.6
		c-0.7-5.1-5.7-7.8-11.1-7.1c-4.3,0.5-8.5,4-8.7,9C406.6,14.4,407.4,16.7,410.3,17.3z"/>
	<path class="st0" d="M489.6,23.7c-0.8,0-1.4-0.2-2-0.5c-0.4-0.3-0.7-0.6-0.9-1c-0.2-0.4-0.2-1.4-0.2-2.9v-6.7h6.2V8.5h-6.2V1.9
		h-3.7c-0.2,1.3-0.5,2.4-0.9,3.3c-0.4,0.9-1,1.6-1.7,2.2c-0.7,0.6-1.6,1.1-2.6,1.4v3.7h2.9v9.1c0,1.2,0.1,2.1,0.4,2.7
		c0.2,0.6,0.7,1.2,1.3,1.8c0.7,0.6,1.5,1,2.3,1.3c0.9,0.3,2,0.5,3.1,0.5c1.1,0,2.1-0.1,2.9-0.3c0.9-0.2,1.9-0.6,3-1.1v-4.1
		C492.2,23.3,490.9,23.7,489.6,23.7z"/>
	<path class="st0" d="M564.8,28c-0.2,0-0.5-0.1-0.6-0.2l-7.3-5l-3.9,2.8c-0.3,0.2-0.7,0.3-1.1,0.1c-0.4-0.1-0.6-0.4-0.7-0.8l-2-7.5
		l-7-2.7c-0.4-0.2-0.7-0.6-0.7-1.1c0-0.5,0.3-0.9,0.7-1.1l26.7-10.6c0.1-0.1,0.2-0.1,0.4-0.1c0,0,0.1,0,0.1,0c0.3,0,0.5,0.1,0.7,0.3
		c0,0,0,0,0.1,0.1c0.2,0.2,0.3,0.4,0.3,0.7c0,0.1,0,0.1,0,0.2c0,0,0,0.1,0,0.1L566,27.1c-0.1,0.4-0.3,0.7-0.7,0.8
		C565.1,28,565,28,564.8,28z M557.5,20.5l6.5,4.4l3.5-18.4l-12.6,12.2L557.5,20.5C557.5,20.5,557.5,20.5,557.5,20.5z M552.1,19.5
		l0.9,3.3l1.9-1.4l-2.5-1.7C552.3,19.8,552.2,19.7,552.1,19.5z M545.8,13.8l4.8,1.8c0.3,0.1,0.6,0.4,0.7,0.8l0.6,2.3
		c0-0.3,0.1-0.5,0.3-0.7l12-11.6L545.8,13.8z"/>
	<path class="st0" d="M634.6,17.8c-0.8,0.8-1.7,1.4-2.7,1.8c-1,0.4-2,0.6-3.1,0.7c0.2,0.2,0.2,0.3,0.3,0.4c1.4,1.5,2.9,3,4.3,4.5
		c0.5,0.5,0.6,1.2,0.3,1.8c-0.3,0.7-1,1.1-1.6,1c-0.4,0-0.7-0.2-1-0.5c-1.1-1.1-2.2-2.3-3.3-3.4c-0.3-0.3-0.5-0.3-0.7,0
		c-1.1,1.2-2.2,2.3-3.3,3.5c-0.5,0.5-1.1,0.6-1.7,0.3c-0.6-0.3-1-1-1-1.6c0-0.4,0.2-0.8,0.5-1.1c1.4-1.5,2.8-3,4.3-4.4
		c0.1-0.1,0.2-0.2,0.3-0.4c-1.9-0.2-3.7-0.7-5.2-1.9c-0.2-0.2-0.4-0.3-0.5-0.5c-0.7-0.7-0.7-1.4-0.2-2.2c0.4-0.7,1.2-0.8,2-0.5
		c0.2,0.1,0.3,0.2,0.4,0.3c2.8,2,6.6,2,9.4,0.1c0.3-0.2,0.6-0.4,0.9-0.5c0.7-0.2,1.3,0.1,1.6,0.7C635.1,16.6,635.1,17.2,634.6,17.8z
		 M627.5,15.2c-3.5,0-6.3-3-6.3-6.6c0-3.6,2.9-6.6,6.3-6.6c3.5,0,6.3,3,6.3,6.7C633.8,12.3,630.9,15.2,627.5,15.2z M627.5,5.4
		c-1.7,0-3.1,1.4-3.1,3.3c0,1.8,1.4,3.2,3.1,3.2c1.7,0,3.1-1.4,3.1-3.2C630.6,6.8,629.2,5.4,627.5,5.4z"/>
</g>
</svg>