<svg xmlns="http://www.w3.org/2000/svg" xmlns:xlink="http://www.w3.org/1999/xlink" preserveAspectRatio="xMidYMid" width="41" height="41" viewBox="0 0 41 41">
  <defs>
    <style>

      .cls-2 {
        fill: #ffffff;
      }
    </style>
  </defs>
  <path d="M34.000,41.000 C34.000,41.000 32.000,41.000 32.000,41.000 C30.895,41.000 30.000,40.104 30.000,39.000 C30.000,39.000 30.000,32.000 30.000,32.000 C30.000,30.895 30.895,30.000 32.000,30.000 C32.000,30.000 39.000,30.000 39.000,30.000 C40.105,30.000 41.000,30.895 41.000,32.000 C41.000,32.000 41.000,34.000 41.000,34.000 C41.000,37.866 37.866,41.000 34.000,41.000 ZM39.000,32.000 C39.000,32.000 32.000,32.000 32.000,32.000 C32.000,32.000 32.000,39.000 32.000,39.000 C32.000,39.000 34.000,39.000 34.000,39.000 C36.761,39.000 39.000,36.761 39.000,34.000 C39.000,34.000 39.000,32.000 39.000,32.000 ZM39.000,26.000 C39.000,26.000 32.000,26.000 32.000,26.000 C30.895,26.000 30.000,25.104 30.000,24.000 C30.000,24.000 30.000,17.000 30.000,17.000 C30.000,15.895 30.895,15.000 32.000,15.000 C32.000,15.000 39.000,15.000 39.000,15.000 C40.105,15.000 41.000,15.895 41.000,17.000 C41.000,17.000 41.000,24.000 41.000,24.000 C41.000,25.104 40.105,26.000 39.000,26.000 ZM39.000,17.000 C39.000,17.000 32.000,17.000 32.000,17.000 C32.000,17.000 32.000,24.000 32.000,24.000 C32.000,24.000 39.000,24.000 39.000,24.000 C39.000,24.000 39.000,17.000 39.000,17.000 ZM39.000,11.000 C39.000,11.000 32.000,11.000 32.000,11.000 C30.895,11.000 30.000,10.104 30.000,9.000 C30.000,9.000 30.000,2.000 30.000,2.000 C30.000,0.895 30.895,-0.000 32.000,-0.000 C32.000,-0.000 34.000,-0.000 34.000,-0.000 C37.866,-0.000 41.000,3.134 41.000,7.000 C41.000,7.000 41.000,9.000 41.000,9.000 C41.000,10.104 40.105,11.000 39.000,11.000 ZM39.000,7.000 C39.000,4.238 36.761,2.000 34.000,2.000 C34.000,2.000 32.000,2.000 32.000,2.000 C32.000,2.000 32.000,9.000 32.000,9.000 C32.000,9.000 39.000,9.000 39.000,9.000 C39.000,9.000 39.000,7.000 39.000,7.000 ZM24.000,41.000 C24.000,41.000 17.000,41.000 17.000,41.000 C15.895,41.000 15.000,40.104 15.000,39.000 C15.000,39.000 15.000,32.000 15.000,32.000 C15.000,30.895 15.895,30.000 17.000,30.000 C17.000,30.000 24.000,30.000 24.000,30.000 C25.105,30.000 26.000,30.895 26.000,32.000 C26.000,32.000 26.000,39.000 26.000,39.000 C26.000,40.104 25.105,41.000 24.000,41.000 ZM24.000,32.000 C24.000,32.000 17.000,32.000 17.000,32.000 C17.000,32.000 17.000,39.000 17.000,39.000 C17.000,39.000 24.000,39.000 24.000,39.000 C24.000,39.000 24.000,32.000 24.000,32.000 ZM24.000,26.000 C24.000,26.000 17.000,26.000 17.000,26.000 C15.895,26.000 15.000,25.104 15.000,24.000 C15.000,24.000 15.000,17.000 15.000,17.000 C15.000,15.895 15.895,15.000 17.000,15.000 C17.000,15.000 24.000,15.000 24.000,15.000 C25.105,15.000 26.000,15.895 26.000,17.000 C26.000,17.000 26.000,24.000 26.000,24.000 C26.000,25.104 25.105,26.000 24.000,26.000 ZM24.000,17.000 C24.000,17.000 17.000,17.000 17.000,17.000 C17.000,17.000 17.000,24.000 17.000,24.000 C17.000,24.000 24.000,24.000 24.000,24.000 C24.000,24.000 24.000,17.000 24.000,17.000 ZM24.000,11.000 C24.000,11.000 17.000,11.000 17.000,11.000 C15.895,11.000 15.000,10.104 15.000,9.000 C15.000,9.000 15.000,2.000 15.000,2.000 C15.000,0.895 15.895,-0.000 17.000,-0.000 C17.000,-0.000 24.000,-0.000 24.000,-0.000 C25.105,-0.000 26.000,0.895 26.000,2.000 C26.000,2.000 26.000,9.000 26.000,9.000 C26.000,10.104 25.105,11.000 24.000,11.000 ZM24.000,2.000 C24.000,2.000 17.000,2.000 17.000,2.000 C17.000,2.000 17.000,9.000 17.000,9.000 C17.000,9.000 24.000,9.000 24.000,9.000 C24.000,9.000 24.000,2.000 24.000,2.000 ZM9.000,41.000 C9.000,41.000 7.000,41.000 7.000,41.000 C3.134,41.000 -0.000,37.866 -0.000,34.000 C-0.000,34.000 -0.000,32.000 -0.000,32.000 C-0.000,30.895 0.895,30.000 2.000,30.000 C2.000,30.000 9.000,30.000 9.000,30.000 C10.104,30.000 11.000,30.895 11.000,32.000 C11.000,32.000 11.000,39.000 11.000,39.000 C11.000,40.104 10.104,41.000 9.000,41.000 ZM9.000,32.000 C9.000,32.000 2.000,32.000 2.000,32.000 C2.000,32.000 2.000,34.000 2.000,34.000 C2.000,36.761 4.239,39.000 7.000,39.000 C7.000,39.000 9.000,39.000 9.000,39.000 C9.000,39.000 9.000,32.000 9.000,32.000 ZM9.000,26.000 C9.000,26.000 2.000,26.000 2.000,26.000 C0.895,26.000 -0.000,25.104 -0.000,24.000 C-0.000,24.000 -0.000,17.000 -0.000,17.000 C-0.000,15.895 0.895,15.000 2.000,15.000 C2.000,15.000 9.000,15.000 9.000,15.000 C10.104,15.000 11.000,15.895 11.000,17.000 C11.000,17.000 11.000,24.000 11.000,24.000 C11.000,25.104 10.104,26.000 9.000,26.000 ZM9.000,17.000 C9.000,17.000 2.000,17.000 2.000,17.000 C2.000,17.000 2.000,24.000 2.000,24.000 C2.000,24.000 9.000,24.000 9.000,24.000 C9.000,24.000 9.000,17.000 9.000,17.000 ZM9.000,11.000 C9.000,11.000 2.000,11.000 2.000,11.000 C0.895,11.000 -0.000,10.104 -0.000,9.000 C-0.000,9.000 -0.000,7.000 -0.000,7.000 C-0.000,3.134 3.134,-0.000 7.000,-0.000 C7.000,-0.000 9.000,-0.000 9.000,-0.000 C10.104,-0.000 11.000,0.895 11.000,2.000 C11.000,2.000 11.000,9.000 11.000,9.000 C11.000,10.104 10.104,11.000 9.000,11.000 Z" id="path-1" class="cls-2" fill-rule="evenodd"/>
</svg>
