<svg id="Слой_1" xmlns="http://www.w3.org/2000/svg" width="40" height="40" viewBox="0 0 40 40"><style>.st0{fill:#e93c6d}</style><path class="st0" d="M15.6 26.1c-1.6-.7-2.8-2-3.7-3.7 0 0 0-.1-.1-.1-.7-1.4-1-2.9-1-4.6 0-5 3.4-9 7.5-9 2.7 0 5.1 1.8 6.4 4.4.7 1.4 1.1 3 1.1 4.6 0 .5.4.8.8.8.1 0 .2 0 .3-.1.1 0 .2.1.3.1h3.5c.5 0 .8-.4.8-.8 0-.5-.4-.8-.8-.8h-3.3c-.1-1.2-.3-2.3-.7-3.4 2.3-.5 4-2.6 4-5 0-.5-.4-.8-.8-.8-.5 0-.8.4-.8.8 0 1.8-1.3 3.2-3 3.5-1.1-2-2.7-3.5-4.6-4.3l2.3-4.5c.2-.4 0-.9-.4-1.1-.4-.2-.9 0-1.1.4l-2.4 4.7c-1-.2-2-.2-3 0l-2.4-4.7c-.2-.4-.7-.6-1.1-.4-.4.2-.6.7-.4 1.1l2.3 4.5c-1.9.8-3.5 2.3-4.6 4.3-1.7-.2-3.1-1.7-3.1-3.5 0-.5-.4-.8-.8-.8-.5-.1-.9.3-.9.8 0 2.5 1.7 4.5 4 5-.4 1.1-.6 2.2-.7 3.4H5.9c-.5 0-.8.4-.8.8 0 .5.4.8.8.8h3.3c.1 1.4.4 2.8 1 4l-2.6 2.6c-.3.3-.3.8 0 1.2.2.2.4.3.6.2.2 0 .4-.1.6-.2l2.2-2.2c1 1.5 2.3 2.8 3.9 3.5.4.2.9 0 1.1-.4.2-.4.1-.9-.4-1.1zm13.5.7l-3.7 3.7-1.5-1.5c-.3-.3-.9-.3-1.2 0-.3.3-.3.9 0 1.2l2.1 2.1c.3.3.9.3 1.2 0l4.3-4.3c.3-.3.3-.9 0-1.2-.4-.3-.9-.3-1.2 0z"/><path class="st0" d="M26.5 21c-4.7 0-8.5 3.8-8.5 8.5s3.8 8.5 8.5 8.5 8.5-3.8 8.5-8.5-3.8-8.5-8.5-8.5zm0 15.3c-3.8 0-6.8-3.1-6.8-6.8 0-3.8 3.1-6.8 6.8-6.8 3.8 0 6.8 3.1 6.8 6.8s-3.1 6.8-6.8 6.8z"/></svg>