<svg xmlns="http://www.w3.org/2000/svg" xmlns:xlink="http://www.w3.org/1999/xlink" preserveAspectRatio="xMidYMid" width="120" height="121" viewBox="0 0 120 121">
  <defs>
    <style>
      .cls-1 {
        fill: #f192a7;
      }

      .cls-1, .cls-2 {
        fill-rule: evenodd;
      }

      .cls-2 {
        fill: #54a0d3;
      }
    </style>
  </defs>
  <g>
    <path d="M95.000,69.000 C82.538,69.000 72.076,77.455 68.966,88.933 C62.631,90.248 55.520,90.990 48.000,90.990 C21.870,90.990 0.629,82.082 -0.000,70.994 C-0.000,64.907 -0.000,58.304 -0.000,51.907 C6.074,61.484 25.253,69.010 48.000,69.010 C70.747,69.010 89.926,61.484 96.000,51.907 C96.000,57.636 96.000,63.510 96.000,69.050 C95.665,69.038 95.338,69.000 95.000,69.000 ZM48.000,67.010 C21.870,67.010 0.629,57.103 -0.000,46.014 C-0.000,39.488 -0.000,33.451 -0.000,28.778 C6.038,38.148 25.231,45.000 48.000,45.000 C70.769,45.000 89.962,38.148 96.000,28.778 C96.000,33.451 96.000,39.488 96.000,46.014 C95.371,57.103 74.130,67.010 48.000,67.010 ZM48.000,43.000 C21.883,43.000 0.653,34.090 0.030,23.000 L-0.000,23.000 C-0.000,22.836 -0.000,22.654 -0.000,22.500 C-0.000,10.073 21.490,-0.000 48.000,-0.000 C74.510,-0.000 96.000,10.073 96.000,22.500 C96.000,22.654 96.000,22.836 96.000,23.000 L95.970,23.000 C95.347,34.090 74.117,43.000 48.000,43.000 ZM48.000,92.989 C55.302,92.989 62.228,92.278 68.479,91.013 C68.176,92.631 68.000,94.294 68.000,96.000 C68.000,101.859 69.886,107.267 73.057,111.692 C65.763,113.789 57.184,115.000 48.000,115.000 C21.490,115.000 -0.000,104.926 -0.000,92.500 C-0.000,89.187 -0.000,83.535 -0.000,76.812 C6.074,86.159 25.253,92.989 48.000,92.989 Z" class="cls-1"/>
    <path d="M95.000,121.000 C81.193,121.000 70.000,109.807 70.000,96.000 C70.000,82.193 81.193,71.000 95.000,71.000 C108.807,71.000 120.000,82.193 120.000,96.000 C120.000,109.807 108.807,121.000 95.000,121.000 ZM108.350,87.631 C107.489,86.784 106.089,86.787 105.223,87.639 L91.852,100.698 L84.825,93.900 C83.948,93.030 82.523,93.034 81.642,93.907 C80.762,94.781 80.758,96.194 81.635,97.063 L90.158,105.336 C90.388,105.564 90.657,105.724 90.942,105.832 C91.744,106.161 92.704,106.006 93.359,105.362 L108.342,90.707 C109.208,89.856 109.211,88.478 108.350,87.631 Z" class="cls-2"/>
  </g>
</svg>
