<?xml version="1.0" encoding="utf-8"?>
<!-- Generator: Adobe Illustrator 19.2.1, SVG Export Plug-In . SVG Version: 6.00 Build 0)  -->
<svg version="1.1" id="img-production-management.svg"
	 xmlns="http://www.w3.org/2000/svg" xmlns:xlink="http://www.w3.org/1999/xlink" x="0px" y="0px" width="340px" height="250px"
	 viewBox="0 0 340 250" style="enable-background:new 0 0 340 250;" xml:space="preserve">
<style type="text/css">
	.st0{fill:#FFFFFF;}
	.st1{fill:#EDEBE6;}
	.st2{fill:#F8F7F2;}
	.st3{fill:#BDC3C7;}
	.st4{fill:#8E8E8E;}
	.st5{fill:#D86493;}
	.st6{fill:#DD3A75;}
	.st7{fill:#EDA2C0;}
	.st8{fill:#5B5B5B;}
	.st9{fill:#A5A5A5;}
	.st10{fill:#5D5C5A;}
	.st11{fill:#565656;}
	.st12{fill:#E40B48;}
</style>
<g id="Группа_85">
	<path id="Фигура_602_копия_2" class="st0" d="M0,130.3l84,23l85-23l-84-23L0,130.3z"/>
	<path id="Фигура_602" class="st1" d="M1,130.3v-48l84-23v48L1,130.3z"/>
	<path id="Фигура_602_копия" class="st2" d="M170,130.3v-48l-85-23v48L170,130.3z"/>
	<path id="Фигура_602_копия_3" class="st0" d="M254,107.3l-84,23v-48l84-23l85,23v48L254,107.3z M171,176.3l-84-23
		l167-46l84,23L171,176.3z"/>
</g>
<path id="Фигура_591_копия" class="st3" d="M340,131.3l-85,22.9v0.1l-84.5,22.7l-0.1,0.3l-0.5-0.1l-0.5,0.1l-0.1-0.3
	L85,154.3l0.5-2l84.5,22.7l80.8-21.8l-81.7-22H169V82.3h1.3l-0.3-1l84.4-22.7l0.1-0.3l0.5,0.1l0.5-0.1l0.1,0.3L340,81.3l-0.3,1h0.3
	V131.3z M254.5,152.1l81.3-21.9L255,108.5l-81.3,21.9L254.5,152.1L254.5,152.1z M254,106.6V60.8l-83,22.4v45.9
	C171,129.1,254,106.7,254,106.6z M338,82.8l-82-22.1v45.9l82,22.1C338,128.8,338,82.8,338,82.8z"/>
<path id="Фигура_591_копия_4" class="st4" d="M171,131.3l-85.5,23v-0.1v0.1L0,131.3l0.3-1H0v-49h0.1l84.4-22.7l0.1-0.3
	l0.5,0.1l0.5-0.1l0.1,0.3L170,81.3l-0.3,1h1.3V131.3z M84,60.8L2,82.8v45.9l82-22.1V60.8z M85,108.6L4.2,130.3l81.3,21.9l80.8-21.8
	L85,108.6z M169,83.2L86,60.8v45.9l83,22.4V83.2z"/>
<path id="Фигура_596_копия_2" class="st5" d="M87,91.3l18,5l-18,6l-18-6L87,91.3z"/>
<path id="Фигура_596" class="st6" d="M87,101.3l18-5v18l-18,5V101.3z"/>
<path id="Фигура_596_копия" class="st7" d="M69,114.3l18,5v-18l-18-5V114.3z"/>
<path id="Фигура_596_копия_3" class="st8" d="M105,103.3l18,5l-11,3l-18-5L105,103.3z"/>
<path id="Фигура_596_копия_3-2" class="st6" d="M112,111.3l11-3v11l-11,3V111.3z"/>
<path id="Фигура_596_копия_3-3" class="st7" d="M94,117.3l18,5v-11l-18-5V117.3z"/>
<path id="Фигура_610" class="st8" d="M104.6,102.8l1.8,1.8l-15,15l-1.8-1.8L104.6,102.8z M109.6,105.8l1.8,1.8l-15,15
	l-1.8-1.8L109.6,105.8z M114.6,108.8l1.8,1.8l-15,15l-1.8-1.8L114.6,108.8z M94,117.3l18,5v-11l-18-5V117.3z"/>
<ellipse id="Эллипс_608" class="st9" cx="74.5" cy="102.3" rx="1.5" ry="2"/>
<ellipse id="Эллипс_608_копия" class="st4" cx="81.5" cy="104.3" rx="1.5" ry="2"/>
<ellipse id="Эллипс_614" class="st6" cx="87" cy="95.8" rx="7" ry="2.5"/>
<path id="Прямоугольник_616" class="st7" d="M80,94.8l2-15.5l5,1v17C83.1,97.3,80,96.2,80,94.8z"/>
<path id="Прямоугольник_616_копия" class="st6" d="M94,94.8l-2-13.5l-5,2v14C90.9,97.3,94,96.2,94,94.8z"/>
<path id="Прямоугольник_616_копия_2" class="st6" d="M88,72.8l21,2.5l-5,1l-21-2L88,72.8z"/>
<path id="Фигура_619" class="st7" d="M86,83.3l20-2v-5l-22-2L86,83.3z"/>
<circle id="Эллипс_619" class="st6" cx="109.1" cy="79.3" r="4.1"/>
<path id="Эллипс_619_копия" class="st4" d="M116,79.1l-5.2,5.2c-2.3-2.3-3.6-6.8-2.1-8.3S113.7,76.6,116,79.1z"/>
<circle id="Эллипс_619_копия_2" class="st7" cx="109.9" cy="80.2" r="4.1"/>
<path id="Фигура_623" class="st10" d="M112.3,81.9l1.4-1.4l3,4l-0.4,0.4L112.3,81.9z"/>
<ellipse id="Эллипс_618" class="st6" cx="85" cy="79.3" rx="4" ry="5"/>
<ellipse id="Эллипс_618_копия" class="st7" cx="85" cy="79.3" rx="2" ry="3"/>
<path id="Фигура_596_копия_2-2" class="st5" d="M257,91.3l18,5l-18,6l-18-6L257,91.3z"/>
<path id="Фигура_596-2" class="st6" d="M257,101.3l18-5v18l-18,5V101.3z"/>
<path id="Фигура_596_копия-2" class="st7" d="M239,114.3l18,5v-18l-18-5V114.3z"/>
<path id="Фигура_596_копия_3-4" class="st8" d="M275,103.3l18,5l-11,3l-18-5L275,103.3z"/>
<path id="Фигура_596_копия_3-5" class="st6" d="M282,111.3l11-3v11l-11,3V111.3z"/>
<path id="Фигура_596_копия_3-6" class="st7" d="M264,117.3l18,5v-11l-18-5V117.3z"/>
<path id="Фигура_610-2" class="st8" d="M274.6,102.8l1.8,1.8l-15,15l-1.8-1.8L274.6,102.8z M279.6,105.8l1.8,1.8l-15,15
	l-1.8-1.8L279.6,105.8z M284.6,108.8l1.8,1.8l-15,15l-1.8-1.8L284.6,108.8z M264,117.3l18,5v-11l-18-5V117.3z"/>
<ellipse id="Эллипс_608-2" class="st4" cx="244.5" cy="102.3" rx="1.5" ry="2"/>
<ellipse id="Эллипс_608_копия-2" class="st9" cx="251.5" cy="104.3" rx="1.5" ry="2"/>
<ellipse id="Эллипс_614-2" class="st6" cx="257" cy="95.8" rx="7" ry="2.5"/>
<path id="Прямоугольник_616-2" class="st7" d="M250,94.8l2-15.5l5,1v17C253.1,97.3,250,96.2,250,94.8z"/>
<path id="Прямоугольник_616_копия-2" class="st6" d="M264,94.8l-2-13.5l-5,2v14C260.9,97.3,264,96.2,264,94.8z"/>
<path id="Прямоугольник_616_копия_2-2" class="st6" d="M260,73.9l16.9,12.7l-1.9,0.6l-20.1-13.5
	C254.9,73.7,260,73.9,260,73.9z"/>
<path id="Фигура_619-2" class="st7" d="M255.1,83.6l18.3,8.3l2.5-4.3l-18-12.7L255.1,83.6L255.1,83.6z"/>
<circle id="Эллипс_619-2" class="st6" cx="277.4" cy="91.1" r="3.7"/>
<circle id="Эллипс_619_копия-2" class="st4" cx="279.5" cy="92.7" r="3.7"/>
<circle id="Эллипс_619_копия_2-2" class="st7" cx="277.6" cy="92.1" r="3.7"/>
<path id="Фигура_623-2" class="st10" d="M278.5,95.7l1.9-0.5l0.6,5l-0.6,0.1L278.5,95.7z"/>
<ellipse id="Эллипс_618-2" class="st6" cx="255" cy="79.3" rx="4" ry="5"/>
<ellipse id="Эллипс_618_копия-2" class="st7" cx="255" cy="79.3" rx="2" ry="3"/>
<path id="Эллипс_649" class="st11" d="M85,35.3c-5,0-9-4-9-9s4-9,9-9s9,4,9,9S90,35.3,85,35.3z M85,18.8
	c-4.1,0-7.5,3.4-7.5,7.5s3.4,7.5,7.5,7.5s7.5-3.4,7.5-7.5S89.1,18.8,85,18.8z M84,25.3v-4h2v4h3v2h-5V25.3z"/>
<path id="Эллипс_649_копия" class="st7" d="M94.8,16c-2.6-2.5-6.1-4-9.8-3.9V2.3c6.3,0,12.3,2.4,16.8,6.8L94.8,16z"/>
<path id="Эллипс_649_копия_2" class="st6" d="M102,43.3l-7-7c5.1-5.1,5.6-13.1,1.1-18.8l7-7
	C111.4,20.1,110.9,34.3,102,43.3z M101,26.3c0,3.7-1.3,7.2-3.6,10.1l4.3,4.3c3.4-4,5.3-9.1,5.3-14.3C105.4,26.2,103.7,26.2,101,26.3
	z"/>
<path id="Эллипс_649_копия_3" class="st9" d="M61,26.3h9.8c0,7.8,6.3,14.2,14.2,14.2v9.8C71.7,50.3,61,39.5,61,26.3z
	 M83,42.2c-7.2-0.9-12.9-6.6-13.9-13.9h-6c1,10.6,9.3,18.9,19.9,19.9V42.2z"/>
<g id="Группа_87">
	<path id="Фигура_654" class="st12" d="M273.7,43.3h-38.2c-1.3,0.1-2.4-0.9-2.4-2.2c0-0.5,0.1-0.9,0.4-1.3
		c0.7-1.5,17.5-29.9,18.9-32.3c0.7-1.1,2.1-1.5,3.3-0.9c0.4,0.2,0.6,0.5,0.9,0.9c1,1.8,17.9,30.3,19.1,32.3c0.7,1.1,0.3,2.5-0.8,3.2
		C274.5,43.2,274.1,43.3,273.7,43.3z M256,18.3h-3v12h3V18.3z M256,33.3h-3v3h3V33.3z"/>
</g>
</svg>
