<?xml version="1.0" encoding="utf-8"?>
<!-- Generator: Adobe Illustrator 19.2.1, SVG Export Plug-In . SVG Version: 6.00 Build 0)  -->
<svg version="1.1" id="img-inventory-management.svg"
	 xmlns="http://www.w3.org/2000/svg" xmlns:xlink="http://www.w3.org/1999/xlink" x="0px" y="0px" width="240.3px" height="200px"
	 viewBox="0 0 240.3 200" style="enable-background:new 0 0 240.3 200;" xml:space="preserve">
<style type="text/css">
	.st0{fill:#BDC3C7;}
	.st1{fill:#E40B48;}
	.st2{fill:#8E8E8D;}
	.st3{fill:#FFFFFF;}
	.st4{fill:#E2E2E2;}
	.st5{fill:#EDA2C0;}
	.st6{fill:#565656;}
	.st7{fill:#DD3A75;}
</style>
<path id="Прямоугольник_578_копия_5" class="st0" d="M240.3,70.7v28.1H240l-22.7,8.5v0.5H217l-22.7,8.5v0.5H194
	l-22.7,8.5v0.5h-2v-0.5l-22-8.2l-22,8.2v0.5h-2v-0.5l-22.7-8.5h-0.3v-0.5l-22.8-8.5h-0.3v-30h0.3l22.8-8.6l-0.1-0.3l23-8.6V31.8h0.3
	l22.7-8.5V12.8h0.3l23.3-8.7l0.2-0.3l0.3,0.1l0.3-0.1l0.1,0.3l23.3,8.7h0.3v38.5l23,8.6l-0.1,0.3l22.8,8.6h0.3V70.7z M194.3,88.7
	v25.5l21-7.9V80.3l-21,7.9V88.7z M171.3,123.1l21-7.9V89.3l-21,7.9V123.1z M148.3,115.3l21,7.9V97.3l-21-7.9V115.3z M125.3,123.1
	l21-7.9V89.3l-21,7.9V123.1z M102.3,114.9v0.4l21,7.9V97.3l-21-7.9C102.3,89.3,102.3,114.8,102.3,114.9z M79.3,106.3l21,7.9V88.3
	l-21-7.9C79.3,80.3,79.3,106.3,79.3,106.3z M80.6,78.8l20.6,7.7l20.6-7.7l-20.6-7.7L80.6,78.8z M146.3,25.3l-19.7,7.4l19.6,7.4
	L146.3,25.3L146.3,25.3L146.3,25.3z M170.3,6l-20.7,7.7l20.6,7.7l20.6-7.7L170.3,6L170.3,6z M192.3,40.8V15.4l-21,7.9V49l21-7.9
	V40.8z M192.3,68.8V43.5l-21,7.9v0.4h-2V23.3l-21-7.9v27.4h-2v-0.5l-21-7.9v27.4H125l-21.4,8l21.6,8.1l-0.3,0.9l0.3,0.9l-21.6,8.1
	l20.6,7.7l22-8.2v-0.5h2v0.5l22,8.2l20.6-7.7l-21.6-8.1l0.3-0.9l-0.3-0.9l23-8.6v-0.4H192.3z M193.3,71l-20.7,7.7l20.6,7.7l20.6-7.7
	L193.3,71L193.3,71z M194.3,53.3V68l19.6-7.4L194.3,53.3z M216.3,62l-20.7,7.7l20.6,7.7l20.6-7.7L216.3,62L216.3,62z M238.3,71.3
	l-21,7.9v25.8l21-7.9V71.3z M213.7,72.8l6.2-2.3l0.8,1.9l-6.2,2.3L213.7,72.8z M209.7,70.8l6.2-2.3l0.8,1.9l-6.2,2.3L209.7,70.8z
	 M205.6,68.8l9.2-3.4l0.8,1.9l-9.2,3.4L205.6,68.8z M188.3,35.6l-9.3,3.1l-0.7-1.9l9.3-3.1L188.3,35.6L188.3,35.6z M185.3,40.6
	l-6.3,2.1l-0.7-1.9l6.3-2.1L185.3,40.6L185.3,40.6z M157.6,98.9l0.6-1.9l9.2,3.3l-0.6,1.9L157.6,98.9z M161.3,104.3l-6.3-2.2
	l0.6-1.9l6.3,2.2L161.3,104.3z"/>
<path id="Прямоугольник_578_копия_3" class="st1" d="M171.3,51.7v28.1H171l-22.7,8.5v0.5h-2v-0.5l-22.8-8.5h-0.3
	v-30h0.3l23.3-8.7l0.2-0.3l0.3,0.1l0.3-0.1l0.1,0.3l23.3,8.7h0.3V51.7z M125.3,78.3l21,7.9V60.3l-21-7.9V78.3z M147.3,43l-20.7,7.7
	l20.6,7.7l20.6-7.7L147.3,43z M169.3,52.3l-21,7.9v25.8l21-7.9V52.3z M164.3,60.6L151,65.8l-0.7-1.9l13.3-5.1
	C163.6,58.8,164.3,60.7,164.3,60.6z M159.3,66.6l-8.3,3.1l-0.7-1.9l8.3-3.1C158.6,64.8,159.3,66.7,159.3,66.6z M133.8,78.6
	c-0.9-0.5-1.5-1.5-1.5-2.5c0-1.1,0.7-1.6,1.5-1.3c0.9,0.5,1.5,1.5,1.5,2.5S134.6,78.9,133.8,78.6z M128.8,76.6
	c-0.9-0.5-1.5-1.5-1.5-2.5c0-1.1,0.7-1.6,1.5-1.3c0.9,0.5,1.5,1.5,1.5,2.5S129.6,76.9,128.8,76.6z"/>
<path id="Фигура_590" class="st1" d="M146.6,50.3l-0.7,0.7l-40-40l0.7-0.7L146.6,50.3z"/>
<path id="Прямоугольник_577" class="st2" d="M0.3,9.8h106v120H0.3V9.8z"/>
<path id="Прямоугольник_577_копия" class="st3" d="M2.3,11.8h102v116H2.3V11.8z"/>
<path id="Прямоугольник_583" class="st2" d="M48.3,19.8h24c1.1,0,2,0.9,2,2s-0.9,2-2,2h-24c-1.1,0-2-0.9-2-2
	S47.1,19.8,48.3,19.8z M78.3,19.8h16c1.1,0,2,0.9,2,2s-0.9,2-2,2h-16c-1.1,0-2-0.9-2-2S77.1,19.8,78.3,19.8z M47.3,27.8h29
	c0.6,0,1,0.4,1,1s-0.4,1-1,1h-29c-0.6,0-1-0.4-1-1S46.7,27.8,47.3,27.8z M47.3,31.8h39c0.6,0,1,0.4,1,1s-0.4,1-1,1h-39
	c-0.6,0-1-0.4-1-1S46.7,31.8,47.3,31.8z M47.3,35.8h9c0.6,0,1,0.4,1,1s-0.4,1-1,1h-9c-0.6,0-1-0.4-1-1S46.7,35.8,47.3,35.8z
	 M60.3,35.8h19c0.6,0,1,0.4,1,1s-0.4,1-1,1h-19c-0.6,0-1-0.4-1-1S59.7,35.8,60.3,35.8z M80.3,27.8h9c0.6,0,1,0.4,1,1s-0.4,1-1,1h-9
	c-0.6,0-1-0.4-1-1S79.7,27.8,80.3,27.8z M70.3,39.8h13c0.6,0,1,0.4,1,1s-0.4,1-1,1h-13c-0.6,0-1-0.4-1-1S69.7,39.8,70.3,39.8z
	 M47.3,39.8h19c0.6,0,1,0.4,1,1s-0.4,1-1,1h-19c-0.6,0-1-0.4-1-1S46.7,39.8,47.3,39.8z M47.3,43.8h27c0.6,0,1,0.4,1,1s-0.4,1-1,1
	h-27c-0.6,0-1-0.4-1-1S46.7,43.8,47.3,43.8z"/>
<path id="Прямоугольник_583_копия" class="st2" d="M10.3,53.8h86v66h-86L10.3,53.8z"/>
<path id="Фигура_586" class="st4" d="M96.3,102.9c-1.7-0.1-3-0.2-3-0.2l-4,1l3,4l4,1v9.8l-1.7,1.2h-5.1l-1.1-4l4-3
	c-1-0.8-9.5,2.4-9,3c0.3,0.4,0.3,2.2-0.5,4H47.8c-0.4-0.6-0.6-1.3-0.6-2c0.1-1.8-1-2.3-1-4s-2.1-0.9-4,0s-4,0.6-6,1s-3-1.6-3-3
	s1-1.8,2-4s1-2,1-2c2.7-0.2,5.4-0.5,8-1c5.3-0.9,0.2-2.8,1-5s0.2-2.1,0-4s-1-2.6-3-4s-3,2-3,2c0.3,1,0.6,2,1,3c0.8,2.1,0.7,5.9,0,5
	s-5.6,1.2-6,2s-1,5.9-3,8s-8,5.3-9,5s-7.8-4.6-10-12s4.8-2.4,9-4s-0.7-1.1-3-3s-1.5-1.6-2-3s-2.7-1.4-4-3s-1.2-2.6-2-4v-2
	c0.4-1.1,1.2-2.4,2-4c1.3-2.9,3.8-3.5,6-4c1.1-0.1,2.1-0.5,3-1c1-0.5,6-0.3,6-1c-0.2-1.4-0.6-2.7-1-4c-0.6-3-1-6-1-9
	c-0.2-3.9,3.5-5.1,7-5l6.4-4h29.8c1.5,2.1,2.8,4,2.8,4c-0.1,0.9-2,11-2,11c-0.6,1.1,4,4,4,4c0.1-0.9,2-8,2-8
	c-0.3-2.2-0.7-8.5-0.9-11h3.1c0.3,2,0.8,6,0.8,6c0.2,0.7,0.5,1.4,1,2l4,4c1.6-0.8,2-6,2-6s1.6-0.2,1-1c0.7,0.6,1.4,1.3,2,2l2,3v4
	c-1-0.1-2-0.1-3,0c-1.7,0.1-3.3,0.1-5,0c-1,0.4-3,1-3,1c-1,2.6,2,2,2,2h4c1-0.2,2.1-0.5,3-1l4,3c0.6-1,1-2,1-2c1.3-1.4,0-7,0-7
	c0.1-1.1-0.3-2.2-1-3c-0.7-1-1.8-1.7-3-2c-1-0.2-1.8-1-2-2l4-2l0.8-1h4.2v22h-3l-1,2l4,3L96.3,102.9z"/>
<path id="Фигура_587" class="st5" d="M85.3,104.8c-2.9,1-3.4,10.7-8.9,15H52c0.2-3.4-4.2-7-2.7-10c1.8-3.6,0-3.1,2-9
	s-0.9-6-1-11s-3-4-5-6s-2.5-1.3-5-4s-7.8-14.4-6-19c0.7-1.7,1.7-4.4,2.7-7h25.5c-0.1,2.4-0.3,4.6-1.1,5.2c-2,1.6-0.7,2.9,1,6
	c1.7,3.1,1,6.4,2,9.1s-1,20.1-1,20.1c5.5,1,10.9,2.7,16,5c8.2,3.8,10.6-0.1,17-0.9v7.1C93.7,104.7,89,103.4,85.3,104.8z"/>
<path id="Прямоугольник_578_копия_4" class="st1" d="M34.3,25.1v14.1h-0.1l-11.4,4.3v0.2h-1v-0.2l-11.4-4.3h-0.1
	V24.1h0.1l11.7-4.4v-0.1l0.1,0.1l0.1-0.1v0.1L34,24.1h0.1v1H34.3z M11.3,38.5l10.5,3.9V29.5l-10.5-3.9V38.5z M22.3,20.9l-10.4,3.9
	l10.3,3.9l10.4-3.9L22.3,20.9z M33.3,25.5l-10.5,3.9v12.9l10.5-3.9V25.5z M30.8,29.6l-6.7,2.6l-0.4-0.9l6.7-2.6
	C30.4,28.8,30.8,29.6,30.8,29.6z M28.3,32.7l-4.2,1.6l-0.4-0.9l4.2-1.6C27.9,31.8,28.3,32.7,28.3,32.7z M15.5,38.7
	c-0.5-0.2-0.8-0.7-0.8-1.3c0-0.5,0.3-0.8,0.8-0.6s0.8,0.7,0.8,1.3C16.3,38.6,15.9,38.9,15.5,38.7z M13,37.7
	c-0.5-0.2-0.8-0.7-0.8-1.3c0-0.5,0.3-0.8,0.8-0.6s0.8,0.7,0.8,1.3C13.8,37.6,13.4,37.9,13,37.7z"/>
<path id="Фигура_586-2" class="st6" d="M18.9,94.8l-0.6-0.8l5.8-4.9v-5.2l5.1-1l2-5.1h5.4c0.1,0,13.4,2.7,23.5-3.9l0.2-0.1
	l0.2,0.1c0.7,0.2,1.4,0.1,2-0.3c0.7-0.6,1.2-1.4,1.4-2.3l0.1-0.5l4.7,1.2l4.2,3.2l-1.1,4.3V85l6.6,2.8h3.9v1h-4.2l-7.3-3.1v-6.5
	l0.9-3.7l-3.6-2.7L64.7,72c-0.3,1-0.9,1.9-1.7,2.5c-0.8,0.5-1.7,0.6-2.6,0.4c-10.1,6.5-23.1,4.1-24,4h-4.6l-2,4.9l-4.8,1v4.8
	L18.9,94.8z"/>
<path id="Эллипс_588" class="st7" d="M81.3,62.8c4.4,0,8,3.6,8,8s-8,18-8,18s-8-13.6-8-18S76.8,62.8,81.3,62.8z M81.3,66.8
	c2.2,0,4,1.8,4,4s-1.8,4-4,4s-4-1.8-4-4S79,66.8,81.3,66.8z"/>
</svg>
