<svg id="img-crm" xmlns="http://www.w3.org/2000/svg" width="226.7" height="206.3" viewBox="0 0 226.7 206.3"><style>.st1{fill:#ed85aa}.st2{fill:#8e97a2}.st4{fill:#bdc3c7}</style><path fill="#f2f2f2" d="M84.5 22.3h138.6v129.8H84.5z"/><path id="Фигура_566-2_2_" class="st1" d="M187.8 85.7L171 81.5l-17.2 12.8-20.5 5.3-11 13.5-21.1.1v-1.4l19.7-.3 11.4-13.9 19.7-4.7 18.7-13.8 17.4 4.5 15.8-14.2c.5.5 1 .9 1.5 1.3L189 85.5l-1.2.2z"/><path class="st2" d="M196 99.5h9.5v42H196zm-18.9-5.6h9.5v47.7h-9.5zm-19 15.3h9.5v32.5h-9.5zm-18.9 9.5h9.5v22.9h-9.5zm-19 15.3h9.5v7.6h-9.5z"/><path d="M119.9 50.7h-11V39.5c5.9.7 10.6 5.4 11 11.2z" fill="#e40b48"/><path class="st2" d="M107.8 64.1c-6.7 0-12.3-5.4-12.3-12.3 0-6.3 4.9-11.7 11.2-12.3V53h13.2c-.4 6.2-5.8 11.1-12.1 11.1z"/><path class="st4" d="M215.7 19.1H49.5c-6.9 0-10 3.1-10 10v115.1c0 6.9 3.1 10 10 10h166.2c6.9 0 10-3.1 10-10v-115c0-7-3.1-10.1-10-10.1zM82.9 150.8H49.5c-3.6 0-6.6-3-6.6-6.6v-115c0-3.6 2-6.6 5.6-6.6h34.4v128.2zm139.3-5.6c0 3.6-3 5.6-6.6 5.6H86.3V22.6h129.3c3.6 0 6.6 2 6.6 5.6v117z"/><path d="M63.2 42.7H50.4c-1.7 0-3 1-3 2.3 0 1.2 1.3 2.3 3 2.3h12.8c1.7 0 3-1 3-2.3s-1.4-2.3-3-2.3z" fill="#8e8e8d"/><path class="st4" d="M47.4 33.1h25.2v4.5H47.4z"/><path class="st1" d="M47.4 42.7h18.8v4.5H47.4z"/><path class="st4" d="M47.4 58.1h25.2v4.5H47.4zm0 9.6h25.2v4.5H47.4z"/><path id="Фигура_566-2_3_" d="M184.7 66.9l-15.9-1.1-18.3 8.3-16.6 20.1-32.7 10.6v-1.7L133 92.4 148.9 73l19.8-9.3 16.6 1.3 18.6-14.8c.4.4 1 .9 1.4 1.2L186 66.8l-1.3.1z" fill="#db4984"/><path transform="translate(-.058143 .1783)" class="st4" d="M126.9 47.4h43.9v2.5h-43.9z"/><path transform="translate(-.0511923 .1843)" class="st4" d="M126.9 41.6h54v2.5h-54z"/><circle cx="47.8" cy="158.4" r="46.8" fill="#fff"/><path class="st2" d="M62.3 181.6c-.3-.7-1.1-1-1.8-.7-6.2 2.4-13.2 2.9-19.7 1.3l1.3-.4c.7-.2 1.2-.9.9-1.6-.2-.7-1-1.1-1.7-.9l-5.5 1.5h-.1c-.1 0-.2.1-.4.2l-.1.1c-.1.1-.3.3-.3.4-.1.2-.1.3-.1.5s.1.3.1.5v.1l2.8 4.9c.4.6 1.2.9 1.9.5.7-.3.9-1.1.6-1.7l-1.1-2c7.4 2.1 15.4 1.7 22.5-1.1.7-.2 1-1 .7-1.6zm20.9-31.3c-.5-.5-1.3-.5-1.8 0l-1.8 1.8c-1.1-11.2-8.2-20.9-18.5-25.3-.6-.3-1.4 0-1.7.7-.3.6 0 1.4.7 1.7 9.3 3.9 15.7 12.6 16.9 22.6l-1.4-1.4c-.5-.5-1.3-.5-1.8 0s-.5 1.3 0 1.8l3.8 3.8c.5.5 1.3.5 1.8 0l3.8-3.8c.5-.6.5-1.4 0-1.9zm-47.4-22.5v-.2c0-.1-.1-.1-.1-.2s-.1-.1-.1-.2c-.1-.1-.2-.1-.2-.2l-.1-.1-5.1-2.3c-.7-.3-1.4 0-1.7.7-.3.6 0 1.3.6 1.6l2.6 1.2c-10 5.3-16.2 15.7-16.2 27 0 .7.6 1.3 1.3 1.3.7 0 1.3-.6 1.3-1.3 0-9.9 5.3-19.1 13.8-24.2l-.9 1.9c-.3.6 0 1.4.6 1.7.2.1.4.1.6.1.5 0 .9-.3 1.1-.7l2.6-5.3c0-.1.1-.2.1-.3v-.2c-.2-.2-.2-.2-.2-.3zm65.5.3h9.5v13.4h-9.5z"/><path id="Фигура_548_копия" class="st4" d="M23.8 178.6c-3.5 0-7.1 0-10.1-.1h-1.9c-1.3 0-2.3-1.1-2.3-2.4 0-.4.1-.9.4-1.2 1.7-3 4.6-5.1 8-5.9-2.5-1.7-3.3-5.1-1.7-7.6 1.7-2.5 5.1-3.3 7.6-1.7 2.5 1.7 3.3 5.1 1.7 7.6-.4.7-1 1.2-1.7 1.7 3.3.8 6.2 2.9 8 5.9.4.7.4 1.7.1 2.4-.4.7-1.2 1.2-2 1.2-1.9.1-4 .1-6.1.1zm-3.1-9.9c2.4-.1 4.3-2 4.3-4.3-.1-2.3-2-4.3-4.3-4.2s-4.3 2-4.2 4.3c0 2.3 1.8 4.2 4.2 4.2z"/><path id="Фигура_548_копия_1_" d="M77.8 178.6c-3.5 0-7.1 0-10.1-.1h-1.9c-1.3 0-2.3-1.1-2.3-2.4 0-.4.1-.9.4-1.2 1.7-3 4.6-5.1 8-5.9-2.5-1.7-3.3-5.1-1.7-7.6 1.7-2.5 5.1-3.3 7.6-1.7 2.5 1.7 3.3 5.1 1.7 7.6-.4.7-1 1.2-1.7 1.7 3.3.8 6.2 2.9 8 5.9.4.7.4 1.7.1 2.4-.4.7-1.2 1.2-2 1.2-1.9.1-4 .1-6.1.1zm-3.1-9.9c2.4-.1 4.3-2 4.3-4.3-.1-2.3-2-4.3-4.3-4.2s-4.3 2-4.2 4.3c0 2.3 1.8 4.2 4.2 4.2z" fill="#dd3a75"/><path id="Фигура_548_копия_2_" class="st1" d="M51.7 138c-3.5 0-7.1 0-10.1-.1h-1.9c-1.3 0-2.3-1.1-2.3-2.4 0-.4.1-.9.4-1.2 1.7-3 4.6-5.1 8-5.9-2.5-1.7-3.3-5.1-1.7-7.6s5.1-3.3 7.6-1.7 3.3 5.1 1.7 7.6c-.4.7-1 1.2-1.7 1.7 3.3.8 6.2 2.9 8 5.9.4.7.4 1.7.1 2.4-.4.7-1.2 1.2-2 1.2-1.9.1-3.9.1-6.1.1zm-3.1-9.9c2.4-.1 4.3-2 4.3-4.3-.1-2.3-2-4.3-4.3-4.2-2.3.1-4.3 2-4.2 4.3 0 2.3 1.9 4.2 4.2 4.2z"/></svg>