<svg id="img_project_management.svg" xmlns="http://www.w3.org/2000/svg" width="264" height="202.8" viewBox="0 0 264 202.8"><style>.st2{fill:#fff}.st4{fill:#e40b48}</style><path id="Прямоугольник_508_копия_2" d="M260 110h-28c-2.2 0-4-1.8-4-4v-7h-6V65h-4v-2h6v34h4v-7c0-2.2 1.8-4 4-4h28c2.2 0 4 1.8 4 4v16c0 2.2-1.8 4-4 4zm0-102H6C3.8 8 2 6.2 2 4s1.8-4 4-4h254c2.2 0 4 1.8 4 4s-1.8 4-4 4zM6 18h80c2.2 0 4 1.8 4 4v7h6v34h4v2h-6V31h-4v7c0 2.2-1.8 4-4 4H6c-2.2 0-4-1.8-4-4V22c0-2.2 1.8-4 4-4z" fill="#d9d9d9"/><path id="Прямоугольник_511" d="M214 76H104c-2.2 0-4-1.8-4-4V56c0-2.2 1.8-4 4-4h110c2.2 0 4 1.8 4 4v16c0 2.2-1.8 4-4 4zM102 0h116v8H102V0z" fill="#afafae"/><path id="Прямоугольник_508_копия_5" class="st2" d="M260 108h-28c-1.1 0-2-.9-2-2V90c0-1.1.9-2 2-2h28c1.1 0 2 .9 2 2v16c0 1.1-.9 2-2 2zm0-102h-98V2h98c1.1 0 2 .9 2 2s-.9 2-2 2zm-44 50v16c0 1.1-.9 2-2 2h-52V54h52c1.1 0 2 .9 2 2z"/><path id="Прямоугольник_509" d="M238 203H80V80h71l9-9 9 9h69v123z" fill="#757575"/><path id="Прямоугольник_509_копия" class="st2" d="M236 201H82V82h69l2.3-2.3L160 73l6.7 6.7L169 82h67v119z"/><path id="Прямоугольник_511_копия" class="st4" d="M214 148H104c-2.2 0-4-1.8-4-4s1.8-4 4-4h110c2.2 0 4 1.8 4 4s-1.8 4-4 4zm-122-2c-1.1 0-2-.9-2-2s.9-2 2-2 2 .9 2 2-.9 2-2 2z"/><path id="Прямоугольник_511_копия_4" d="M104 152h110c2.2 0 4 1.8 4 4s-1.8 4-4 4H104c-2.2 0-4-1.8-4-4s1.8-4 4-4z" fill="#cfcfcf"/><path id="Прямоугольник_525" d="M214 136H104c-2.2 0-4-1.8-4-4s1.8-4 4-4h110c2.2 0 4 1.8 4 4s-1.8 4-4 4zm-121.3-2.4l-1.1 1.4-1.1-1.4-1.6-2.1 1.1-1.4 1.6 2.1 3.2-4.2 1.1 1.4-3.2 4.2z" fill="#565656"/><path id="Прямоугольник_511_копия_3" class="st2" d="M158 142h56c1.1 0 2 .9 2 2s-.9 2-2 2h-56v-4zm-54 12h110c1.1 0 2 .9 2 2s-.9 2-2 2H104c-1.1 0-2-.9-2-2s.9-2 2-2z"/><path id="Эллипс_607_копия" d="M119.7 116h-17.4c-1.6 0-2.8-1.3-2.8-2.8 0-.3 0-.6.1-.9 1.2-3.6 4-6.5 7.6-7.7-2.6-2.1-2.9-5.9-.8-8.4s5.9-2.9 8.4-.8c2.6 2.1 2.9 5.9.8 8.4-.2.3-.5.6-.8.8 3.6 1.2 6.4 4.1 7.6 7.7.5 1.5-.4 3.1-1.9 3.6-.2.1-.5.1-.8.1zm-4.7-16c0-2.2-1.8-4-4-4s-4 1.8-4 4 1.8 4 4 4 4-1.8 4-4zm5.5 12.9c-1.7-5.3-7.3-8.1-12.6-6.4-3.1 1-5.4 3.4-6.4 6.4-.1.2 0 .5.1.7.2.2.4.3.7.4h17.4c.3 0 .5-.1.7-.4.1-.2.2-.4.1-.7z" fill="#ed85aa"/><path id="Прямоугольник_522" d="M100 192v-23h118v23H100zm117-22H101v21h116v-21zm-83.3 6.1l2.9 8.8h-1.7l-.6-1.9h-3l-.6 1.9H129l2.9-8.8h1.8zm.2 5.5l-1.1-3.4-1.1 3.4h2.2zm9.5-4.5c.7.7 1 1.7 1 2.6v1.4c0 1-.3 1.9-1 2.6-.7.7-1.6 1.1-2.6 1h-2.9v-8.8h2.9c.9.2 1.9.6 2.6 1.2zm-3.8.4v6h1.1c.6 0 1.1-.2 1.4-.6.4-.5.5-1.1.5-1.7v-1.5c0-.6-.2-1.2-.5-1.6-.4-.4-.9-.7-1.4-.6h-1.1zm12.1-.4c.7.7 1 1.7 1 2.6v1.4c0 1-.3 1.9-1 2.6-.7.7-1.6 1.1-2.6 1h-2.9v-8.8h2.9c1 .2 1.9.6 2.6 1.2zm-3.8.4v6h1.1c.6 0 1.1-.2 1.4-.6.4-.5.5-1.1.5-1.7v-1.5c0-.6-.2-1.2-.5-1.6-.4-.4-.9-.7-1.4-.6h-1.1zm16 0h-2.4v7.4h-1.7v-7.4h-2.4v-1.4h6.5v1.4zm4.8-1.4l2.9 8.8h-1.7l-.6-1.9h-3l-.6 1.9H164l2.9-8.8h1.8zm.2 5.5l-1.1-3.4-1.1 3.4h2.2zm5.4.6c0 .4.1.9.5 1.1.4.3.8.4 1.3.4.4 0 .8-.1 1.1-.3.2-.2.4-.5.4-.8s-.1-.6-.3-.8c-.4-.3-.8-.5-1.2-.6-.8-.2-1.6-.6-2.3-1.1-.5-.4-.8-1-.8-1.7s.3-1.4.9-1.8c.7-.5 1.5-.7 2.3-.7s1.6.2 2.3.8c.6.5.9 1.2.9 1.9h-1.7c0-.4-.1-.7-.4-1-.3-.3-.7-.4-1.1-.4-.4 0-.8.1-1.1.3-.2.2-.4.5-.4.8s.1.6.4.7c.4.3.9.5 1.4.6.8.2 1.5.5 2.1 1.1.5.4.7 1.1.7 1.7 0 .7-.3 1.4-.9 1.8-.7.5-1.5.7-2.3.6-.9 0-1.7-.2-2.4-.7s-1.1-1.2-1-2.1h1.6v.2zm8.4-2.5h.7l2.3-3.6h2.1l-2.9 4.1 3.1 4.7h-2.1l-2.3-3.6h-.9v3.6H181v-8.8h1.7v3.6zM210 110c-4.4 0-8-3.6-8-8s3.6-8 8-8 8 3.6 8 8-3.6 8-8 8zm0-15c-3.9 0-7 3.1-7 7s3.1 7 7 7 7-3.1 7-7-3.2-7-7-7zm-1 7h2v4h-2v-4zm0-4h2v2h-2v-2zm-21 11h-14c-1.1 0-2-.9-2-2V97c0-1 .7-1.8 1.7-2h14.4c1 .1 1.7 1 1.7 2v10c.2 1.1-.7 2-1.8 2zm.9-1.7l-.6.6c.3-.1.5-.3.6-.6zm-14.9.7h14.2l-5.7-5.7-.8.8-.7-.7-.7.7-.8-.8-5.7 5.7h.2zm-.4-.1l-.6-.6c.1.3.4.5.6.6zm-.2-11.7c-.3.2-.4.5-.4.8v10.2l5.7-5.7-5.3-5.3zm1.3-.2l6.2 6.3 6.2-6.3h-12.4zm14.3 1c0-.3-.2-.6-.4-.8l-5.3 5.3 5.7 5.7V97zm-33 14h-10c-1.1 0-2-.9-2-2V95c0-1.1.9-2 2-2h6v.7l.7-.7 5.2 5.3-.7.7h.7v10c.1 1.1-.8 2-1.9 2zm-5-13v-4h-5c-.6 0-1 .4-1 1v14c0 .6.4 1 1 1h10c.6 0 1-.4 1-1v-9h-4c-1.1 0-2-.9-2-2zm1-4.2V98c0 .6.4 1 1 1h4.2l-5.2-5.2zm3 9.2h-8v-1h8v1zm0 2h-8v-1h8v1zm-2 2h-6v-1h6v1z" fill="#969696"/><path id="Прямоугольник_522_1_" class="st4" d="M210 110c-4.4 0-8-3.6-8-8s3.6-8 8-8 8 3.6 8 8-3.6 8-8 8zm0-15c-3.9 0-7 3.1-7 7s3.1 7 7 7 7-3.1 7-7-3.2-7-7-7zm-1 7h2v4h-2v-4zm0-4h2v2h-2v-2z"/></svg>