<svg id="img_workflow-management.svg" xmlns="http://www.w3.org/2000/svg" width="242.9" height="177.3" viewBox="0 0 242.9 177.3"><style>.st5{fill:#ed85aa}.st6{fill:#8e8e8d}.st7{fill:#565656}.st8{fill:#e40b48}</style><linearGradient id="Прямоугольник_533_1_" gradientUnits="userSpaceOnUse" x1="816" y1="2464.4568" x2="872" y2="2464.4568" gradientTransform="translate(-763 -2425.4568)"><stop offset="0" stop-color="#ed85aa"/><stop offset="1" stop-color="#8e8e8d"/></linearGradient><path id="Прямоугольник_533" d="M54 23s13.7 10 27.2 10S108 23 108 23h1v32h-1S94.5 45 81 45 54 55 54 55h-1V23h1z" opacity=".5" fill="url(#Прямоугольник_533_1_)"/><linearGradient id="Прямоугольник_533_копия_2_1_" gradientUnits="userSpaceOnUse" x1="870" y1="2558.4568" x2="926" y2="2558.4568" gradientTransform="translate(-763 -2425.4568)"><stop offset="0" stop-color="#565656"/><stop offset="1" stop-color="#e40b48"/></linearGradient><path id="Прямоугольник_533_копия_2" d="M108 117s13.7 10 27.2 10c13.4 0 26.8-10 26.8-10h1v32h-1s-13.5-10-27-10-27 10-27 10h-1v-32h1z" opacity=".5" fill="url(#Прямоугольник_533_копия_2_1_)"/><linearGradient id="Прямоугольник_533_копия_1_" gradientUnits="userSpaceOnUse" x1="898" y1="2479.7798" x2="844" y2="2544.1338" gradientTransform="translate(-763 -2425.4568)"><stop offset=".33" stop-color="#8e8e8d"/><stop offset=".67" stop-color="#565656"/></linearGradient><path id="Прямоугольник_533_копия" d="M135 70s-15.1 7.4-21.9 19.2c-6.7 11.6-5.1 28.8-5.1 28.8v1l-27-16v-1s15.1-7.3 21.8-19 5.2-29 5.2-29h1l26 15v1z" opacity=".5" fill="url(#Прямоугольник_533_копия_1_)"/><linearGradient id="Прямоугольник_533_копия_3_1_" gradientUnits="userSpaceOnUse" x1="798.236" y1="2479.4568" x2="835.764" y2="2544.4568" gradientTransform="translate(-763 -2425.4568)"><stop offset=".33" stop-color="#ed85aa"/><stop offset=".67" stop-color="#565656"/></linearGradient><path id="Прямоугольник_533_копия_3" d="M27 70s15.1 7.4 21.9 19.2C55.6 100.8 54 118 54 118v1l27-16v-1s-15.1-7.3-21.8-19S54 54 54 54h-1L27 69v1z" opacity=".5" fill="url(#Прямоугольник_533_копия_3_1_)"/><linearGradient id="Фигура_537_1_" gradientUnits="userSpaceOnUse" x1="975.7883" y1="2494.3967" x2="920.7883" y2="2462.6428" gradientTransform="translate(-763 -2425.4568)"><stop offset=".15" stop-color="#e40b48"/><stop offset=".85" stop-color="#8e8e8d"/></linearGradient><path id="Фигура_537" d="M162 24l54 31v1l-27 15v-1s-2.1-10-9.1-14.1c-7-4-17.9-.9-17.9-.9l-1-1V24h1z" opacity=".5" fill="url(#Фигура_537_1_)"/><path id="Многоугольник_529" class="st5" d="M27 70L0 54.5v-31L27 8l27 15.5v31L27 70z"/><path id="Многоугольник_529_копия_3" class="st6" d="M135 70l-27-15.5v-31L135 8l27 15.5v31L135 70z"/><path id="Многоугольник_529_копия_12" class="st7" d="M81 164l-27-15.5v-31L81 102l27 15.5v31L81 164z"/><path id="Многоугольник_529_копия_9" class="st8" d="M216 117l-27-15.5v-31L216 55l27 15.5v31L216 117zm0 .5v31L189 164l-27-15.5v-31l27-15.5 27 15.5z"/><path id="Прямоугольник_522_копия" d="M85 18H75c-1.1 0-2-.9-2-2V2c0-1.1.9-2 2-2h6v.7l.7-.7L87 5.3l-.7.7h.7v10c0 1.1-.9 2-2 2zM80 5V1h-5c-.6 0-1 .4-1 1v14c0 .6.4 1 1 1h10c.6 0 1-.4 1-1V7h-4c-1.1 0-2-.9-2-2zm1-4.2V5c0 .6.4 1 1 1h4.2L81 .8zm3 9.2h-8V9h8v1zm0 2h-8v-1h8v1zm-2 2h-6v-1h6v1z" fill="#ce255a"/><path id="_23" class="st8" d="M35 107H21c-1.1 0-2-.9-2-2V93c0-1.1.9-2 2-2h2v-2h1v2h8v-2h1v2h2c1.1 0 2 .9 2 2v12c0 1.1-.9 2-2 2zm1-14c0-.6-.4-1-1-1h-2v2h-1v-2h-8v2h-1v-2h-2c-.6 0-1 .4-1 1v3h16v-3zm0 4H20v8c0 .6.4 1 1 1h14c.6 0 1-.4 1-1v-8zm-4 5.6c0 .4-.2.8-.5 1.1-.8.5-1.8.5-2.5 0-.3-.2-.5-.6-.5-1h.9c0 .2.1.4.2.5.2.1.4.2.6.2s.5-.1.7-.2.3-.4.2-.6c0-.2-.1-.4-.2-.6-.2-.1-.4-.2-.7-.2h-.6v-.6h.6c.2 0 .5 0 .6-.2.1-.1.2-.3.2-.6 0-.2-.1-.4-.2-.5-.2-.1-.4-.2-.6-.2s-.4.1-.6.2-.2.3-.2.5h-.9c0-.4.2-.7.5-.9.4-.3.8-.4 1.2-.4.4 0 .9.1 1.3.4.3.2.5.6.5 1 0 .2-.1.4-.2.6-.2.2-.4.4-.6.4.3.1.5.2.7.4 0 .2.1.4.1.7zm-7.9.8l1.7-1.7c.2-.2.4-.4.6-.7.1-.2.2-.3.2-.5s-.1-.4-.2-.5c-.1-.2-.4-.2-.6-.2-.3 0-.5.1-.7.2-.2.2-.2.4-.2.7H24c0-.4.2-.8.5-1.1.4-.3.9-.5 1.3-.4.4 0 .9.1 1.2.4.3.3.5.6.5 1 0 .3-.1.6-.3.8-.2.3-.5.6-.8.9l-1.2 1.1h2.4v.6H24v-.6h.1z"/><path id="Эллипс_546" class="st7" d="M143 100c0-.6-.4-1-1-1h-14c-.6 0-1 .4-1 1v9c0 .6.4 1 1 1h12.2l1 1H128c-1.1 0-2-.9-2-2v-9c0-1.1.9-2 2-2h14c1.1 0 2 .9 2 2v8.3l-1-1V100zm-4 14h-8v-1h8v1zm-.5-10.3l-.3.3-1.7-1.7-3.7 3.7-.3-.3-.3.3-.7-.7-1.7 1.7-.8-.8 2.3-2.3.3.3.3-.3.7.7 3.7-3.7.3.3.3-.3 1.7 1.7 1.7-1.7.8.8-2.2 2.2-.4-.2zm2.5 5c-.9.6-2.2.3-2.7-.7-.6-.9-.3-2.2.7-2.7.9-.6 2.2-.3 2.7.7.2.3.3.7.3 1 0 .4-.1.7-.3 1l2.3 2.3-.8.8-2.2-2.4zm-1-2.7c-.6 0-1 .4-1 1s.4 1 1 1 1-.4 1-1-.4-1-1-1z"/><path id="Эллипс_518_копия" d="M195.5 33c-4.7 0-8.5-3.8-8.5-8.5s3.8-8.5 8.5-8.5 8.5 3.8 8.5 8.5-3.8 8.5-8.5 8.5zm0-16.1c-4.2 0-7.6 3.4-7.6 7.6s3.4 7.6 7.6 7.6c4.2 0 7.6-3.4 7.6-7.6s-3.4-7.6-7.6-7.6zm2.8 12.1l-3-3h-.3v-7h1v6.3l3 3-.7.7z" fill="#8e8e8e"/><path id="Эллипс_518_копия_2" class="st5" d="M142.6 164.4l-2.1 2.1-1.6-1.6c-.6.4-1.2.6-1.9.8v2.6h-3v-2.6c-.7-.1-1.3-.4-1.9-.8l-1.5 1.6-2.1-2.1 1.5-1.6c-.4-.6-.6-1.2-.8-1.9h-2.6v-3h2.6c.2-.7.4-1.3.8-1.9l-1.6-1.6 2.1-2.1 1.6 1.6c.6-.4 1.2-.6 1.9-.8v-2.6h3v2.6c.7.1 1.3.4 1.9.8l1.5-1.6 2.1 2.1-1.5 1.6c.4.6.6 1.2.8 1.9h2.6v3h-2.6c-.2.7-.4 1.3-.8 1.9l1.6 1.6zm.4-4.4v-1h-2.1c-.1-1.1-.5-2.1-1.2-3l1.5-1.4-.7-.7-1.5 1.4c-.9-.7-1.9-1.1-3-1.2V152h-1v2.1c-1.1.1-2.1.5-3 1.2l-1.4-1.4-.7.7 1.4 1.4c-.7.9-1.1 1.9-1.2 3H128v1h2.1c.1 1.1.5 2.1 1.2 3l-1.5 1.4.7.7 1.5-1.4c.9.7 1.9 1.1 3 1.2v2.1h1v-2.1c1.1-.1 2.1-.5 3-1.2l1.4 1.4.7-.7-1.4-1.4c.7-.9 1.1-1.9 1.2-3h2.1zm-10 2c-1.4-1.4-1.4-3.6 0-4.9 1.4-1.4 3.6-1.4 4.9 0 1.4 1.4 1.4 3.6 0 4.9-1.3 1.3-3.5 1.3-4.9 0zm4.3-4.3c-1-1-2.6-1-3.5 0-1 1-1 2.6 0 3.5 1 1 2.6 1 3.5 0 .9-.9.9-2.5 0-3.5z"/><path id="Эллипс_543" class="st6" d="M81 61c3.9 0 7 3.1 7 7s-3.1 7-7 7-7-3.1-7-7 3.1-7 7-7zm0 1c3.3 0 6 2.7 6 6s-2.7 6-6 6-6-2.7-6-6 2.7-6 6-6zm-3 14h6v1h-6v-1zm0 2h6v1h-6v-1zm1 2h4v1h-4v-1z"/></svg>