<svg id="Слой_1" xmlns="http://www.w3.org/2000/svg" width="84" height="84" viewBox="0 0 84 84"><style>.st1{fill:#f49db6}.st2{fill:#ef6d91}</style><path d="M35.1 57.3L19.7 46.1c-1.2-.5-2.6 0-3.1 1.1L5.8 70.6c-.5 1.2 0 2.6 1.1 3.1.6.3 1.2.3 1.8.1l10.2-3.7 3.7 10.3c.4 1.2 1.8 1.8 3 1.4.6-.2 1.1-.6 1.3-1.2l9.3-20.1c.6-1.2.1-2.6-1.1-3.2zm43.1 13.3L67.4 47.2c-.5-1.2-1.9-1.7-3.1-1.1L48.9 57.3c-1.2.5-1.7 1.9-1.1 3.1L57 80.6c.4.8 1.2 1.4 2.1 1.3h.1c.9 0 1.8-.6 2.1-1.5L65 70.1l10.2 3.7c1.2.4 2.6-.2 3-1.4.3-.6.3-1.2 0-1.8z" fill="#e93c6d"/><path class="st1" d="M42 2.1c-16.8 0-30.4 13.7-30.4 30.4S25.3 62.9 42 62.9s30.4-13.7 30.4-30.4C72.4 15.7 58.8 2.1 42 2.1z"/><path class="st2" d="M72.4 32.5c0 16.7-13.7 30.4-30.4 30.4V2.1c16.8 0 30.4 13.6 30.4 30.4z"/><path d="M42 6.8c-14.2 0-25.7 11.6-25.7 25.7 0 14.2 11.6 25.7 25.7 25.7 14.2 0 25.7-11.6 25.7-25.7C67.7 18.3 56.2 6.8 42 6.8z" fill="#faceda"/><path class="st1" d="M67.7 32.5c0 14.2-11.6 25.7-25.7 25.7V6.8c14.2 0 25.7 11.5 25.7 25.7z"/><path class="st1" d="M42 11.4c-11.6 0-21.1 9.4-21.1 21.1 0 11.6 9.5 21.1 21.1 21.1s21.1-9.5 21.1-21.1c0-11.6-9.5-21.1-21.1-21.1z"/><path class="st2" d="M63.1 32.5c0 11.6-9.5 21.1-21.1 21.1V11.4c11.6 0 21.1 9.5 21.1 21.1z"/></svg>