<svg id="Слой_1" xmlns="http://www.w3.org/2000/svg" width="40" height="40" viewBox="0 0 40 40"><style>.st0{fill:#e93c6d;stroke:#e93c6d;stroke-width:.3}</style><path class="st0" d="M30.3 35c-.2 0-.3-.1-.4-.2L23 29H7.7C5.1 29 3 26.9 3 24.3V10.8C3 8.2 5.1 6 7.7 6h24.5c2.6 0 4.7 2.1 4.7 4.7v13.5c0 2.6-2.1 4.7-4.7 4.7H31v5.3c0 .5-.3.8-.7.8zM7.7 7.4c-1.8 0-3.3 1.5-3.3 3.3v13.5c0 1.8 1.5 3.3 3.3 3.3h15.5c.2 0 .3.1.4.2l5.9 5v-4.5c0-.4.3-.7.7-.7h1.9c1.8 0 3.3-1.5 3.3-3.3V10.8c0-1.8-1.5-3.3-3.3-3.3.2-.1-24.4-.1-24.4-.1z"/><path class="st0" d="M31.1 13.8H8.9c-.4 0-.7-.3-.7-.7 0-.4.3-.7.7-.7h22.2c.4 0 .7.3.7.7 0 .4-.3.7-.7.7zm0 4.4H8.9c-.4 0-.7-.3-.7-.7 0-.4.3-.7.7-.7h22.2c.4 0 .7.3.7.7 0 .4-.3.7-.7.7zm0 4.4H8.9c-.4 0-.7-.3-.7-.7s.3-.7.7-.7h22.2c.4 0 .7.3.7.7 0 .4-.3.7-.7.7z"/></svg>