<svg xmlns="http://www.w3.org/2000/svg" xmlns:xlink="http://www.w3.org/1999/xlink" preserveAspectRatio="xMidYMid" width="530" height="233" viewBox="0 0 530 233">
  <defs>
    <style>

      .cls-3 {
        fill: #ffffff;
        stroke: #00bef2;
        stroke-width: 3px;
      }

      .cls-5 {
        fill: #00bef2;
        stroke: #00bef2;
        stroke-width: 3px;
      }

      .cls-6 {
        fill: #00bef2;
        stroke: #ffffff;
        stroke-width: 2px;
      }

      .cls-8 {
        fill: #00bef2;
      }
    </style>
  </defs>
  <g id="notebook-cloudsvg">
    <path d="M140.594,110.125 C131.039,110.125 122.252,106.841 115.290,101.342 C109.238,106.359 101.471,109.375 93.000,109.375 C84.919,109.375 77.485,106.624 71.563,102.017 C67.048,103.893 62.100,104.937 56.906,104.937 C49.039,104.937 41.729,102.559 35.645,98.486 C32.697,99.742 29.453,100.437 26.047,100.437 C12.490,100.437 1.500,89.433 1.500,75.859 C1.500,63.814 10.156,53.800 21.577,51.695 C27.332,37.991 40.803,28.349 56.542,28.201 C61.902,13.011 76.358,2.125 93.359,2.125 C110.815,2.125 125.591,13.599 130.591,29.426 C133.792,28.620 137.142,28.187 140.594,28.187 C163.186,28.187 181.500,46.530 181.500,69.156 C181.500,91.783 163.186,110.125 140.594,110.125 Z" id="path-1" class="cls-3" fill-rule="evenodd"/>
    <path d="M499.134,225.120 C499.134,225.120 263.866,225.120 263.866,225.120 C263.650,224.643 263.511,224.124 263.511,223.566 C263.511,223.566 263.511,204.927 263.511,204.927 C263.511,204.927 263.511,181.628 263.511,181.628 C263.511,181.628 263.511,83.773 263.511,83.773 C263.511,77.340 268.794,72.125 275.310,72.125 C275.310,72.125 487.690,72.125 487.690,72.125 C494.206,72.125 499.489,77.340 499.489,83.773 C499.489,83.773 499.489,181.628 499.489,181.628 C499.489,181.628 499.489,204.927 499.489,204.927 C499.489,204.927 499.489,223.566 499.489,223.566 C499.489,224.124 499.350,224.643 499.134,225.120 ZM487.512,84.120 C487.512,84.120 276.488,84.120 276.488,84.120 C276.488,84.120 276.488,215.122 276.488,215.122 C276.488,215.122 487.512,215.122 487.512,215.122 C487.512,215.122 487.512,84.120 487.512,84.120 Z" id="path-2" class="cls-3" fill-rule="evenodd"/>
    <path d="M490.512,81.119 C490.512,81.119 273.488,81.119 273.488,81.119 C273.488,81.119 273.488,218.122 273.488,218.122 C273.488,218.122 490.512,218.122 490.512,218.122 C490.512,218.122 490.512,81.119 490.512,81.119 Z" id="path-3" class="cls-5" fill-rule="evenodd"/>
    <path d="M411.179,182.625 C404.914,182.625 399.155,180.465 394.590,176.851 C390.623,180.151 385.532,182.136 379.978,182.136 C374.681,182.136 369.818,180.314 365.936,177.285 C362.975,178.518 359.731,179.205 356.325,179.205 C351.169,179.205 346.378,177.643 342.391,174.969 C340.457,175.795 338.329,176.253 336.095,176.253 C327.206,176.253 320.000,169.022 320.000,160.101 C320.000,152.190 325.672,145.619 333.154,144.231 C336.922,135.220 345.753,128.877 356.073,128.774 C359.585,118.785 369.064,111.625 380.212,111.625 C391.658,111.625 401.347,119.170 404.623,129.578 C406.721,129.049 408.917,128.764 411.179,128.764 C425.992,128.764 438.000,140.821 438.000,155.694 C438.000,170.568 425.992,182.625 411.179,182.625 Z" id="path-4" class="cls-6" fill-rule="evenodd"/>
    <path d="M524.500,232.125 C524.500,232.125 239.500,232.125 239.500,232.125 C237.291,232.125 235.500,230.334 235.500,228.125 C235.500,228.125 235.500,222.093 235.500,222.093 C235.500,222.093 528.500,222.093 528.500,222.093 C528.500,222.093 528.500,228.125 528.500,228.125 C528.500,230.334 526.709,232.125 524.500,232.125 ZM382.000,79.125 C381.448,79.125 381.000,78.677 381.000,78.125 C381.000,77.573 381.448,77.125 382.000,77.125 C382.552,77.125 383.000,77.573 383.000,78.125 C383.000,78.677 382.552,79.125 382.000,79.125 Z" id="path-5" class="cls-3" fill-rule="evenodd"/>
    <path d="M279.106,68.624 C275.937,60.945 271.279,53.748 265.106,47.501 C250.058,32.272 229.458,26.096 209.871,28.927 C209.871,28.927 228.261,47.539 228.261,47.539 C229.532,48.825 229.529,50.912 228.256,52.200 C226.982,53.490 224.921,53.490 223.651,52.205 C223.651,52.205 200.647,28.923 200.647,28.923 C199.376,27.637 199.377,25.552 200.651,24.262 C200.651,24.262 223.703,0.933 223.703,0.933 C224.975,-0.354 227.039,-0.357 228.309,0.929 C229.579,2.214 229.576,4.302 228.304,5.590 C228.304,5.590 212.006,22.084 212.006,22.084 C232.624,19.990 253.940,26.868 269.717,42.835 C277.187,50.395 282.636,59.219 286.108,68.624 C286.108,68.624 279.106,68.624 279.106,68.624 ZM228.133,159.390 C228.133,159.390 209.743,140.778 209.743,140.778 C208.473,139.493 208.474,137.407 209.748,136.118 C211.020,134.830 213.083,134.827 214.354,136.113 C214.354,136.113 237.358,159.394 237.358,159.394 C238.628,160.680 238.625,162.768 237.353,164.056 C237.353,164.056 214.301,187.384 214.301,187.384 C213.027,188.673 210.966,188.675 209.695,187.389 C208.425,186.103 208.426,184.017 209.700,182.728 C209.700,182.728 225.996,166.236 225.996,166.236 C205.378,168.329 184.064,161.448 168.288,145.482 C158.158,135.230 151.725,122.660 148.948,109.454 C151.094,108.945 153.178,108.278 155.187,107.461 C157.640,119.687 163.535,131.340 172.898,140.816 C187.946,156.046 208.544,162.224 228.133,159.390 Z" id="path-6" class="cls-8" fill-rule="evenodd"/>
  </g>
</svg>
