<svg xmlns="http://www.w3.org/2000/svg" xmlns:xlink="http://www.w3.org/1999/xlink" preserveAspectRatio="xMidYMid" width="654" height="238" viewBox="0 0 654 238">
  <defs>
    <style>

      .cls-3 {
        fill: #f2f2f2;
      }
    </style>
  </defs>
  <g id="tech-expertisesvg">
    <path d="M107.090,17.801 C115.502,7.878 129.721,0.496 141.454,-0.000 C142.951,13.785 137.443,27.587 129.302,37.534 C121.147,47.461 107.800,55.196 94.700,54.165 C92.920,40.677 99.521,26.613 107.090,17.801 ZM173.841,205.835 C164.104,220.160 154.034,234.399 138.136,234.696 C122.490,234.994 117.475,225.369 99.620,225.369 C81.746,225.369 76.153,234.399 61.382,234.994 C46.033,235.574 34.360,219.523 24.547,205.260 C4.498,176.101 -10.812,122.808 9.771,86.844 C19.964,68.983 38.230,57.684 58.019,57.384 C73.094,57.105 87.334,67.612 96.538,67.612 C105.762,67.612 123.047,54.997 141.215,56.849 C148.820,57.165 170.166,59.933 183.877,80.120 C182.792,80.835 158.398,95.122 158.693,124.879 C158.989,160.426 189.645,172.239 190.002,172.401 C189.721,173.236 185.098,189.269 173.841,205.835 Z" id="path-1" class="cls-3" fill-rule="evenodd"/>
    <path d="M399.476,168.657 C392.471,168.657 386.799,163.035 386.799,156.110 C386.799,156.110 386.799,102.437 386.799,102.437 C386.799,95.499 392.471,89.885 399.476,89.885 C406.473,89.885 412.145,95.499 412.145,102.433 C412.145,102.433 412.145,156.110 412.145,156.110 C412.145,163.035 406.473,168.657 399.476,168.657 ZM364.958,195.154 C364.958,195.154 355.302,195.154 355.302,195.154 C355.625,196.259 355.804,197.433 355.804,198.637 C355.804,198.637 355.804,199.336 355.804,199.336 C355.804,199.336 355.804,203.517 355.804,203.517 C355.804,203.517 355.804,225.134 355.804,225.134 C355.804,232.060 350.123,237.682 343.126,237.682 C336.130,237.682 330.449,232.060 330.449,225.134 C330.449,225.134 330.449,203.517 330.449,203.517 C330.449,203.517 330.449,199.336 330.449,199.336 C330.449,199.336 330.449,198.637 330.449,198.637 C330.449,197.428 330.628,196.259 330.951,195.154 C330.951,195.154 307.410,195.154 307.410,195.154 C307.724,196.259 307.911,197.433 307.911,198.637 C307.911,198.637 307.911,199.336 307.911,199.336 C307.911,199.336 307.911,203.517 307.911,203.517 C307.911,203.517 307.911,225.134 307.911,225.134 C307.911,232.060 302.235,237.682 295.234,237.682 C288.233,237.682 282.552,232.060 282.552,225.134 C282.552,225.134 282.552,203.517 282.552,203.517 C282.552,203.517 282.552,199.336 282.552,199.336 C282.552,199.336 282.552,198.637 282.552,198.637 C282.552,197.428 282.735,196.259 283.058,195.154 C283.058,195.154 273.398,195.154 273.398,195.154 C266.017,195.154 260.018,189.213 260.018,181.908 C260.018,181.908 260.018,108.832 260.018,108.832 C260.018,108.832 260.018,100.318 260.018,100.318 C260.018,100.318 260.018,89.885 260.018,89.885 C260.018,89.885 260.930,89.885 260.930,89.885 C260.930,89.885 377.431,89.885 377.431,89.885 C377.431,89.885 378.342,89.885 378.342,89.885 C378.342,89.885 378.342,100.318 378.342,100.318 C378.342,100.318 378.342,108.832 378.342,108.832 C378.342,108.832 378.342,181.908 378.342,181.908 C378.342,189.213 372.339,195.154 364.958,195.154 ZM290.090,39.656 C290.090,39.656 287.705,36.122 287.705,36.122 C287.705,36.122 285.355,32.636 285.355,32.636 C285.355,32.636 280.089,24.813 280.089,24.813 C279.444,23.850 279.706,22.552 280.673,21.913 C281.650,21.275 282.962,21.533 283.607,22.496 C283.607,22.496 289.261,30.888 289.261,30.888 C289.261,30.888 291.637,34.413 291.637,34.413 C291.637,34.413 294.035,37.986 294.035,37.986 C301.673,35.056 310.187,33.412 319.171,33.412 C328.165,33.412 336.679,35.056 344.317,37.986 C344.317,37.986 346.727,34.413 346.727,34.413 C346.727,34.413 349.103,30.888 349.103,30.888 C349.103,30.888 354.749,22.500 354.749,22.500 C355.398,21.533 356.706,21.275 357.687,21.917 C358.650,22.560 358.912,23.855 358.267,24.817 C358.267,24.817 352.996,32.640 352.996,32.640 C352.996,32.640 350.655,36.126 350.655,36.126 C350.655,36.126 348.270,39.660 348.270,39.660 C366.210,47.927 378.342,63.590 378.342,81.514 C378.342,81.514 260.018,81.514 260.018,81.514 C260.018,63.586 272.151,47.923 290.090,39.656 ZM344.530,64.786 C348.039,64.786 350.873,61.977 350.873,58.512 C350.873,55.047 348.039,52.242 344.530,52.242 C341.030,52.242 338.196,55.047 338.196,58.512 C338.196,61.977 341.030,64.786 344.530,64.786 ZM293.826,64.786 C297.326,64.786 300.160,61.977 300.160,58.512 C300.160,55.047 297.326,52.242 293.826,52.242 C290.316,52.242 287.483,55.047 287.483,58.512 C287.483,61.977 290.316,64.786 293.826,64.786 ZM238.884,168.657 C231.883,168.657 226.207,163.035 226.207,156.110 C226.207,156.110 226.207,102.437 226.207,102.437 C226.207,95.499 231.883,89.885 238.884,89.885 C245.885,89.885 251.561,95.499 251.561,102.433 C251.561,102.433 251.561,156.110 251.561,156.110 C251.561,163.035 245.881,168.657 238.884,168.657 Z" id="path-2" class="cls-3" fill-rule="evenodd"/>
    <path d="M444.008,206.578 C444.008,206.578 528.733,218.849 528.733,218.849 C528.733,218.849 528.733,137.792 528.733,137.792 C528.733,137.792 444.008,137.792 444.008,137.792 C444.008,137.792 444.008,206.578 444.008,206.578 ZM444.008,126.214 C444.008,126.214 528.733,126.214 528.733,126.214 C528.733,126.214 528.733,45.148 528.733,45.148 C528.733,45.148 444.008,57.419 444.008,57.419 C444.008,57.419 444.008,126.214 444.008,126.214 ZM540.313,220.527 C540.313,220.527 653.996,236.992 653.996,236.992 C653.996,236.992 653.996,137.792 653.996,137.792 C653.996,137.792 540.313,137.792 540.313,137.792 C540.313,137.792 540.313,220.527 540.313,220.527 ZM540.313,43.466 C540.313,43.466 540.313,126.214 540.313,126.214 C540.313,126.214 653.996,126.214 653.996,126.214 C653.996,126.214 653.996,27.009 653.996,27.009 C653.996,27.009 540.313,43.466 540.313,43.466 Z" id="path-3" class="cls-3" fill-rule="evenodd"/>
  </g>
</svg>
