<svg id="Слой_1" xmlns="http://www.w3.org/2000/svg" width="68" height="68" viewBox="0 0 68 68"><style>.st0{fill:#fff}</style><path class="st0" d="M45.4 14.9l-6.1-8.4c-.4-.6-1.2-.7-1.7-.3l-.3.3-6.1 8.4c-.2.2-.2.5-.2.7v40.6c0 2.6 2.1 4.7 4.7 4.7H41c2.6 0 4.7-2.1 4.7-4.7V15.7c0-.3-.1-.5-.3-.8zm-7.1-5.5l3.8 5.3h-7.6c0-.1 3.8-5.3 3.8-5.3zm-4.8 7.7h5.9v32.2h-2.2V25.6c0-.7-.6-1.2-1.2-1.2-.7 0-1.2.6-1.2 1.2v23.8h-1.3V17.1zm9.7 39.2c0 1.2-1 2.2-2.2 2.2h-5.3c-1.2 0-2.2-1-2.2-2.2v-4.4h9.7v4.4zm0-7h-1.3V17.1h1.3v32.2z"/><path class="st0" d="M37.5 20c-.1-.3-.3-.6-.5-.8-.1 0-.1-.1-.2-.1s-.2-.1-.2-.1h-.5c-.2 0-.3.1-.4.2-.2.1-.4.3-.5.6-.2.5-.1 1 .3 1.4.3.3.7.4 1.1.3.4-.1.7-.4.9-.7V20zm-23.4 9.3v-.2c0-1 .8-1.8 1.8-1.8h.1l3.8-.2c2.2 0 4-1.8 4-4s-1.8-4-4-4h-8.5c-.9 0-1.6-.7-1.6-1.6 0-.4.2-.8.5-1.1.3-.3.7-.4 1.1-.4h7.5c2.8 0 5-2.2 5-5s-2.3-5-5-5h-8.5C9.5 6 9 6.6 9 7.2c0 .7.6 1.2 1.2 1.2h8.5c1.4 0 2.5 1.1 2.5 2.5s-1.1 2.5-2.5 2.5h-7.4c-1.1 0-2.1.4-2.9 1.1-.8.8-1.2 1.8-1.2 2.9 0 2.2 1.8 4 4 4h8.5c.9 0 1.6.7 1.6 1.5 0 .9-.7 1.6-1.6 1.6h-.1l-3.8.2c-2.3 0-4.2 1.9-4.2 4.3v.2C6.2 29.9 2 34.5 2 40.1v10C2 56.1 6.9 61 12.9 61s10.9-4.9 10.9-10.9v-10c0-5.6-4.2-10.2-9.7-10.8zM4.5 40.1c0-4.2 3.1-7.7 7.1-8.3V42H4.5v-1.9zm16.8 10c0 4.6-3.8 8.4-8.4 8.4-4.6 0-8.4-3.8-8.4-8.4v-5.6h16.8v5.6zm0-8.1h-7.1V31.8c4 .6 7.1 4.1 7.1 8.3V42zM7.5 7c0-.2-.2-.5-.3-.6-.3-.3-.6-.4-1-.4s-.8.2-1 .6c-.2.2-.2.6-.2.9 0 .1 0 .2.1.2 0 .1.1.1.1.2.1.1.2.3.3.3.3.2.5.3.7.3.4 0 .8-.2 1-.6.1-.1.2-.3.2-.4.1-.2.1-.3.1-.5zm58.4 11.4c-.1-2.9-1.6-4.4-2.8-5.6-1.3-1.3-2.1-2-1.3-4.5.3-1.1-.1-1.7-.4-2-.4-.3-1-.6-2.1-.1-1.5.8-3.6 2.8-5.2 5-1.5 2-3.2 5-3.1 7.9.1 2.2 1 4.2 2.5 5.6-.8 1-1.2 2.3-1.2 3.6 0 .9.2 1.7.5 2.4V55c0 3 2.4 5.4 5.4 5.4 3 0 5.4-2.4 5.4-5.4V31.5c.6-1 .9-2.1.9-3.2 0-1.3-.4-2.5-1.2-3.6 1.8-1.5 2.7-3.8 2.6-6.3zM61.1 55c0 1.6-1.3 2.9-2.9 2.9-1.6 0-2.9-1.3-2.9-2.9V33.5c.7.4 1.4.6 2.2.8H59.9c.4-.1.9-.3 1.3-.5L61.1 55zm-1-23.5c-.1.1-.2.1-.3.2h-.1-.2-.1H57.5 57.2c-1.4-.5-2.4-1.8-2.4-3.4 0-1.3.7-2.4 1.8-3.1.1 0 .2-.1.3-.1.1 0 .1 0 .2-.1.3-.1.7-.2 1-.3h.7c.4 0 .7.1 1 .3.3.1.6.3.8.5.9.7 1.4 1.7 1.4 2.8 0 1.3-.7 2.5-1.9 3.2zm1.4-8.4c-.1-.1-.2-.1-.3-.2l-.1-.1c-.2-.1-.5-.2-.7-.3-.4-.1-.7-.2-1.1-.3H57.6c-.5.1-1 .2-1.5.4-.1 0-.2.1-.3.1h-.1c-.1 0-.2.1-.2.1h-.1c-1.1-1-1.9-2.4-1.9-4.1-.1-1.8 1-4.2 2.9-6.7 1-1.2 1.9-2.2 2.6-2.8-.2 2.7 1.2 4 2.3 5.1 1.1 1 2 1.9 2.1 3.9.1 2.1-.6 3.8-1.9 4.9z"/></svg>