<svg xmlns="http://www.w3.org/2000/svg" xmlns:xlink="http://www.w3.org/1999/xlink" preserveAspectRatio="xMidYMid" width="88.125" height="107.78" viewBox="0 0 88.125 107.78">
  <defs>
    <style>
      .cls-1 {
        fill: #54a0d3;
      }

      .cls-1, .cls-2 {
        fill-rule: evenodd;
      }

      .cls-2 {
        fill: #f192a7;
      }
    </style>
  </defs>
  <g>
    <path d="M0.104,51.340 C0.104,37.951 0.002,9.347 0.002,9.347 C0.002,9.347 28.020,4.476 42.094,0.009 L42.094,51.340 L0.104,51.340 ZM88.136,55.340 C88.362,69.813 87.737,95.606 46.094,107.767 L46.094,55.340 L88.136,55.340 Z" class="cls-1"/>
    <path d="M46.094,51.340 L46.094,0.009 C60.160,4.476 88.094,9.340 88.094,9.340 C88.094,9.340 88.084,37.951 88.084,51.340 L46.094,51.340 ZM42.094,55.340 L42.094,107.766 C0.452,95.606 -0.174,69.813 0.051,55.340 L42.094,55.340 Z" class="cls-2"/>
  </g>
</svg>
