<svg xmlns="http://www.w3.org/2000/svg" xmlns:xlink="http://www.w3.org/1999/xlink" preserveAspectRatio="xMidYMid" width="7" height="11" viewBox="0 0 7 11">
  <defs>
    <style>

      .cls-2 {
        fill: #f1d5d5;
      }
    </style>
  </defs>
  <path d="M0.708,10.993 C0.870,10.993 1.034,10.937 1.166,10.823 C1.166,10.823 6.731,6.027 6.731,6.027 C6.882,5.898 6.969,5.710 6.969,5.512 C6.969,5.314 6.882,5.126 6.731,4.996 C6.731,4.996 1.166,0.200 1.166,0.200 C0.877,-0.049 0.437,-0.021 0.185,0.265 C-0.069,0.549 -0.039,0.982 0.250,1.232 C0.250,1.232 5.217,5.512 5.217,5.512 C5.217,5.512 0.250,9.792 0.250,9.792 C-0.039,10.041 -0.069,10.475 0.185,10.758 C0.322,10.914 0.515,10.993 0.708,10.993 Z" id="path-1" class="cls-2" fill-rule="evenodd"/>
</svg>
