<svg xmlns="http://www.w3.org/2000/svg" xmlns:xlink="http://www.w3.org/1999/xlink" preserveAspectRatio="xMidYMid" width="16" height="11" viewBox="0 0 16 11">
  <defs>
    <style>

      .cls-2 {
        fill: #000000;
      }
    </style>
  </defs>
  <path d="M15.305,6.172 C15.305,6.172 2.547,6.172 2.547,6.172 C2.547,6.172 6.719,9.767 6.719,9.767 C7.008,10.017 7.037,10.450 6.784,10.735 C6.532,11.020 6.092,11.048 5.803,10.800 C5.803,10.800 0.238,6.003 0.238,6.003 C0.232,5.998 0.230,5.990 0.224,5.985 C0.174,5.939 0.138,5.884 0.103,5.825 C0.090,5.803 0.071,5.786 0.060,5.762 C0.023,5.678 -0.000,5.586 -0.000,5.488 C-0.000,5.389 0.023,5.297 0.060,5.212 C0.070,5.190 0.089,5.173 0.102,5.152 C0.137,5.092 0.174,5.035 0.225,4.988 C0.231,4.984 0.233,4.977 0.238,4.972 C0.238,4.972 5.803,0.176 5.803,0.176 C5.935,0.062 6.098,0.006 6.260,0.006 C6.454,0.006 6.647,0.085 6.784,0.241 C7.037,0.524 7.008,0.958 6.719,1.207 C6.719,1.207 2.548,4.802 2.548,4.802 C2.548,4.802 15.305,4.802 15.305,4.802 C15.688,4.802 16.000,5.109 16.000,5.488 C16.000,5.866 15.688,6.172 15.305,6.172 Z" id="path-1" class="cls-2" fill-rule="evenodd"/>
</svg>
