<svg xmlns="http://www.w3.org/2000/svg" xmlns:xlink="http://www.w3.org/1999/xlink" preserveAspectRatio="xMidYMid" width="16" height="11" viewBox="0 0 16 11">
  <defs>
    <style>

      .cls-2 {
        fill: #000000;
      }
    </style>
  </defs>
  <path d="M15.897,5.175 C15.910,5.197 15.929,5.214 15.940,5.238 C15.977,5.322 16.000,5.414 16.000,5.512 C16.000,5.611 15.977,5.703 15.940,5.788 C15.930,5.810 15.911,5.827 15.898,5.848 C15.863,5.908 15.826,5.965 15.775,6.012 C15.769,6.016 15.767,6.023 15.762,6.028 C15.762,6.028 10.197,10.824 10.197,10.824 C10.065,10.938 9.902,10.994 9.740,10.994 C9.546,10.994 9.353,10.915 9.216,10.759 C8.963,10.476 8.992,10.042 9.281,9.793 C9.281,9.793 13.452,6.198 13.452,6.198 C13.452,6.198 0.695,6.198 0.695,6.198 C0.312,6.198 0.000,5.891 0.000,5.512 C0.000,5.134 0.312,4.828 0.695,4.828 C0.695,4.828 13.453,4.828 13.453,4.828 C13.453,4.828 9.281,1.233 9.281,1.233 C8.992,0.983 8.963,0.550 9.216,0.265 C9.468,-0.020 9.908,-0.048 10.197,0.200 C10.197,0.200 15.762,4.997 15.762,4.997 C15.768,5.002 15.770,5.010 15.776,5.015 C15.826,5.061 15.862,5.116 15.897,5.175 Z" id="path-1" class="cls-2" fill-rule="evenodd"/>
</svg>
