<svg xmlns="http://www.w3.org/2000/svg" xmlns:xlink="http://www.w3.org/1999/xlink" preserveAspectRatio="xMidYMid" width="1300" height="1009" viewBox="0 0 1300 1009">
  <defs>
    <style>
      .cls-1 {
        opacity: 0.25;
      }

      .cls-2 {
        fill: #fff;
      }

      .cls-2, .cls-3 {
        stroke: #797979;
        stroke-width: 2px;
        fill-opacity: 0.5;
        fill-rule: evenodd;
      }

      .cls-3 {
        fill: #797979;
      }
    </style>
  </defs>
  <g class="cls-1">
    <path d="M1551.110,-335.602 L1187.337,1043.543 C1155.034,1172.746 1056.543,1219.382 955.611,1179.446 L-672.302,334.324 C-756.975,294.163 -881.124,219.385 -806.087,98.923 L-144.992,-757.087 C-78.182,-837.191 -24.592,-915.794 86.730,-892.994 L1417.321,-571.018 C1518.256,-543.537 1581.382,-447.965 1551.110,-335.602 Z" class="cls-2"/>
    <path d="M1468.424,-744.564 L1132.375,529.097 C1102.534,648.418 1011.549,691.486 918.309,654.605 L-585.536,-125.875 C-663.756,-162.964 -778.443,-232.023 -709.125,-343.272 L-98.414,-1133.811 C-36.695,-1207.788 12.810,-1280.379 115.648,-1259.324 L1344.831,-961.974 C1438.074,-936.595 1496.389,-848.332 1468.424,-744.564 Z" class="cls-2"/>
    <path d="M1485.231,528.877 L1113.835,1936.165 C1080.855,2068.004 980.301,2115.590 877.253,2074.841 L-784.772,1212.475 C-871.219,1171.495 -997.969,1095.191 -921.360,972.270 L-246.412,98.792 C-178.202,17.055 -123.489,-63.150 -9.834,-39.885 L1348.639,288.658 C1451.689,316.700 1516.137,414.223 1485.231,528.877 Z" class="cls-3"/>
    <path d="M2805.231,-27.121 L2433.836,1380.164 C2400.855,1512.004 2300.301,1559.591 2197.253,1518.840 L535.228,656.475 C448.781,615.494 322.030,539.190 398.640,416.270 L1073.588,-457.205 C1141.798,-538.943 1196.511,-619.150 1310.166,-595.885 L2668.639,-267.340 C2771.689,-239.298 2836.137,-141.775 2805.231,-27.121 Z" class="cls-3"/>
    <path d="M1830.135,1241.887 L1491.146,2526.468 C1461.043,2646.811 1369.263,2690.249 1275.207,2653.052 L-241.798,1865.879 C-320.702,1828.473 -436.393,1758.822 -366.467,1646.620 L249.587,849.303 C311.846,774.692 361.785,701.478 465.523,722.715 L1705.461,1022.613 C1799.520,1048.209 1858.345,1137.229 1830.135,1241.887 Z" class="cls-2"/>
    <path d="M1910.102,371.956 L1571.112,1656.537 C1541.010,1776.881 1449.230,1820.319 1355.173,1783.121 L-161.831,995.949 C-240.735,958.542 -356.426,888.891 -286.501,776.688 L329.554,-20.625 C391.812,-95.236 441.751,-168.449 545.489,-147.213 L1785.428,152.684 C1879.486,178.279 1938.311,267.299 1910.102,371.956 Z" class="cls-2"/>
  </g>
</svg>
