<svg xmlns="http://www.w3.org/2000/svg" xmlns:xlink="http://www.w3.org/1999/xlink" preserveAspectRatio="xMidYMid" width="1020" height="1098" viewBox="0 0 1020 1098">
  <defs>
    <style>

      .cls-3 {
        fill: #ffffff;
      }

      .cls-4 {
        stroke: #ffffff;
        stroke-width: 3px;
        stroke-dasharray: 12,30;
        fill: none;
      }
    </style>
  </defs>
  <g id="bg-linessvg">
    <path d="M845.604,510.323 C807.169,520.195 774.846,497.216 743.587,474.995 C712.330,452.775 680.010,429.799 641.007,438.479 C623.051,442.476 604.894,452.744 585.863,469.700 C585.863,469.700 586.590,469.646 586.590,469.646 C597.915,623.122 585.425,712.003 547.284,749.360 C518.934,777.127 479.452,773.388 441.271,769.774 C408.147,766.637 374.051,763.423 346.377,780.266 C353.031,800.120 359.470,822.089 365.746,846.377 C365.746,846.377 362.841,847.125 362.841,847.125 C356.658,823.198 350.321,801.521 343.778,781.926 C340.477,784.122 337.268,786.602 334.176,789.440 C317.375,804.862 305.120,828.771 296.712,862.533 C287.160,900.883 282.791,950.804 283.354,1015.148 C283.354,1015.148 280.356,1015.177 280.356,1015.177 C279.790,950.578 284.189,900.411 293.802,861.811 C302.357,827.460 314.901,803.065 332.150,787.232 C335.576,784.087 339.132,781.365 342.789,778.979 C332.587,748.851 321.876,723.751 310.447,703.113 C293.588,672.667 275.562,652.738 255.338,642.189 C219.906,623.706 182.730,637.546 146.777,650.930 C110.822,664.315 73.642,678.155 39.067,658.668 C-7.450,632.451 -42.514,549.800 -71.283,398.561 C-71.283,398.561 -68.336,398.004 -68.336,398.004 C-39.745,548.308 -5.149,630.306 40.539,656.056 C73.900,674.859 108.790,661.870 145.728,648.119 C155.059,644.645 164.472,641.145 173.925,638.170 C141.474,582.968 120.380,537.636 109.472,499.634 C99.705,465.607 98.371,438.209 105.393,415.873 C117.777,376.481 154.453,359.696 189.920,343.465 C225.748,327.067 259.589,311.581 269.882,274.701 C283.979,224.195 250.485,141.769 164.474,15.304 C164.474,15.304 166.952,13.615 166.952,13.615 C253.497,140.866 287.121,224.084 272.769,275.507 C262.101,313.729 226.039,330.232 191.165,346.193 C156.294,362.152 120.235,378.654 108.252,416.772 C101.412,438.528 102.754,465.361 112.353,498.804 C123.231,536.702 144.338,581.998 176.864,637.260 C203.498,629.210 230.420,625.809 256.725,639.531 C277.487,650.361 295.918,670.684 313.072,701.662 C317.915,710.408 322.629,719.946 327.229,730.316 C382.691,698.879 423.410,670.330 451.671,643.062 C464.411,630.769 474.431,618.891 481.866,607.254 C481.866,607.254 481.529,607.063 481.529,607.063 C484.426,601.942 487.298,596.949 490.148,592.075 C492.880,586.033 494.926,580.036 496.256,574.062 C499.085,561.350 498.536,549.351 495.761,537.864 C495.761,537.864 495.703,537.984 495.703,537.984 C357.158,471.060 286.447,415.805 273.171,364.095 C263.303,325.657 286.280,293.331 308.499,262.069 C330.717,230.809 353.692,198.485 345.015,159.481 C340.063,137.219 325.489,114.652 300.461,90.489 C272.031,63.043 230.992,34.300 175.001,2.617 C175.001,2.617 176.475,0.006 176.475,0.006 C232.689,31.814 273.925,60.705 302.540,88.330 C328.005,112.914 342.855,135.975 347.940,158.830 C356.907,199.138 333.539,232.014 310.941,263.809 C288.114,295.926 266.552,326.262 276.073,363.349 C289.042,413.865 358.572,468.186 494.800,534.213 C488.443,511.883 473.932,491.454 459.715,471.463 C437.480,440.197 414.488,407.867 424.363,369.425 C437.647,317.709 508.406,262.447 647.046,195.515 C647.046,195.515 648.348,198.217 648.348,198.217 C510.565,264.736 440.315,319.376 427.267,370.171 C417.739,407.262 439.316,437.601 462.158,469.722 C484.771,501.520 508.155,534.401 499.182,574.713 C498.905,575.957 498.587,577.202 498.252,578.447 C523.587,536.556 547.150,504.493 569.856,480.967 C594.441,455.496 617.502,440.642 640.356,435.554 C680.662,426.583 713.536,449.953 745.327,472.553 C777.441,495.382 807.774,516.946 844.859,507.420 C895.646,494.375 950.282,424.156 1016.799,286.435 C1016.799,286.435 1019.501,287.736 1019.501,287.736 C952.570,426.313 897.313,497.041 845.604,510.323 ZM572.016,483.047 C547.089,508.873 521.093,545.102 492.796,593.486 C485.173,610.264 472.286,627.339 453.752,645.222 C425.261,672.712 384.261,701.455 328.440,733.078 C334.264,746.451 339.907,761.179 345.400,777.347 C373.734,760.386 408.132,763.624 441.557,766.788 C480.783,770.502 517.833,774.011 545.187,747.219 C582.502,710.671 594.755,623.076 583.727,471.644 C579.861,475.179 575.962,478.959 572.016,483.047 Z" id="path-1" class="cls-3" fill-rule="evenodd"/>
    <path d="M7.713,522.123 C7.713,522.123 6.065,524.624 6.065,524.624 C133.754,609.043 196.108,672.611 202.294,724.676 C206.812,762.695 181.408,789.841 154.513,818.582 C127.887,847.034 100.355,876.454 103.895,917.589 C105.903,940.912 117.566,965.755 139.552,993.535 C164.256,1024.751 201.307,1058.920 252.821,1097.995 C252.821,1097.995 254.629,1095.607 254.629,1095.607 C203.319,1056.686 166.445,1022.690 141.900,991.676 C120.292,964.372 108.837,940.056 106.881,917.338 C103.456,877.533 130.525,848.608 156.702,820.635 C182.882,792.658 209.953,763.730 205.271,724.328 C198.972,671.319 136.196,607.066 7.713,522.123 Z" id="path-2" class="cls-4" fill-rule="evenodd"/>
  </g>
</svg>
