<svg xmlns="http://www.w3.org/2000/svg" xmlns:xlink="http://www.w3.org/1999/xlink" preserveAspectRatio="xMidYMid" width="1300" height="2024" viewBox="0 0 1300 2024">
  <defs>
    <style>
      .cls-1, .cls-3 {
        fill: #fff;
      }

      .cls-2 {
        opacity: 0.25;
        mix-blend-mode: multiply;
      }

      .cls-3, .cls-4 {
        stroke: #797979;
        stroke-width: 2px;
        fill-opacity: 0.5;
        fill-rule: evenodd;
      }

      .cls-4 {
        fill: #797979;
      }
    </style>
  </defs>
  <g>
    <rect width="1300" height="2024" class="cls-1"/>
    <g class="cls-2">
      <path d="M1551.110,236.396 L1187.337,1615.542 C1155.034,1744.745 1056.543,1791.380 955.611,1751.445 L-672.302,906.323 C-756.975,866.163 -881.124,791.384 -806.087,670.922 L-144.992,-185.086 C-78.182,-265.190 -24.592,-343.793 86.730,-320.993 L1417.321,0.983 C1518.256,28.463 1581.382,124.034 1551.110,236.396 Z" class="cls-3"/>
      <path d="M1468.424,-172.563 L1132.375,1101.097 C1102.534,1220.417 1011.549,1263.486 918.309,1226.605 L-585.536,446.124 C-663.756,409.034 -778.443,339.976 -709.125,228.727 L-98.414,-561.810 C-36.695,-635.787 12.810,-708.379 115.648,-687.323 L1344.831,-389.973 C1438.074,-364.595 1496.389,-276.331 1468.424,-172.563 Z" class="cls-3"/>
      <path d="M1485.231,1100.876 L1113.835,2508.164 C1080.855,2640.003 980.301,2687.589 877.253,2646.840 L-784.772,1784.475 C-871.219,1743.494 -997.969,1667.190 -921.360,1544.269 L-246.412,670.792 C-178.202,589.054 -123.489,508.849 -9.834,532.113 L1348.639,860.657 C1451.689,888.699 1516.137,986.222 1485.231,1100.876 Z" class="cls-4"/>
      <path d="M2805.231,544.878 L2433.836,1952.163 C2400.855,2084.003 2300.301,2131.590 2197.253,2090.840 L535.228,1228.474 C448.781,1187.494 322.030,1111.189 398.640,988.270 L1073.588,114.794 C1141.798,33.057 1196.511,-47.150 1310.166,-23.884 L2668.639,304.660 C2771.689,332.701 2836.137,430.224 2805.231,544.878 Z" class="cls-4"/>
      <path d="M1830.135,1813.887 L1491.146,3098.467 C1461.043,3218.809 1369.263,3262.248 1275.207,3225.051 L-241.798,2437.879 C-320.702,2400.472 -436.393,2330.821 -366.467,2218.619 L249.587,1421.302 C311.846,1346.692 361.785,1273.478 465.523,1294.714 L1705.461,1594.613 C1799.520,1620.209 1858.345,1709.229 1830.135,1813.887 Z" class="cls-3"/>
      <path d="M1910.102,943.955 L1571.112,2228.536 C1541.010,2348.880 1449.230,2392.318 1355.173,2355.120 L-161.831,1567.949 C-240.735,1530.541 -356.426,1460.889 -286.501,1348.687 L329.554,551.374 C391.812,476.763 441.751,403.550 545.489,424.786 L1785.428,724.683 C1879.486,750.278 1938.311,839.298 1910.102,943.955 Z" class="cls-3"/>
    </g>
  </g>
</svg>
