<svg id="Слой_1" xmlns="http://www.w3.org/2000/svg" width="26" height="26" viewBox="0 0 26 26">
  <style>
    .st0{fill:#FFFFFF;}
  </style>
  <path class="st0" d="M6.5 10.9h2.6v2.7H6.5zM11.7 10.9h2.6v2.7h-2.6zM16.9 10.9h2.6v2.7h-2.6zM6.5 16.4h2.6v2.7H6.5zM11.7 16.4h2.6v2.7h-2.6zM16.9 16.4h2.6v2.7h-2.6z"/>
  <path class="st0" d="M22.1 2.7V0h-2.6v2.7h-2.6V0h-2.6v2.7h-2.6V0H9.1v2.7H6.5V0H3.9v2.7H0V26h26V2.7h-3.9zm1.3 20.6H2.6V5.5h1.3v1.4h2.6V5.5h2.6v1.4h2.6V5.5h2.6v1.4h2.6V5.5h2.6v1.4h2.6V5.5h1.3v17.8zm0 0"/>
</svg>
