<svg xmlns="http://www.w3.org/2000/svg" xmlns:xlink="http://www.w3.org/1999/xlink" preserveAspectRatio="xMidYMid" width="11" height="8" viewBox="0 0 11 8">
  <defs>
    <style>

      .cls-2 {
        fill: #ffffff;
      }
    </style>
  </defs>
  <path d="M10.712,1.701 C10.712,1.701 5.045,7.663 5.045,7.663 C5.030,7.680 5.024,7.701 5.008,7.717 C4.938,7.783 4.853,7.824 4.770,7.867 C4.741,7.883 4.715,7.908 4.684,7.921 C4.614,7.949 4.539,7.954 4.465,7.966 C4.419,7.973 4.375,7.991 4.329,7.991 C4.060,8.000 3.788,7.912 3.583,7.717 C3.583,7.717 0.273,4.705 0.273,4.705 C-0.120,4.331 -0.120,3.724 0.273,3.350 C0.667,2.976 1.305,2.976 1.699,3.350 C1.699,3.350 4.238,5.661 4.238,5.661 C4.238,5.661 9.358,0.275 9.358,0.275 C9.732,-0.118 10.338,-0.118 10.712,0.275 C11.086,0.669 11.086,1.307 10.712,1.701 Z" id="path-1" class="cls-2" fill-rule="evenodd"/>
</svg>
