<?xml version="1.0" encoding="utf-8"?>
<!-- Generator: Adobe Illustrator 19.2.1, SVG Export Plug-In . SVG Version: 6.00 Build 0)  -->
<svg version="1.1" id="Слой_1" xmlns="http://www.w3.org/2000/svg" xmlns:xlink="http://www.w3.org/1999/xlink" x="0px" y="0px"
	 width="26px" height="26px" viewBox="0 0 26 26" style="enable-background:new 0 0 26 26;" xml:space="preserve">
<style type="text/css">
	.st0{fill:#8DC4F7;}
</style>
<path class="st0" d="M24.8,2.4l-15.7,15c-0.1,0.1-0.3,0.2-0.4,0.2c-0.1,0-0.3-0.1-0.4-0.2l-4.2-4c-0.2-0.2-0.2-0.6,0-0.8
	c0.2-0.2,0.6-0.2,0.8,0l3.8,3.6L24,1.6c0.2-0.2,0.6-0.2,0.8,0C25,1.9,25,2.2,24.8,2.4z M16.3,6H2v18h18V9.6C20,9.3,20.2,9,20.5,9
	S21,9.3,21,9.6V24c0,0.3,0.2,1-0.1,1H1.6C1.3,25,1,24.4,1,24V5.4C1,5.1,1.3,5,1.6,5h14.7c0.3,0,0.6,0.2,0.6,0.5
	C16.8,5.8,16.6,6,16.3,6z"/>
</svg>
