<svg xmlns="http://www.w3.org/2000/svg" xmlns:xlink="http://www.w3.org/1999/xlink" preserveAspectRatio="xMidYMid" width="15" height="15" viewBox="0 0 15 15">
  <defs>
    <style>

      .cls-2 {
        fill: #7a7a7a;
      }
    </style>
  </defs>
  <path d="M7.500,14.999 C3.358,14.999 -0.000,11.642 -0.000,7.500 C-0.000,3.357 3.358,-0.000 7.500,-0.000 C11.642,-0.000 15.000,3.357 15.000,7.500 C15.000,11.642 11.642,14.999 7.500,14.999 ZM7.500,1.000 C3.910,1.000 1.000,3.910 1.000,7.500 C1.000,11.089 3.910,13.999 7.500,13.999 C11.090,13.999 14.000,11.089 14.000,7.500 C14.000,3.910 11.090,1.000 7.500,1.000 ZM7.000,7.999 C7.000,7.999 7.000,6.999 7.000,6.999 C7.000,6.999 7.000,3.000 7.000,3.000 C7.000,3.000 8.000,3.000 8.000,3.000 C8.000,3.000 8.000,6.999 8.000,6.999 C8.000,6.999 11.000,6.999 11.000,6.999 C11.000,6.999 11.000,7.999 11.000,7.999 C11.000,7.999 8.000,7.999 8.000,7.999 C8.000,7.999 7.000,7.999 7.000,7.999 Z" id="path-1" class="cls-2" fill-rule="evenodd"/>
</svg>
