<svg xmlns="http://www.w3.org/2000/svg" xmlns:xlink="http://www.w3.org/1999/xlink" preserveAspectRatio="xMidYMid" width="732.625" height="817.85" viewBox="0 0 732.625 817.85">
  <defs>
    <style>
      .cls-1 {
        fill: #d8d1ca;
        fill-rule: evenodd;
      }
    </style>
  </defs>
  <path d="M728.089,426.689 C721.586,438.671 709.686,448.188 696.862,452.685 C690.885,454.781 680.605,457.068 678.969,464.388 C676.890,473.687 682.483,483.079 688.512,489.729 C688.964,490.227 688.422,490.917 687.915,490.784 C687.782,490.923 687.590,490.997 687.345,490.910 C680.130,488.359 674.878,483.203 670.759,476.863 C668.212,472.944 665.985,468.841 663.555,464.852 C661.620,461.677 659.632,459.210 655.808,458.443 C653.632,458.007 651.456,457.559 649.303,457.017 C631.076,452.426 614.074,444.168 600.352,431.182 C595.250,431.337 590.196,431.157 585.347,430.471 C581.254,429.893 577.080,429.181 573.091,428.080 C570.114,427.259 567.416,425.729 564.463,424.878 C555.940,422.422 548.266,428.883 541.611,433.426 C530.671,440.896 518.925,448.591 505.064,446.920 C504.762,446.884 504.576,446.678 504.504,446.444 C503.857,446.568 503.611,445.501 504.299,445.213 C515.646,440.465 537.556,425.048 528.246,410.425 C524.567,404.647 519.106,400.273 514.590,395.183 C510.372,390.428 506.335,385.440 503.006,380.011 C490.460,359.546 486.858,333.313 502.777,313.509 C518.432,294.033 544.434,285.639 568.588,283.609 C594.034,281.470 620.015,285.979 643.241,296.643 C655.231,302.149 667.854,308.915 676.507,319.158 C685.006,329.218 689.453,341.413 691.349,354.337 C691.487,355.278 691.604,356.223 691.710,357.169 C691.795,357.175 691.883,357.199 691.973,357.246 C715.545,369.770 743.812,397.722 728.089,426.689 ZM668.439,313.098 C645.749,294.793 614.387,285.078 585.477,284.365 C557.537,283.676 523.153,290.144 504.642,313.173 C482.807,340.338 496.286,374.238 517.813,396.840 C524.517,403.879 535.356,412.373 530.425,423.441 C525.874,433.658 516.192,441.233 506.141,445.756 C519.332,446.886 530.492,439.488 540.980,432.346 C549.564,426.502 557.176,420.489 567.649,424.775 C579.572,429.653 592.300,430.015 605.001,429.320 C617.360,428.642 629.793,427.016 641.593,423.141 C662.247,416.358 683.041,402.213 689.081,380.080 C695.353,357.097 687.109,328.160 668.439,313.098 ZM691.861,358.610 C692.865,369.327 691.661,380.189 686.510,389.824 C681.205,399.749 673.246,408.171 663.781,414.254 C652.528,421.485 639.538,425.887 626.406,428.188 C618.676,429.543 610.363,430.740 602.126,431.112 C616.693,444.544 635.134,453.028 654.502,456.909 C662.777,458.567 664.858,464.731 668.902,471.505 C673.335,478.928 678.277,485.843 686.413,489.209 C679.944,481.414 671.710,466.286 681.423,458.456 C685.855,454.885 691.270,453.390 696.530,451.479 C703.892,448.805 711.027,444.445 716.752,439.092 C730.034,426.674 735.224,408.895 726.968,391.989 C719.670,377.047 706.260,366.344 691.861,358.610 ZM687.302,65.423 C686.022,68.463 684.598,71.687 682.672,74.374 C680.933,76.802 678.729,75.948 676.378,77.284 C676.194,77.389 675.928,77.410 675.747,77.284 C675.728,77.271 675.709,77.258 675.689,77.244 C673.907,82.786 671.045,91.806 665.168,93.543 C664.418,93.764 663.632,93.968 662.835,94.163 C662.829,94.207 662.833,94.247 662.816,94.295 C661.703,97.398 660.745,100.582 660.300,103.859 C659.472,109.949 661.494,113.234 666.366,116.605 C671.611,120.235 677.558,123.546 682.240,127.906 C685.986,131.396 687.893,135.160 688.255,140.303 C688.781,147.765 688.908,155.239 688.740,162.716 C688.722,163.521 687.472,163.523 687.490,162.716 C687.671,154.677 688.507,145.309 686.636,137.429 C684.704,129.293 676.740,125.300 670.360,120.886 C666.814,118.432 659.804,115.052 658.992,110.136 C658.130,104.915 659.690,99.401 661.432,94.477 C655.198,95.832 647.968,96.291 642.161,94.778 C636.504,93.305 631.795,89.950 627.797,85.816 C626.378,91.301 624.292,98.563 618.916,101.175 C613.755,103.683 608.093,103.486 602.523,102.745 C593.620,101.562 583.202,99.813 575.330,105.399 C568.198,110.460 562.802,117.593 558.822,125.310 C558.453,126.027 557.374,125.395 557.743,124.679 C563.666,113.192 573.534,100.770 587.540,100.349 C594.922,100.127 602.139,102.219 609.481,102.000 C613.550,101.879 618.523,101.221 621.244,97.752 C624.182,94.007 625.602,89.289 626.782,84.734 C626.017,83.893 625.269,83.034 624.556,82.146 C620.043,76.523 623.096,69.960 623.099,63.562 C623.099,63.352 623.186,63.199 623.311,63.099 C621.565,62.294 620.508,62.341 619.910,60.026 C618.992,56.478 619.744,51.232 620.178,47.623 C620.685,43.408 621.443,37.228 626.670,37.464 C626.552,37.329 626.484,37.148 626.533,36.925 C629.104,25.235 632.090,13.316 641.559,5.233 C650.654,-2.530 662.795,-0.309 673.096,3.438 C683.793,7.328 692.443,11.532 694.518,23.726 C696.390,34.728 690.483,45.347 685.314,54.588 C689.492,56.424 688.908,61.608 687.302,65.423 ZM693.458,25.375 C692.761,19.220 690.233,13.042 684.646,9.762 C680.410,7.275 675.661,5.561 671.002,4.029 C659.810,0.350 647.666,-0.583 639.232,9.160 C632.345,17.116 629.944,27.228 627.738,37.258 C627.705,37.411 627.626,37.510 627.532,37.583 C628.026,37.869 627.685,38.809 626.984,38.712 C620.429,37.807 621.093,51.452 621.080,55.007 C621.075,56.468 620.473,61.082 622.639,61.602 C623.946,61.915 623.651,61.795 624.788,62.456 C625.420,62.823 624.960,63.734 624.348,63.600 C624.334,71.104 621.307,77.283 627.387,83.547 C631.620,87.907 636.289,92.382 642.493,93.573 C648.776,94.778 655.610,94.301 661.869,93.065 C669.417,91.575 672.450,83.115 674.631,76.451 C674.296,75.945 674.849,75.145 675.436,75.553 C675.454,75.565 675.474,75.570 675.491,75.581 C675.641,75.605 675.775,75.675 675.874,75.782 C678.597,76.936 682.538,72.541 683.488,70.555 C685.253,66.864 691.339,57.232 683.818,55.391 C683.050,55.203 683.358,54.048 684.108,54.184 C684.109,54.182 684.109,54.181 684.110,54.180 C688.950,45.527 694.626,35.699 693.458,25.375 ZM597.177,70.561 C579.516,77.667 563.443,87.915 549.530,100.911 C549.236,101.186 548.758,101.141 548.548,100.785 C535.765,79.078 522.982,57.371 510.200,35.664 C510.110,35.512 510.101,35.366 510.131,35.234 C509.956,34.963 509.948,34.559 510.284,34.318 C521.120,26.564 532.266,19.280 543.706,12.452 C543.741,12.263 543.864,12.097 544.023,11.997 C544.086,11.948 544.162,11.907 544.255,11.879 C544.524,11.797 544.793,11.715 545.063,11.634 C545.426,11.523 545.685,11.734 545.784,12.010 C552.108,12.722 558.432,13.435 564.756,14.147 C565.255,14.203 565.442,14.721 565.311,15.074 C565.469,15.097 565.620,15.182 565.721,15.370 C575.684,33.836 586.297,51.934 597.550,69.642 C597.786,70.014 597.533,70.417 597.177,70.561 ZM545.747,13.256 C548.164,16.109 550.012,19.375 551.906,22.596 C556.126,20.301 560.346,18.007 564.566,15.712 C564.564,15.592 564.605,15.483 564.665,15.387 C558.359,14.677 552.053,13.967 545.747,13.256 ZM595.448,68.664 C593.410,65.441 591.382,62.210 589.387,58.959 C580.907,45.144 572.815,31.101 565.103,16.843 C560.627,19.277 556.150,21.711 551.673,24.146 C551.055,24.482 550.496,23.702 550.835,23.242 C548.858,19.880 546.965,16.437 544.353,13.522 C533.050,20.267 522.038,27.462 511.325,35.111 C520.392,50.508 529.460,65.905 538.527,81.302 C540.882,85.301 543.236,89.300 545.591,93.299 C546.600,95.012 547.609,96.726 548.619,98.440 C549.614,100.129 551.775,97.146 552.370,96.626 C557.474,92.172 562.813,87.968 568.469,84.233 C574.545,80.221 580.854,76.540 587.450,73.444 C588.433,72.983 596.429,70.215 595.448,68.664 ZM569.451,34.719 C559.137,40.855 548.717,46.805 538.190,52.568 C537.483,52.956 536.852,51.876 537.559,51.489 C548.086,45.725 558.506,39.775 568.820,33.640 C569.514,33.226 570.143,34.308 569.451,34.719 ZM559.079,34.390 C551.123,39.032 543.067,43.490 534.909,47.768 C534.196,48.141 533.564,47.062 534.278,46.688 C542.436,42.411 550.492,37.952 558.448,33.310 C559.146,32.903 559.775,33.983 559.079,34.390 ZM540.969,33.050 C536.072,35.912 531.102,38.642 526.059,41.240 C525.344,41.608 524.711,40.529 525.428,40.160 C530.472,37.563 535.441,34.833 540.338,31.970 C541.036,31.562 541.665,32.643 540.969,33.050 ZM530.913,48.746 C531.285,49.017 531.318,49.714 530.742,49.865 C530.132,50.024 529.619,49.513 529.780,48.902 C529.934,48.317 530.652,48.359 530.913,48.746 ZM532.824,53.124 C532.898,53.124 532.973,53.124 533.047,53.124 C533.854,53.124 533.854,54.375 533.047,54.375 C532.973,54.375 532.898,54.375 532.824,54.375 C532.018,54.375 532.018,53.124 532.824,53.124 ZM535.731,58.716 C536.537,58.716 536.537,59.966 535.731,59.966 C534.924,59.966 534.924,58.716 535.731,58.716 ZM540.222,55.980 C545.501,53.167 550.779,50.354 556.057,47.541 C556.768,47.162 557.400,48.241 556.688,48.621 C551.410,51.434 546.132,54.247 540.853,57.060 C540.142,57.439 539.511,56.360 540.222,55.980 ZM514.376,683.415 C523.576,685.445 529.369,693.232 534.364,700.753 C550.278,697.317 566.226,694.046 582.204,690.929 C582.269,690.906 582.334,690.894 582.402,690.890 C610.773,685.358 639.240,680.323 667.792,675.801 C668.471,675.693 668.812,676.569 668.386,676.896 C668.386,676.902 668.389,676.906 668.389,676.913 C667.588,699.754 666.788,722.594 665.987,745.435 C666.435,745.657 666.521,746.437 665.902,746.595 C665.901,746.596 665.900,746.596 665.898,746.596 C665.733,746.978 665.225,747.058 664.926,746.838 C654.929,749.388 644.888,751.753 634.830,754.042 C634.632,754.402 634.123,754.528 633.858,754.263 C612.199,759.179 590.454,763.719 568.819,768.741 C568.217,768.881 567.886,768.207 568.117,767.802 C562.667,756.773 557.457,745.520 551.936,734.447 C551.614,734.330 551.453,733.956 551.541,733.651 C547.635,725.846 543.573,718.132 539.136,710.666 C536.367,706.008 533.469,701.403 530.179,697.091 C526.732,692.573 522.764,687.142 517.052,685.408 C506.580,682.229 496.875,686.932 487.736,691.703 C487.022,692.075 486.390,690.996 487.105,690.623 C495.244,686.374 504.854,681.314 514.376,683.415 ZM583.185,692.009 C585.933,702.785 588.925,713.493 592.142,724.132 C604.004,721.435 615.866,718.738 627.727,716.041 C626.090,705.649 624.452,695.256 622.815,684.864 C622.802,684.781 622.810,684.706 622.824,684.633 C609.591,686.986 596.377,689.439 583.185,692.009 ZM667.130,677.168 C652.724,679.456 638.341,681.878 623.980,684.424 C623.992,684.461 624.013,684.488 624.020,684.531 C625.661,694.943 627.301,705.354 628.942,715.765 C641.319,712.951 653.696,710.137 666.073,707.323 C666.425,697.271 666.778,687.220 667.130,677.168 ZM634.775,752.783 C644.787,750.502 654.779,748.138 664.731,745.598 C665.163,733.271 665.595,720.943 666.028,708.615 C653.731,711.411 641.434,714.207 629.137,717.002 C631.016,728.929 632.895,740.856 634.775,752.783 ZM633.560,753.059 C631.681,741.132 629.802,729.205 627.922,717.278 C616.115,719.963 604.308,722.647 592.501,725.332 C596.006,736.854 599.781,748.295 603.833,759.644 C613.748,757.475 623.663,755.306 633.560,753.059 ZM569.264,767.309 C569.271,767.325 569.270,767.340 569.276,767.355 C580.366,764.787 591.485,762.347 602.605,759.913 C598.556,748.567 594.782,737.129 591.279,725.610 C578.616,728.488 565.954,731.367 553.291,734.246 C558.747,745.239 563.876,756.411 569.264,767.309 ZM535.428,702.365 C541.858,712.157 547.445,722.537 552.714,733.096 C565.450,730.201 578.185,727.305 590.920,724.410 C587.700,713.759 584.706,703.040 581.956,692.252 C566.309,695.308 550.689,698.510 535.103,701.872 C535.211,702.036 535.321,702.202 535.428,702.365 ZM240.301,237.837 C212.103,245.554 183.823,252.966 155.465,260.071 C154.683,260.267 154.351,259.061 155.133,258.865 C183.491,251.760 211.771,244.348 239.968,236.631 C240.747,236.418 241.077,237.624 240.301,237.837 ZM234.694,194.219 C202.694,202.032 170.985,210.974 139.617,221.033 C138.847,221.280 138.520,220.072 139.285,219.827 C170.652,209.768 202.361,200.826 234.362,193.014 C235.145,192.823 235.477,194.028 234.694,194.219 ZM216.502,153.348 C187.131,163.430 157.445,172.555 127.483,180.713 C126.704,180.925 126.373,179.718 127.150,179.507 C157.113,171.350 186.799,162.224 216.170,152.143 C216.935,151.880 217.260,153.088 216.502,153.348 ZM137.527,273.459 C136.292,270.268 135.114,267.061 133.989,263.830 C133.723,263.066 134.931,262.741 135.194,263.498 C136.506,267.267 137.894,271.004 139.360,274.716 C139.482,275.024 139.230,275.415 138.924,275.486 C127.114,278.212 115.725,282.161 104.769,287.351 C104.380,287.536 104.002,287.376 103.850,286.978 C101.035,279.578 98.987,270.309 93.541,264.377 C93.209,264.015 93.368,263.491 93.817,263.332 C100.170,261.075 106.523,258.818 112.876,256.561 C113.638,256.291 113.962,257.499 113.208,257.767 C109.165,259.203 105.123,260.640 101.080,262.076 C99.347,262.691 97.614,263.307 95.882,263.922 C94.703,264.341 96.621,266.183 96.583,266.121 C98.395,269.107 99.591,272.280 100.828,275.534 C101.297,276.767 104.068,286.281 105.782,285.493 C112.443,282.430 119.268,279.699 126.287,277.566 C127.586,277.171 138.078,274.883 137.527,273.459 ZM119.331,272.913 C119.221,273.304 118.764,273.487 118.413,273.286 C115.402,271.566 112.456,269.752 109.564,267.839 C108.895,267.396 109.520,266.313 110.195,266.759 C112.861,268.524 115.579,270.193 118.346,271.793 C119.856,266.398 121.366,261.004 122.876,255.609 C123.093,254.834 124.299,255.164 124.081,255.942 C122.498,261.599 120.914,267.256 119.331,272.913 ZM119.793,241.055 C111.091,243.891 102.388,246.727 93.686,249.563 C93.335,249.677 93.038,249.431 92.917,249.126 C90.187,242.263 87.543,235.368 84.984,228.439 C84.891,228.188 85.040,227.853 85.271,227.733 C92.061,224.200 99.120,221.516 106.547,219.658 C107.330,219.463 107.661,220.669 106.880,220.864 C100.737,222.401 94.694,224.417 89.010,227.234 C85.386,229.030 87.655,232.085 88.772,235.026 C89.864,237.903 90.963,240.778 92.087,243.642 C92.521,244.747 93.121,248.433 95.218,247.749 C96.461,247.344 97.704,246.939 98.948,246.534 C102.056,245.521 105.164,244.508 108.272,243.495 C111.380,242.482 114.488,241.469 117.596,240.456 C120.175,239.616 120.223,238.292 119.318,235.811 C118.831,234.352 118.232,232.942 117.522,231.580 C117.171,230.858 118.249,230.224 118.602,230.949 C119.699,233.202 123.761,239.761 119.793,241.055 ZM106.449,238.897 C106.286,239.164 105.872,239.326 105.593,239.121 C102.387,236.759 99.551,234.096 97.016,231.021 C96.508,230.404 97.387,229.514 97.900,230.137 C99.549,232.136 101.299,234.069 103.291,235.736 C106.407,238.343 107.164,235.317 108.682,232.823 C111.442,228.288 114.203,223.752 116.964,219.216 C117.382,218.529 118.464,219.157 118.043,219.847 C114.178,226.197 110.313,232.547 106.449,238.897 ZM113.670,200.863 C104.056,204.916 94.324,208.653 84.468,212.077 C84.122,212.197 83.816,211.940 83.699,211.640 C80.664,203.829 77.628,196.019 74.593,188.208 C74.501,187.972 74.645,187.604 74.880,187.502 C81.285,184.718 87.842,182.522 94.638,180.910 C95.422,180.724 95.755,181.930 94.970,182.116 C91.310,182.984 87.666,183.951 84.116,185.204 C81.038,186.289 75.560,187.263 77.199,191.481 C78.099,193.796 83.524,211.095 85.983,210.229 C92.745,207.848 99.468,205.349 106.111,202.649 C107.922,201.913 109.734,201.177 111.536,200.417 C113.524,199.579 112.356,196.803 112.004,195.470 C111.152,192.241 110.028,189.201 108.555,186.195 C108.202,185.474 109.280,184.840 109.634,185.563 C111.908,190.202 113.388,194.970 114.107,200.094 C114.159,200.468 114.017,200.717 113.670,200.863 ZM95.381,199.628 C95.263,199.999 94.817,200.226 94.463,200.002 C91.569,198.162 89.072,196.057 86.780,193.501 C86.243,192.902 87.124,192.015 87.664,192.616 C88.439,193.481 94.153,199.286 94.632,197.869 C95.431,195.499 96.303,193.168 97.255,190.856 C98.987,186.647 101.113,182.615 103.437,178.708 C103.849,178.016 104.930,178.644 104.517,179.339 C100.697,185.759 97.655,192.509 95.381,199.628 ZM71.712,466.388 C67.970,467.453 64.342,467.138 61.473,464.311 C60.253,463.109 61.494,462.462 59.890,462.790 C58.174,463.142 56.459,463.493 54.746,463.854 C51.818,464.472 51.634,464.186 51.429,466.961 C51.279,468.975 50.843,470.599 49.782,472.326 C48.114,475.040 44.483,475.410 41.625,475.309 C41.600,475.308 41.583,475.297 41.560,475.294 C41.525,475.290 41.495,475.297 41.459,475.287 C39.744,474.815 38.367,473.927 37.500,472.302 C36.944,471.259 36.718,469.162 34.981,469.690 C33.253,470.215 31.525,470.740 29.805,471.290 C28.617,471.670 25.241,472.052 25.338,473.920 C25.393,474.987 25.525,476.159 25.289,477.220 C24.830,479.279 24.204,480.647 22.829,482.210 C20.676,484.661 15.949,484.444 13.849,482.025 C12.609,480.597 11.549,478.994 11.429,477.023 C11.399,476.528 3.318,478.947 1.605,479.460 C11.359,513.923 22.067,548.103 32.913,582.235 C58.006,574.901 83.006,567.254 107.907,559.293 C101.123,539.288 95.279,518.993 90.395,498.440 C90.209,497.656 91.414,497.323 91.601,498.108 C96.544,518.909 102.466,539.450 109.357,559.690 C109.546,560.247 108.960,560.564 108.526,560.408 C83.357,568.457 58.088,576.187 32.723,583.595 C32.359,583.702 32.100,583.489 32.000,583.214 C31.928,583.146 31.865,583.063 31.828,582.947 C20.806,548.263 9.918,513.533 0.032,478.505 C-0.188,477.727 1.018,477.397 1.237,478.172 C1.245,478.201 1.254,478.229 1.262,478.258 C4.778,477.214 8.294,476.169 11.809,475.125 C12.218,475.003 12.577,475.333 12.601,475.728 C12.804,479.060 16.336,485.650 21.088,481.987 C24.351,479.472 24.408,476.134 23.883,472.527 C23.832,472.176 23.965,471.875 24.319,471.758 C28.322,470.437 32.341,469.174 36.379,467.967 C36.724,467.864 37.035,468.089 37.148,468.404 C37.998,470.782 38.865,473.235 41.728,474.058 C47.578,474.213 50.866,470.135 49.891,464.297 C49.837,463.975 49.970,463.608 50.328,463.528 C53.792,462.758 57.269,462.049 60.747,461.342 C61.107,461.269 61.387,461.444 61.516,461.779 C63.147,466.006 67.735,466.219 71.379,465.182 C72.156,464.961 72.486,466.168 71.712,466.388 ZM70.355,531.530 C70.289,531.624 70.210,531.688 70.120,531.721 C63.439,536.948 56.394,541.697 49.743,546.967 C49.523,547.231 49.062,547.230 48.800,546.967 C48.643,546.826 48.563,546.630 48.607,546.435 C47.950,537.872 47.784,529.310 48.084,520.730 C47.982,520.641 47.909,520.519 47.872,520.381 C47.731,520.205 47.669,519.964 47.799,519.707 C61.812,491.822 77.557,464.756 93.083,437.695 C93.290,437.334 93.677,437.331 93.948,437.507 C97.854,434.746 104.084,431.646 108.870,433.939 C113.203,436.015 115.223,439.901 115.468,444.461 C115.792,444.587 116.038,444.950 115.822,445.347 C115.696,445.577 115.569,445.807 115.443,446.037 C115.423,446.077 115.407,446.119 115.381,446.151 C100.018,474.246 84.117,502.212 70.528,531.222 C70.513,531.330 70.461,531.435 70.355,531.530 ZM49.790,545.369 C56.218,540.347 62.968,535.755 69.385,530.723 C69.488,530.502 69.598,530.284 69.702,530.063 C69.183,527.025 67.233,523.367 63.684,524.046 C61.901,524.459 60.206,525.002 58.514,525.702 C58.133,525.860 57.720,525.468 57.723,525.099 C57.742,522.937 54.700,519.478 52.327,519.751 C51.228,519.877 50.303,520.163 49.338,520.534 C49.043,528.824 49.194,537.096 49.790,545.369 ZM114.268,445.581 C114.302,440.234 111.114,433.896 104.792,434.514 C100.936,434.891 97.551,436.458 94.428,438.691 C94.244,438.823 94.065,438.824 93.914,438.759 C78.707,465.259 63.310,491.773 49.535,519.055 C49.622,519.028 49.691,519.004 49.802,518.970 C49.908,518.936 50.003,518.935 50.090,518.950 C51.913,518.389 53.830,518.224 55.444,519.536 C57.089,520.874 58.586,522.204 58.907,524.230 C60.361,523.668 61.822,523.195 63.352,522.840 C65.481,522.433 67.150,522.893 68.549,524.612 C69.430,525.697 70.077,526.873 70.501,528.155 C70.538,528.152 70.575,528.160 70.613,528.163 C83.935,500.043 99.346,472.869 114.268,445.581 ZM568.376,786.471 C572.245,783.072 578.328,781.273 583.435,781.642 C593.049,782.337 602.978,788.921 600.949,799.765 C599.152,809.375 590.687,818.469 580.309,817.809 C569.645,817.130 564.594,808.836 563.417,798.898 C563.253,793.626 564.336,790.021 568.376,786.471 ZM564.668,798.898 C565.774,808.250 571.150,817.396 581.863,816.545 C590.094,815.891 597.921,809.177 599.474,800.874 C601.496,790.068 592.435,782.225 581.896,782.885 C576.986,783.193 571.597,784.701 568.080,788.392 C565.106,791.515 564.536,794.695 564.668,798.898 ZM673.447,766.858 C682.415,768.652 686.721,779.298 684.026,787.681 C681.507,795.512 673.389,801.886 664.778,799.743 C656.683,797.728 650.507,790.254 651.942,781.740 C654.306,772.404 663.394,764.845 673.447,766.858 ZM667.683,798.789 C675.089,798.511 682.027,793.611 683.154,785.902 C684.394,777.420 680.249,767.246 670.197,767.891 C661.707,768.435 655.242,773.803 653.148,782.072 C653.148,782.072 653.148,782.072 653.148,782.073 C651.763,790.283 659.136,799.109 667.683,798.789 Z" class="cls-1"/>
</svg>
