<svg xmlns="http://www.w3.org/2000/svg" xmlns:xlink="http://www.w3.org/1999/xlink" preserveAspectRatio="xMidYMid" width="10" height="10" viewBox="0 0 10 10">
  <defs>
    <style>

      .cls-2 {
        fill: #000000;
        opacity: 0.5;
      }
    </style>
  </defs>
  <path d="M6.447,4.875 C7.992,6.419 9.255,7.682 9.441,7.868 C9.875,8.302 9.875,9.007 9.441,9.441 C9.007,9.875 8.303,9.875 7.868,9.441 C7.682,9.255 6.419,7.992 4.875,6.447 C3.331,7.992 2.067,9.255 1.882,9.441 C1.447,9.875 0.743,9.875 0.309,9.441 C-0.125,9.007 -0.125,8.302 0.309,7.868 C0.495,7.682 1.758,6.419 3.303,4.875 C1.758,3.331 0.495,2.067 0.309,1.881 C-0.125,1.447 -0.125,0.743 0.309,0.309 C0.743,-0.125 1.447,-0.125 1.882,0.309 C2.067,0.495 3.331,1.758 4.875,3.303 C6.419,1.758 7.682,0.495 7.868,0.309 C8.303,-0.125 9.007,-0.125 9.441,0.309 C9.875,0.743 9.875,1.447 9.441,1.881 C9.255,2.067 7.992,3.331 6.447,4.875 Z" id="path-1" class="cls-2" fill-rule="evenodd"/>
</svg>
