<svg xmlns="http://www.w3.org/2000/svg" xmlns:xlink="http://www.w3.org/1999/xlink" preserveAspectRatio="xMidYMid" width="741" height="118" viewBox="0 0 741 118">
  <defs>
    <style>

      .cls-3 {
        fill: #ffffff;
        stroke: #ffffff;
        stroke-width: 1px;
        filter: url(#drop-shadow-1);
      }
    </style>

    <filter id="drop-shadow-1" filterUnits="userSpaceOnUse">
      <feOffset in="SourceAlpha" dx="0" dy="5"/>
      <feGaussianBlur result="dropShadow" stdDeviation="3.162"/>
      <feFlood flood-color="#000000" flood-opacity="0.03"/>
      <feComposite operator="in" in2="dropShadow"/>
      <feComposite in="SourceGraphic" result="dropShadow"/>
    </filter>
  </defs>
  <g id="cloudssvg">
    <g id="фигура-23-копия" style="fill: #ffffff; filter: url(#drop-shadow-1);">
      <path d="M739.799,51.558 C739.413,62.466 730.178,70.954 719.335,70.954 C719.335,70.954 710.520,70.954 710.520,70.954 C710.520,70.954 691.817,70.954 691.817,70.954 C691.817,70.954 658.562,70.954 658.562,70.954 C648.923,70.954 641.203,62.743 641.928,53.068 C641.939,52.926 641.950,52.785 641.962,52.644 C643.499,34.833 658.081,20.646 675.815,19.678 C688.848,18.967 700.465,25.244 707.327,35.116 C710.750,32.355 715.087,30.694 719.814,30.694 C731.101,30.694 740.203,40.106 739.799,51.558 ZM626.203,37.000 C626.203,37.000 604.203,37.000 604.203,37.000 C600.889,37.000 598.203,34.314 598.203,31.000 C598.203,27.686 600.889,25.000 604.203,25.000 C604.207,25.000 604.211,25.000 604.216,25.001 C604.477,18.881 609.519,14.000 615.703,14.000 C620.459,14.000 624.540,16.887 626.291,21.004 C630.668,21.052 634.203,24.611 634.203,29.000 C634.203,33.418 630.621,37.000 626.203,37.000 ZM519.203,91.000 C519.203,91.000 509.931,91.000 509.931,91.000 C504.242,103.391 491.731,112.000 477.203,112.000 C462.672,112.000 450.153,103.390 444.466,90.993 C444.378,90.995 444.291,91.000 444.203,91.000 C434.814,91.000 427.203,83.389 427.203,74.000 C427.203,64.611 434.814,57.000 444.203,57.000 C444.990,57.000 445.763,57.058 446.522,57.161 C452.857,46.866 464.228,40.000 477.203,40.000 C486.020,40.000 494.095,43.172 500.354,48.434 C502.037,46.921 504.262,46.000 506.703,46.000 C510.478,46.000 513.739,48.202 515.271,51.392 C516.543,51.138 517.856,51.000 519.203,51.000 C530.249,51.000 539.203,59.954 539.203,71.000 C539.203,82.046 530.249,91.000 519.203,91.000 ZM283.203,76.000 C283.115,76.000 283.028,75.995 282.940,75.993 C282.939,75.996 282.938,75.998 282.937,76.000 C282.937,76.000 236.203,76.000 236.203,76.000 C236.203,76.000 217.475,76.000 217.475,76.000 C217.475,76.000 208.203,76.000 208.203,76.000 C202.502,76.000 197.362,73.611 193.719,69.784 C192.391,70.556 190.850,71.000 189.203,71.000 C184.232,71.000 180.203,66.970 180.203,62.000 C180.203,57.292 183.818,53.431 188.423,53.036 C189.856,43.396 198.165,36.000 208.203,36.000 C212.928,36.000 217.268,37.642 220.690,40.383 C227.199,31.083 237.990,25.000 250.203,25.000 C263.179,25.000 274.549,31.866 280.884,42.161 C281.643,42.058 282.416,42.000 283.203,42.000 C292.592,42.000 300.203,49.611 300.203,59.000 C300.203,68.389 292.592,76.000 283.203,76.000 ZM175.203,105.000 C171.895,105.000 169.006,103.214 167.442,100.555 C163.943,103.335 159.519,105.000 154.703,105.000 C153.509,105.000 152.341,104.892 151.203,104.696 C151.203,104.696 151.203,105.000 151.203,105.000 C151.203,105.000 36.203,105.000 36.203,105.000 C26.814,105.000 19.203,97.389 19.203,88.000 C19.203,78.611 26.814,71.000 36.203,71.000 C39.155,71.000 41.931,71.754 44.351,73.077 C47.496,63.176 56.760,56.000 67.703,56.000 C70.759,56.000 73.682,56.564 76.379,57.586 C80.568,41.153 95.466,29.000 113.203,29.000 C133.289,29.000 149.733,44.584 151.108,64.321 C152.276,64.114 153.476,64.000 154.703,64.000 C166.025,64.000 175.203,73.178 175.203,84.500 C175.203,85.348 175.146,86.183 175.045,87.004 C175.098,87.003 175.150,87.000 175.203,87.000 C180.174,87.000 184.203,91.029 184.203,96.000 C184.203,100.970 180.174,105.000 175.203,105.000 Z" id="path-1" class="cls-3" style="stroke: inherit; filter: none; fill: inherit;" fill-rule="evenodd"/>
    </g>
    <use xlink:href="#path-1" style="stroke: #ffffff; fill: none; filter: none;"/>
  </g>
</svg>
