<?xml version="1.0" encoding="utf-8"?>
<!-- Generator: Adobe Illustrator 19.2.1, SVG Export Plug-In . SVG Version: 6.00 Build 0)  -->
<svg version="1.1" id="Слой_1" xmlns="http://www.w3.org/2000/svg" xmlns:xlink="http://www.w3.org/1999/xlink" x="0px" y="0px"
	 width="28px" height="28px" viewBox="0 0 28 28" style="enable-background:new 0 0 28 28;" xml:space="preserve">
<style type="text/css">
	.st0{fill:#C75A7E;stroke:#C75A7E;}
</style>
<path class="st0" d="M14.5,27.5L14.5,27.5c-3.6,0-6.8-1.4-9.2-3.9c-2.5-2.5-3.8-5.7-3.8-9.2c0.1-7.1,5.9-12.9,13-12.9
	c7.3,0.1,13.1,5.9,13,13.1C27.4,21.7,21.6,27.5,14.5,27.5z M14.6,3.3c-6.2,0-11.3,5-11.3,11.2c0,3,1.1,5.8,3.2,7.9
	c2.1,2.1,4.9,3.3,7.9,3.4h0.1c6.2,0,11.2-5,11.3-11.2C25.8,8.4,20.8,3.3,14.6,3.3z M20.6,15.8h-6.2c-0.5,0-0.8-0.4-0.8-0.8V6.7
	c0-0.5,0.4-0.8,0.8-0.8s0.8,0.4,0.8,0.8v7.5h5.4c0.5,0,0.8,0.4,0.8,0.8S21.1,15.8,20.6,15.8z"/>
</svg>
