<?xml version="1.0" encoding="utf-8"?>
<!-- Generator: Adobe Illustrator 19.1.0, SVG Export Plug-In . SVG Version: 6.00 Build 0)  -->
<svg version="1.1" id="Слой_1" xmlns="http://www.w3.org/2000/svg" xmlns:xlink="http://www.w3.org/1999/xlink" x="0px" y="0px"
	 width="16px" height="100.1px" viewBox="-291 412.9 16 100.1" style="enable-background:new -291 412.9 16 100.1;"
	 xml:space="preserve">
<style type="text/css">
	.st0{fill:#7A7A7A;}
</style>
<path id="path-1" class="st0" d="M-285,428.9c-1,0-6-6.7-6-10s2.7-6,6-6s6,2.7,6,6S-284.1,428.9-285,428.9z M-285,414.9
	c-2.2,0-4,1.8-4,4c0,2.2,1.8,4,4,4c2.2,0,4-1.8,4-4C-281,416.7-282.8,414.9-285,414.9z"/>
<path id="path-1_1_" class="st0" d="M-276,470.1c0,0-0.1,0-0.2,0c-7.9-0.4-14.3-6.7-14.7-14.6c0-0.2-0.1-0.3-0.1-0.3
	c0-0.6,0.4-1,1-1h3c0.6,0,1,0.4,1,1v4l-1.5,1.5c1.4,2.8,3.8,5,6.7,6.3l1.9-1.9h3c0.6,0,1,0.4,1,1v3
	C-275,469.7-275.4,470.1-276,470.1z"/>
<path id="path-1_2_" class="st0" d="M-276,513h-14c-0.6,0-1-0.4-1-1v-9l8,7l8-7v9C-275,512.6-275.4,513-276,513z M-290.8,501.5
	c0.2-0.3,0.5-0.5,0.8-0.5h14c0.3,0,0.6,0.2,0.8,0.5l-7.8,6.4L-290.8,501.5z"/>
</svg>
