<?xml version="1.0" encoding="utf-8"?>
<!-- Generator: Adobe Illustrator 19.0.0, SVG Export Plug-In . SVG Version: 6.00 Build 0)  -->
<svg version="1.1" id="Слой_1" xmlns="http://www.w3.org/2000/svg" xmlns:xlink="http://www.w3.org/1999/xlink" x="0px" y="0px"
	 width="320px" height="98px" viewBox="-145 348 320 98" style="enable-background:new -145 348 320 98;" xml:space="preserve">
<style type="text/css">
	.st0{fill:#F2F2F2;}
</style>
<path id="path-1" class="st0" d="M154.7,393.3c-3.1,0-6.2-0.4-9.1-1.1c-4.6,14.4-18,24.8-33.9,24.8c-9.2,0-17.6-3.5-23.9-9.2
	c-5.7,2.7-12.1,4.2-18.8,4.2c-22.9,0-41.6-17.4-43.8-39.7C13.9,371.2,5,361.7,5,350.1c0-12.3,10-22.3,22.4-22.3
	c5.6,0,10.7,2.1,14.7,5.5c7.5-5.8,16.8-9.3,27-9.3c7.2,0,14,1.7,20,4.8c5.7-5.6,13.6-9.1,22.3-9.1c7.7,0,14.8,2.7,20.3,7.3
	c6.3-5,14.4-8,23.1-8c20.6,0,37.3,16.6,37.3,37.2C192,376.7,175.3,393.3,154.7,393.3z M-38.5,361c-2.8,0-5.3-1.1-7.2-2.9
	c-2.8,5.9-8.8,9.9-15.8,9.9c-3.8,0-7.3-1.2-10.2-3.3c-4.7,10.2-14.9,17.3-26.8,17.3c-14.3,0-26.3-10.2-28.9-23.7
	c-1.9,1.7-4.3,2.7-7.1,2.7c-5.8,0-10.5-4.7-10.5-10.5s4.7-10.5,10.5-10.5c3.1,0,6,1.4,7.9,3.6c3.8-11.9,14.9-20.6,28.1-20.6
	c10.8,0,20.2,5.8,25.4,14.4c3.1-2.8,7.2-4.4,11.6-4.4c6.9,0,12.9,4,15.8,9.9c1.9-1.8,4.4-2.9,7.2-2.9c5.8,0,10.5,4.7,10.5,10.5
	S-32.7,361-38.5,361z"/>
</svg>
