<svg xmlns="http://www.w3.org/2000/svg" xmlns:xlink="http://www.w3.org/1999/xlink" preserveAspectRatio="xMidYMid" width="37" height="37" viewBox="0 0 37 37">
  <defs>
    <style>

      .cls-3 {
        fill: #ffffff;
      }

      .cls-4 {
        fill: #ffffff;
        opacity: 0.5;
      }
    </style>
  </defs>
  <g id="isvg">
    <path d="M16.434,16.833 C16.663,16.241 16.369,15.944 16.108,15.944 C14.901,15.944 13.336,18.808 12.750,18.808 C12.521,18.808 12.325,18.577 12.325,18.380 C12.325,17.788 13.760,16.406 14.184,15.977 C15.489,14.726 17.184,13.772 19.076,13.772 C20.478,13.772 21.979,14.627 20.804,17.821 C20.804,17.821 18.456,24.241 18.456,24.241 C18.261,24.734 17.902,25.558 17.902,26.084 C17.902,26.314 18.032,26.545 18.293,26.545 C19.271,26.545 21.065,23.747 21.522,23.747 C21.685,23.747 21.913,23.944 21.913,24.241 C21.913,25.195 18.098,29.277 14.804,29.277 C13.630,29.277 12.815,28.718 12.815,27.467 C12.815,25.887 13.923,23.188 14.152,22.627 C14.152,22.627 16.434,16.833 16.434,16.833 ZM18.195,10.347 C18.195,8.899 19.434,7.714 20.869,7.714 C22.174,7.714 23.120,8.602 23.120,9.953 C23.120,11.467 21.881,12.587 20.413,12.587 C19.076,12.587 18.195,11.698 18.195,10.347 Z" id="path-1" class="cls-3" fill-rule="evenodd"/>
    <path d="M18.500,37.000 C8.301,37.000 0.000,28.700 0.000,18.500 C0.000,8.301 8.301,0.000 18.500,0.000 C28.698,0.000 37.000,8.301 37.000,18.500 C37.000,28.700 28.698,37.000 18.500,37.000 ZM18.500,1.000 C8.852,1.000 1.000,8.852 1.000,18.500 C1.000,28.148 8.852,36.000 18.500,36.000 C28.147,36.000 36.000,28.148 36.000,18.500 C36.000,8.852 28.147,1.000 18.500,1.000 Z" id="path-2" class="cls-4" fill-rule="evenodd"/>
  </g>
</svg>
