<?xml version="1.0" encoding="utf-8"?>
<!-- Generator: Adobe Illustrator 19.2.0, SVG Export Plug-In . SVG Version: 6.00 Build 0)  -->
<svg version="1.1" id="Слой_1" xmlns:sketch="http://www.bohemiancoding.com/sketch/ns"
	 xmlns="http://www.w3.org/2000/svg" xmlns:xlink="http://www.w3.org/1999/xlink" x="0px" y="0px" width="139px" height="50px"
	 viewBox="0 0 139 50" style="enable-background:new 0 0 139 50;" xml:space="preserve">
<style type="text/css">
	.st0{fill:#A6A6A6;}
	.st1{fill:#E4264F;}
	.st2{fill-rule:evenodd;clip-rule:evenodd;fill:#A6A6A6;}
	.st3{fill-rule:evenodd;clip-rule:evenodd;fill:#E4264F;}
</style>
<g>
	<g id="Shape" sketch:type="MSShapeGroup">
		<path class="st0" d="M76.3,19.6c-1.1-0.4-7.5-1.5-10.7-9.1c-1.5-2.7-1.5-5.6-1.5-6.5c0-2.2,1.8-4,4-4s4,1.8,4,4
			c0,1.8-1.3,3.4-2.9,3.8c0.2,1.8,1.2,6.1,6.1,7c0.5-1.6,2-2.8,3.8-2.8c2.2,0,4,1.8,4,4s-1.8,4-4,4C78,20,77.4,20,76.3,19.6z"/>
		<path class="st0" d="M108,12h-6v6c0,1.1-0.9,2-2,2s-2-0.9-2-2v-6h-6c-1.1,0-2-0.9-2-2s0.9-2,2-2h6V2c0-1.1,0.9-2,2-2s2,0.9,2,2v6
			h6c1.1,0,2,0.9,2,2S109.1,12,108,12L108,12z"/>
		<path class="st0" d="M16.5,18h-13C1,18,0,18.5,0,16s1-6,3.5-6h2.1c1.2,0,1.1,2,4.4,2c3.3,0,3.4-2,4.3-2h2.2c2.5,0,3.5,3,3.5,5.5
			S19,18,16.5,18L16.5,18z M9.5,9C7,9,5,7,5,4.5S7,0,9.5,0S14,2,14,4.5S12,9,9.5,9L9.5,9z"/>
	</g>
	<g transform="translate(0.000000, 21.000000)" sketch:type="MSShapeGroup">
		<path id="Shape_1_" class="st1" d="M108,21h-6v6c0,1.1-0.9,2-2,2s-2-0.9-2-2v-6h-6c-1.1,0-2-0.9-2-2s0.9-2,2-2h6v-6
			c0-1.1,0.9-2,2-2s2,0.9,2,2v6h6c1.1,0,2,0.9,2,2S109.1,21,108,21L108,21z"/>
		<path id="Shape_3_" class="st1" d="M3.5,29C1,29,0,29.5,0,27s1-6,3.5-6c0,0-0.3,0,1.5,0c1.2,0,1.4,2,4.7,2s3.7-2,4.6-2h2.2
			c2.5,0,3.5,3,3.5,5.5S19,29,16.5,29H3.5z M5,15.5C5,13,7,11,9.5,11s4.5,2,4.5,4.5S12,20,9.5,20S5,17.9,5,15.5z"/>
		<path id="Shape-Copy" class="st1" d="M76.3,28.6c-1.1-0.4-7.5-1.5-10.7-9.1c-1.5-2.7-1.5-5.6-1.5-6.5c0-2.2,1.8-4,4-4s4,1.8,4,4
			c0,1.8-1.3,3.4-2.9,3.8c0.2,1.8,1.2,6.1,6.1,7c0.5-1.6,2-2.8,3.8-2.8c2.2,0,4,1.8,4,4s-1.8,4-4,4C78,29,77.4,29,76.3,28.6z"/>
	</g>
	<path class="st0" d="M43,11.3c-0.4,0-0.7-0.1-1.4-0.5l-9.9-5.2v9.9c0,0.8,0.6,1.4,1.4,1.4h19.8c0.8,0,1.4-0.6,1.4-1.4V5.6l-9.9,5.2
		C43.7,11.2,43.4,11.3,43,11.3z M52.9,0H33.1c-0.8,0-1.4,0.6-1.4,1.4v1.1l11.3,6l11.3-6V1.4C54.3,0.6,53.7,0,52.9,0z"/>
	<path class="st1" d="M43,44.3c-0.4,0-0.7-0.1-1.4-0.5l-9.9-5.2v9.9c0,0.8,0.6,1.4,1.4,1.4h19.8c0.8,0,1.4-0.6,1.4-1.4v-9.9
		l-9.9,5.2C43.7,44.2,43.4,44.3,43,44.3z M52.9,33H33.1c-0.8,0-1.4,0.6-1.4,1.4v1.1l11.3,6l11.3-6v-1.1C54.3,33.6,53.7,33,52.9,33z"
		/>
	<path class="st2" d="M138,22h-2v-2c0-0.6-0.4-1-1-1s-1,0.4-1,1v2h-3h-13c-0.6,0-1-0.4-1-1V5c0-1.1,0.9-2,2-2h1V1c0-0.6,0.4-1,1-1h6
		c0.6,0,1,0.4,1,1v2h1c1.1,0,2,0.9,2,2v7c0-1.1,0.9-2,2-2V9c0-0.6,0.4-1,1-1h2c0.6,0,1,0.4,1,1v1c1.1,0,2,0.9,2,2v9
		C139,21.6,138.6,22,138,22z M123,6.5c0-0.3-0.2-0.5-0.5-0.5h-2c-0.3,0-0.5,0.2-0.5,0.5v3c0,0.3,0.2,0.5,0.5,0.5h2
		c0.3,0,0.5-0.2,0.5-0.5V6.5z M123,12.5c0-0.3-0.2-0.5-0.5-0.5h-2c-0.3,0-0.5,0.2-0.5,0.5v3c0,0.3,0.2,0.5,0.5,0.5h2
		c0.3,0,0.5-0.2,0.5-0.5V12.5z M128,6.5c0-0.3-0.2-0.5-0.5-0.5h-2c-0.3,0-0.5,0.2-0.5,0.5v3c0,0.3,0.2,0.5,0.5,0.5h2
		c0.3,0,0.5-0.2,0.5-0.5V6.5z M128,12.5c0-0.3-0.2-0.5-0.5-0.5h-2c-0.3,0-0.5,0.2-0.5,0.5v3c0,0.3,0.2,0.5,0.5,0.5h2
		c0.3,0,0.5-0.2,0.5-0.5V12.5z"/>
	<path class="st3" d="M138,50h-2v-2c0-0.6-0.4-1-1-1s-1,0.4-1,1v2h-3h-13c-0.6,0-1-0.4-1-1V33c0-1.1,0.9-2,2-2h1v-2c0-0.6,0.4-1,1-1
		h6c0.6,0,1,0.4,1,1v2h1c1.1,0,2,0.9,2,2v7c0-1.1,0.9-2,2-2v-1c0-0.6,0.4-1,1-1h2c0.6,0,1,0.4,1,1v1c1.1,0,2,0.9,2,2v9
		C139,49.6,138.6,50,138,50z M123,34.5c0-0.3-0.2-0.5-0.5-0.5h-2c-0.3,0-0.5,0.2-0.5,0.5v3c0,0.3,0.2,0.5,0.5,0.5h2
		c0.3,0,0.5-0.2,0.5-0.5V34.5z M123,40.5c0-0.3-0.2-0.5-0.5-0.5h-2c-0.3,0-0.5,0.2-0.5,0.5v3c0,0.3,0.2,0.5,0.5,0.5h2
		c0.3,0,0.5-0.2,0.5-0.5V40.5z M128,34.5c0-0.3-0.2-0.5-0.5-0.5h-2c-0.3,0-0.5,0.2-0.5,0.5v3c0,0.3,0.2,0.5,0.5,0.5h2
		c0.3,0,0.5-0.2,0.5-0.5V34.5z M128,40.5c0-0.3-0.2-0.5-0.5-0.5h-2c-0.3,0-0.5,0.2-0.5,0.5v3c0,0.3,0.2,0.5,0.5,0.5h2
		c0.3,0,0.5-0.2,0.5-0.5V40.5z"/>
</g>
</svg>
