<?xml version="1.0" encoding="utf-8"?>
<!-- Generator: Adobe Illustrator 18.0.0, SVG Export Plug-In . SVG Version: 6.00 Build 0)  -->
<!DOCTYPE svg PUBLIC "-//W3C//DTD SVG 1.1//EN" "http://www.w3.org/Graphics/SVG/1.1/DTD/svg11.dtd">
<svg version="1.1" id="Слой_1" xmlns="http://www.w3.org/2000/svg" xmlns:xlink="http://www.w3.org/1999/xlink" x="0px" y="0px"
	 width="18px" height="18px" viewBox="0 0 18 18" enable-background="new 0 0 18 18" xml:space="preserve">
<path fill-rule="evenodd" clip-rule="evenodd" fill="#C0C0C0" d="M12.9,15c-0.4,1.7-2,3-3.9,3s-3.4-1.3-3.9-3H5V5h1v6.4V14
	c0,1.7,1.3,3,3,3s3-1.3,3-3V5V3c0-1.1-0.9-2-2-2S8,1.9,8,3v9c0,0.6,0.4,1,1,1c0.6,0,1-0.4,1-1V5h1v6.8c0,0,0,0,0,0
	c0,0.1,0,0.2,0,0.2c0,1.1-0.9,2-2,2s-2-0.9-2-2c0-0.1,0-0.2,0-0.2c0,0,0,0,0,0v-1.2V3c0-1.7,1.3-3,3-3s3,1.3,3,3v12H12.9z"/>
</svg>
