<svg xmlns="http://www.w3.org/2000/svg" xmlns:xlink="http://www.w3.org/1999/xlink" preserveAspectRatio="xMidYMid" width="30" height="23" viewBox="0 0 30 23">
  <defs>
    <style>

      .cls-2 {
        fill: #e4264f;
        opacity: 0.2;
      }
    </style>
  </defs>
  <path d="M29.377,0.003 C25.475,1.168 22.426,3.092 20.230,5.777 C18.033,8.462 16.935,11.599 16.935,15.186 C16.935,17.467 17.560,19.338 18.810,20.800 C20.060,22.261 21.643,22.991 23.559,22.991 C25.288,22.991 26.690,22.403 27.765,21.227 C28.839,20.051 29.377,18.500 29.377,16.576 C29.377,15.388 29.108,14.361 28.571,13.493 C28.033,12.626 27.297,12.026 26.363,11.693 C26.082,11.599 25.708,11.468 25.241,11.301 C23.676,10.779 22.893,10.280 22.893,9.805 C22.893,8.806 23.559,7.654 24.891,6.347 C26.223,5.041 27.928,3.947 30.008,3.068 C30.008,3.068 29.377,0.003 29.377,0.003 ZM12.414,0.003 C8.535,1.168 5.498,3.092 3.302,5.777 C1.106,8.462 0.008,11.599 0.008,15.186 C0.008,17.467 0.632,19.338 1.883,20.800 C3.132,22.261 4.704,22.991 6.596,22.991 C8.349,22.991 9.756,22.403 10.820,21.227 C11.883,20.051 12.414,18.500 12.414,16.576 C12.414,15.388 12.145,14.361 11.608,13.493 C11.070,12.626 10.334,12.026 9.400,11.693 C9.143,11.599 8.769,11.468 8.279,11.301 C6.737,10.779 5.966,10.280 5.966,9.805 C5.966,8.806 6.632,7.654 7.963,6.347 C9.295,5.041 11.000,3.947 13.080,3.068 C13.080,3.068 12.414,0.003 12.414,0.003 Z" id="path-1" class="cls-2" fill-rule="evenodd"/>
</svg>
