<svg xmlns="http://www.w3.org/2000/svg" xmlns:xlink="http://www.w3.org/1999/xlink" preserveAspectRatio="xMidYMid" width="945" height="56" viewBox="0 0 945 56">
  <defs>
    <style>

      .cls-2 {
        fill: #ffffff;
      }
    </style>
  </defs>
  <path d="M944.714,55.698 C944.526,55.885 944.272,55.987 944.013,55.987 C943.940,55.987 943.868,55.979 943.796,55.963 C943.796,55.963 925.903,51.972 925.903,51.972 C925.367,51.852 925.029,51.320 925.149,50.784 C925.269,50.249 925.803,49.916 926.336,50.031 C926.336,50.031 941.105,53.326 941.105,53.326 C937.795,49.810 926.732,38.971 907.001,28.248 C884.959,16.269 847.282,1.989 792.961,1.989 C738.671,1.989 703.180,16.251 682.967,28.216 C661.078,41.172 651.894,54.297 651.804,54.428 C651.493,54.882 650.870,54.999 650.414,54.686 C649.959,54.375 649.842,53.755 650.154,53.301 C650.530,52.753 659.609,39.749 681.827,26.571 C702.267,14.447 738.140,-0.006 792.961,-0.006 C847.765,-0.006 885.803,14.436 908.062,26.552 C927.391,37.073 938.529,47.738 942.273,51.657 C942.273,51.657 939.160,37.272 939.160,37.272 C939.044,36.734 939.385,36.206 939.922,36.089 C940.460,35.976 940.988,36.315 941.105,36.851 C941.105,36.851 944.985,54.783 944.985,54.783 C945.056,55.114 944.954,55.459 944.714,55.698 ZM619.013,55.987 C618.940,55.987 618.868,55.979 618.796,55.963 C618.796,55.963 600.903,51.972 600.903,51.972 C600.367,51.852 600.029,51.320 600.149,50.784 C600.269,50.249 600.803,49.916 601.336,50.031 C601.336,50.031 616.105,53.326 616.105,53.326 C612.795,49.810 601.732,38.971 582.001,28.248 C559.959,16.269 522.282,1.989 467.961,1.989 C413.671,1.989 378.180,16.251 357.967,28.216 C336.078,41.172 326.894,54.297 326.804,54.428 C326.493,54.882 325.870,54.999 325.414,54.686 C324.959,54.375 324.842,53.755 325.154,53.301 C325.530,52.753 334.609,39.749 356.827,26.571 C377.267,14.447 413.140,-0.006 467.961,-0.006 C522.765,-0.006 560.803,14.436 583.062,26.552 C602.391,37.073 613.529,47.738 617.273,51.657 C617.273,51.657 614.160,37.272 614.160,37.272 C614.044,36.734 614.385,36.206 614.922,36.089 C615.460,35.976 615.988,36.315 616.105,36.851 C616.105,36.851 619.985,54.783 619.985,54.783 C620.056,55.114 619.954,55.459 619.714,55.698 C619.526,55.885 619.272,55.987 619.013,55.987 ZM294.013,55.987 C293.940,55.987 293.868,55.979 293.796,55.963 C293.796,55.963 275.903,51.972 275.903,51.972 C275.367,51.852 275.029,51.320 275.149,50.784 C275.269,50.249 275.803,49.916 276.336,50.031 C276.336,50.031 291.105,53.326 291.105,53.326 C287.795,49.810 276.732,38.971 257.001,28.248 C234.959,16.269 197.282,1.989 142.961,1.989 C88.671,1.989 53.180,16.251 32.966,28.216 C11.078,41.172 1.894,54.297 1.804,54.428 C1.492,54.882 0.870,54.999 0.414,54.686 C-0.041,54.375 -0.158,53.755 0.154,53.301 C0.530,52.753 9.609,39.749 31.827,26.571 C52.267,14.447 88.140,-0.006 142.961,-0.006 C197.765,-0.006 235.802,14.436 258.062,26.552 C277.391,37.073 288.529,47.738 292.273,51.657 C292.273,51.657 289.160,37.272 289.160,37.272 C289.044,36.734 289.385,36.206 289.922,36.089 C290.460,35.976 290.988,36.315 291.104,36.851 C291.104,36.851 294.985,54.783 294.985,54.783 C295.056,55.114 294.954,55.459 294.713,55.698 C294.525,55.885 294.272,55.987 294.013,55.987 Z" id="path-1" class="cls-2" fill-rule="evenodd"/>
</svg>
