<?xml version="1.0" encoding="utf-8"?>
<!-- Generator: Adobe Illustrator 19.2.1, SVG Export Plug-In . SVG Version: 6.00 Build 0)  -->
<svg version="1.1" id="Слой_1" xmlns="http://www.w3.org/2000/svg" xmlns:xlink="http://www.w3.org/1999/xlink" x="0px" y="0px"
	 width="40px" height="24px" viewBox="0 0 40 24" style="enable-background:new 0 0 40 24;" xml:space="preserve">
<style type="text/css">
	.st0{fill:#C75A7E;}
</style>
<path id="path-1" class="st0" d="M38.7,5.7L30,14.5v8.7c0,0.5-0.2,0.8-0.7,0.8H0.8C0.4,24,0,23.6,0,23.2V0.8C0,0.4,0.4,0,0.8,0h28.5
	C29.8,0,30,0.4,30,0.8v5.8l2.4-2.4l2.5-2.5c0.3-0.3,0.8-0.3,1.2,0l2.7,2.8C39,4.8,39,5.3,38.7,5.7z M28,2H2v5h26V2z M28,9H2v13h26
	v-5.4l-1.8,1.5c-0.1,0.1-0.3,0.1-0.4,0.2l-4.6,1.9c-0.1,0-0.2,0.1-0.3,0.1c-0.2,0-0.4-0.1-0.6-0.2c-0.2-0.2-0.3-0.6-0.2-0.8l1.9-4.5
	c0-0.1,0.3-0.2,0.4-0.2L28,9.3V9z M25.2,16.8L24,15.6l-0.9,2.1L25.2,16.8z M24.6,14.7l1.6,1.6l2.6-2.7l5.9-6.1l-1.6-1.6L24.6,14.7z
	 M35.5,3.5l-1.6,1.6l1.6,1.6L37,5.1L35.5,3.5z M16.2,17.7c-0.1,0.1-0.2,0.1-0.3,0.1c-0.2,0-0.3-0.1-0.4-0.2
	c-0.2-0.3-0.1-0.6,0.1-0.8l2.6-1.8l-2.6-1.8c-0.2-0.2-0.3-0.5-0.1-0.8c0.2-0.3,0.5-0.3,0.7-0.1l3.2,2.3c0.1,0.1,0.2,0.3,0.2,0.5
	c0,0.2-0.1,0.4-0.2,0.5L16.2,17.7z M11.4,18.5c-0.1,0.2-0.3,0.3-0.5,0.3c-0.1,0-0.1,0-0.2,0c-0.3-0.1-0.4-0.4-0.3-0.7l2.5-6.6
	c0.1-0.3,0.4-0.4,0.7-0.3c0.3,0.1,0.4,0.4,0.3,0.7L11.4,18.5z M8.9,17.5c-0.1,0.2-0.3,0.2-0.4,0.2c-0.1,0-0.2,0-0.3-0.1l-3.2-2.3
	c-0.1-0.1-0.2-0.3-0.2-0.5c0-0.2,0.1-0.4,0.2-0.5l3.2-2.3c0.2-0.2,0.6-0.1,0.7,0.1C9.1,12.6,9,13,8.8,13.1L6.2,15l2.6,1.8
	C9,16.9,9.1,17.3,8.9,17.5z M4,3.1c0.6,0,1,0.5,1,1c0,0.6-0.5,1-1,1s-1-0.5-1-1C3,3.6,3.5,3.1,4,3.1z M6.8,3.1c0.6,0,1,0.5,1,1
	c0,0.6-0.5,1-1,1s-1-0.5-1-1C5.8,3.6,6.3,3.1,6.8,3.1z M9.6,3.1c0.6,0,1,0.5,1,1c0,0.6-0.5,1-1,1c-0.6,0-1-0.5-1-1
	C8.6,3.6,9,3.1,9.6,3.1z"/>
</svg>
