<svg xmlns="http://www.w3.org/2000/svg" xmlns:xlink="http://www.w3.org/1999/xlink" preserveAspectRatio="xMidYMid" width="137" height="299" viewBox="0 0 137 299">
  <defs>
    <style>

      .cls-3 {
        fill: #ffffff;
      }
    </style>
  </defs>
  <g id="puzzlesvg">
    <path d="M0.002,-0.007 C33.428,-0.007 66.856,-0.007 100.282,-0.007 C100.282,-0.007 92.061,26.529 100.282,34.712 C107.476,41.873 123.608,27.551 130.803,34.712 C137.996,41.873 137.996,57.932 130.803,65.092 C123.608,72.253 107.476,57.932 100.282,65.092 C92.061,73.275 100.282,99.811 100.282,99.811 C100.282,99.811 73.623,107.996 65.402,99.811 C58.208,92.653 72.596,76.591 65.402,69.434 C58.208,62.273 42.075,62.273 34.881,69.434 C27.687,76.591 42.075,92.653 34.881,99.811 C26.661,107.996 0.002,99.811 0.002,99.811 C0.002,66.540 0.002,33.265 0.002,-0.007 Z" id="path-1" class="cls-3" fill-rule="evenodd"/>
    <path d="M0.002,299.006 C33.374,299.006 66.749,299.006 100.120,299.006 C100.120,299.006 91.913,272.583 100.120,264.434 C107.303,257.303 123.410,271.565 130.592,264.434 C137.775,257.303 137.775,241.313 130.592,234.183 C123.410,227.052 107.303,241.313 100.120,234.183 C91.913,226.034 100.120,199.611 100.120,199.611 C100.120,199.611 73.504,191.460 65.297,199.611 C58.115,206.738 72.479,222.732 65.297,229.860 C58.115,236.990 42.008,236.990 34.825,229.860 C27.643,222.732 42.008,206.738 34.825,199.611 C26.618,191.460 0.002,199.611 0.002,199.611 C0.002,232.741 0.002,265.875 0.002,299.006 Z" id="path-2" class="cls-3" fill-rule="evenodd"/>
  </g>
</svg>
