<svg xmlns="http://www.w3.org/2000/svg" xmlns:xlink="http://www.w3.org/1999/xlink" preserveAspectRatio="xMidYMid" width="30" height="23" viewBox="0 0 30 23">
  <defs>
    <style>

      .cls-2 {
        fill: #539dce;
        opacity: 0.5;
      }
    </style>
  </defs>
  <path d="M0.623,22.995 C4.525,21.831 7.574,19.906 9.770,17.222 C11.967,14.537 13.065,11.400 13.065,7.813 C13.065,5.532 12.440,3.661 11.190,2.200 C9.940,0.738 8.357,0.008 6.441,0.008 C4.712,0.008 3.310,0.596 2.235,1.772 C1.161,2.948 0.623,4.498 0.623,6.423 C0.623,7.611 0.892,8.638 1.429,9.506 C1.967,10.373 2.703,10.973 3.637,11.306 C3.917,11.400 4.292,11.531 4.759,11.698 C6.324,12.220 7.107,12.719 7.107,13.194 C7.107,14.193 6.441,15.345 5.109,16.652 C3.777,17.958 2.072,19.051 -0.008,19.931 C-0.008,19.931 0.623,22.995 0.623,22.995 ZM17.586,22.995 C21.464,21.831 24.502,19.906 26.698,17.222 C28.894,14.537 29.992,11.400 29.992,7.813 C29.992,5.532 29.367,3.661 28.117,2.200 C26.868,0.738 25.296,0.008 23.403,0.008 C21.651,0.008 20.244,0.596 19.180,1.772 C18.117,2.948 17.586,4.498 17.586,6.423 C17.586,7.611 17.855,8.638 18.392,9.506 C18.930,10.373 19.666,10.973 20.600,11.306 C20.857,11.400 21.231,11.531 21.721,11.698 C23.263,12.220 24.034,12.719 24.034,13.194 C24.034,14.193 23.368,15.345 22.037,16.652 C20.705,17.958 19.000,19.051 16.920,19.931 C16.920,19.931 17.586,22.995 17.586,22.995 Z" id="path-1" class="cls-2" fill-rule="evenodd"/>
</svg>
