<?xml version="1.0" encoding="utf-8"?>
<!-- Generator: Adobe Illustrator 18.0.0, SVG Export Plug-In . SVG Version: 6.00 Build 0)  -->
<!DOCTYPE svg PUBLIC "-//W3C//DTD SVG 1.1//EN" "http://www.w3.org/Graphics/SVG/1.1/DTD/svg11.dtd">
<svg version="1.1" id="Слой_1" xmlns="http://www.w3.org/2000/svg" xmlns:xlink="http://www.w3.org/1999/xlink" x="0px" y="0px"
	 width="71.9px" height="64.3px" viewBox="-5 -5 71.9 64.3" enable-background="new -5 -5 71.9 64.3" xml:space="preserve">
<g opacity="0.5">
	<path fill="#FFFFFF" d="M22.9,2L22.9,2c0.2,0,0.4,0,0.6,0.1l33.9,8.2c1.9,0.5,2.9,2.2,2.4,4.2l-9.3,35.2c-0.3,1-0.9,2.7-2.7,2.7
		c-0.4,0-0.8-0.1-1.1-0.2L5.2,30.5l0,0l0,0c-2.3-1.1-3-1.9-3.2-2.5c-0.1-0.2-0.1-0.6,0.3-1.3L19.1,5l0.4-0.5C20.8,2.9,21.7,2,22.9,2
		 M22.9,0.5c-2.2,0-3.5,1.8-5,3.6L1.1,25.9c-1.9,3.1,1.3,5,3.4,6L46,53.4c0.6,0.2,1.2,0.4,1.8,0.4c1.9,0,3.5-1.3,4.2-3.8l9.3-35.2
		c0.8-2.9-0.8-5.3-3.4-6l-34-8.2C23.5,0.5,23.2,0.5,22.9,0.5L22.9,0.5z"/>
</g>
</svg>
