<?xml version="1.0" encoding="utf-8"?>
<!-- Generator: Adobe Illustrator 18.0.0, SVG Export Plug-In . SVG Version: 6.00 Build 0)  -->
<!DOCTYPE svg PUBLIC "-//W3C//DTD SVG 1.1//EN" "http://www.w3.org/Graphics/SVG/1.1/DTD/svg11.dtd">
<svg version="1.1" id="Слой_1" xmlns="http://www.w3.org/2000/svg" xmlns:xlink="http://www.w3.org/1999/xlink" x="0px" y="0px"
	 width="390px" height="84px" viewBox="0 0 390 84" enable-background="new 0 0 390 84" xml:space="preserve">
<g id="social-sprghjghjitesvg">
	<g id="social-icons">
		<g id="rsssvg">
			<path id="path-2" fill="#FFFFFF" d="M366.6,23.4c0.4,0.4,0.6,0.9,0.6,1.5c0,0.6-0.2,1.1-0.6,1.5l0,0c-0.4,0.4-0.9,0.6-1.5,0.6
				s-1.1-0.2-1.5-0.6c-0.4-0.4-0.6-0.9-0.6-1.5c0-0.6,0.2-1.1,0.6-1.5v0c0.4-0.4,0.9-0.6,1.5-0.6S366.2,23,366.6,23.4z M366.6,23.4
				L366.6,23.4C366.6,23.4,366.6,23.4,366.6,23.4L366.6,23.4z M363.6,26.4C363.6,26.4,363.6,26.4,363.6,26.4L363.6,26.4L363.6,26.4z
				 M363,16.4v3.1c2,0,3.9,0.8,5.3,2.2c1.4,1.4,2.2,3.3,2.2,5.3h0v0h3.1c0-2.9-1.2-5.5-3.1-7.5C368.5,17.6,365.9,16.4,363,16.4z
				 M363,11v3.1c7.1,0,12.9,5.8,12.9,12.9h3.1c0-4.4-1.8-8.4-4.7-11.3C371.4,12.8,367.4,11,363,11z"/>
		</g>
		<g id="youtubesvg">
			<path id="path-4" fill="#FFFFFF" d="M328.8,23.2c0,0-0.2,1.3-0.7,1.8c-0.7,0.7-1.5,0.7-1.8,0.8C323.8,26,320,26,320,26
				s-4.7,0-6.1-0.2c-0.4-0.1-1.3-0.1-2-0.8c-0.5-0.6-0.7-1.8-0.7-1.8s-0.2-1.5-0.2-3v-1.4c0-1.5,0.2-3,0.2-3s0.2-1.3,0.7-1.8
				c0.7-0.7,1.5-0.7,1.8-0.8C316.2,13,320,13,320,13h0c0,0,3.8,0,6.3,0.2c0.4,0,1.1,0,1.8,0.8c0.5,0.6,0.7,1.8,0.7,1.8
				s0.2,1.5,0.2,3v1.4C329,21.7,328.8,23.2,328.8,23.2z M317.8,16.2v6.5l5.6-3.2L317.8,16.2z"/>
		</g>
		<g id="pinterestsvg">
			<path id="path-6" fill="#FFFFFF" d="M270.4,11c-4.9,0-7.4,3.5-7.4,6.5c0,1.8,0.7,3.4,2.1,4c0.2,0.1,0.5,0,0.5-0.3
				c0-0.2,0.2-0.6,0.2-0.8c0.1-0.3,0-0.4-0.1-0.6c-0.4-0.5-0.7-1.1-0.7-2c0-2.6,2-5,5.1-5c2.8,0,4.3,1.7,4.3,4c0,3-1.3,5.5-3.3,5.5
				c-1.1,0-1.9-0.9-1.6-2c0.3-1.3,0.9-2.7,0.9-3.7c0-0.8-0.5-1.6-1.4-1.6c-1.1,0-2,1.1-2,2.7c0,1,0.3,1.6,0.3,1.6s-1.1,4.8-1.3,5.6
				c-0.4,1.7-0.1,3.7,0,3.9c0,0.1,0.2,0.2,0.2,0.1c0.1-0.1,1.4-1.8,1.9-3.4c0.1-0.5,0.7-2.8,0.7-2.8c0.4,0.7,1.4,1.3,2.5,1.3
				c3.3,0,5.6-3,5.6-7.1C277,13.9,274.4,11,270.4,11z"/>
		</g>
		<g id="instragramsvg">
			<path id="path-8" fill="#FFFFFF" d="M226.9,18.6h-1.6c0.1,0.4,0.2,0.9,0.2,1.4c0,3.1-2.5,5.5-5.5,5.5s-5.5-2.5-5.5-5.5
				c0-0.5,0.1-0.9,0.2-1.4h-1.6v7.6c0,0.4,0.3,0.7,0.7,0.7h12.5c0.4,0,0.7-0.3,0.7-0.7V18.6z M226.9,13.8c0-0.4-0.3-0.7-0.7-0.7
				h-2.1c-0.4,0-0.7,0.3-0.7,0.7v2.1c0,0.4,0.3,0.7,0.7,0.7h2.1c0.4,0,0.7-0.3,0.7-0.7V13.8z M220,16.5c-1.9,0-3.5,1.5-3.5,3.5
				s1.6,3.5,3.5,3.5s3.5-1.5,3.5-3.5S221.9,16.5,220,16.5 M226.9,29h-13.8c-1.1,0-2.1-0.9-2.1-2.1V13.1c0-1.1,0.9-2.1,2.1-2.1h13.8
				c1.1,0,2.1,0.9,2.1,2.1v13.8C229,28.1,228.1,29,226.9,29"/>
		</g>
		<g id="linkedinsvg">
			<path id="path-10" fill="#FFFFFF" d="M165,27h-3.5V16.1h3.5V27z M163.1,14.8L163.1,14.8c-1.3,0-2.1-0.8-2.1-1.9
				c0-1.1,0.8-1.9,2.1-1.9s2.1,0.8,2.1,1.9C165.3,13.9,164.4,14.8,163.1,14.8z M179,27h-4v-5.6c0-1.5-0.6-2.5-2-2.5
				c-1,0-1.6,0.7-1.9,1.3c-0.1,0.2-0.1,0.6-0.1,0.9V27h-3.9c0,0,0.1-10,0-10.9h3.9v1.7c0.2-0.7,1.5-1.8,3.5-1.8
				c2.5,0,4.5,1.6,4.5,4.9V27z"/>
		</g>
		<g id="google-plussvg">
			<path id="path-12" fill="#FFFFFF" d="M127.2,20.2V23H126v-2.8h-2.8V19h2.8v-2.8h1.2V19h2.8v1.2H127.2z M120.4,12.8
				c0.1,0.1,0.3,0.2,0.5,0.4c0.2,0.2,0.4,0.4,0.5,0.6c0.2,0.2,0.3,0.5,0.4,0.9c0.1,0.3,0.2,0.7,0.2,1.1c0,0.4-0.1,0.8-0.2,1.1
				c-0.1,0.3-0.2,0.6-0.4,0.8c-0.2,0.2-0.4,0.5-0.6,0.7s-0.5,0.4-0.7,0.6c-0.1,0.1-0.3,0.3-0.4,0.5c-0.1,0.2-0.2,0.4-0.2,0.6
				s0.1,0.5,0.2,0.6c0.1,0.1,0.3,0.3,0.4,0.4l0.8,0.6c0.2,0.2,0.5,0.4,0.7,0.6c0.2,0.2,0.4,0.4,0.6,0.7c0.2,0.2,0.3,0.5,0.4,0.8
				c0.1,0.3,0.2,0.6,0.2,1c0,0.5-0.1,1-0.4,1.5c-0.3,0.5-0.6,1-1.1,1.4c-0.5,0.4-1.1,0.7-1.9,1c-0.7,0.2-1.6,0.4-2.5,0.4
				c-0.8,0-1.5-0.1-2.1-0.3c-0.6-0.2-1.1-0.4-1.5-0.7c-0.4-0.3-0.7-0.6-0.9-1c-0.2-0.4-0.3-0.8-0.3-1.2c0-0.4,0.1-0.9,0.4-1.4
				c0.2-0.5,0.7-1,1.4-1.4c0.3-0.2,0.7-0.4,1.1-0.5c0.4-0.1,0.8-0.2,1.2-0.3s0.8-0.1,1.1-0.2c0.3,0,0.6-0.1,0.9-0.1
				c-0.2-0.2-0.3-0.4-0.5-0.7c-0.1-0.2-0.2-0.5-0.2-0.9c0-0.2,0-0.4,0.1-0.5c0-0.1,0.1-0.3,0.2-0.4c-0.1,0-0.2,0-0.4,0
				c-0.1,0-0.2,0-0.4,0c-0.6,0-1.1-0.1-1.6-0.3c-0.5-0.2-0.9-0.5-1.2-0.8c-0.3-0.3-0.6-0.7-0.7-1.1c-0.2-0.4-0.2-0.9-0.2-1.3
				c0-0.5,0.1-1,0.4-1.6c0.2-0.5,0.6-1,1.1-1.4c0.6-0.5,1.3-0.9,2-1s1.4-0.2,2-0.2h4.6l-1.4,0.8H120.4z M117.9,22.7
				c-0.2,0-0.4,0-0.6,0c-0.2,0-0.5,0.1-0.7,0.1c-0.3,0.1-0.5,0.1-0.7,0.2c-0.1,0-0.3,0.1-0.5,0.2c-0.2,0.1-0.4,0.2-0.6,0.4
				c-0.2,0.2-0.4,0.4-0.5,0.7c-0.2,0.3-0.2,0.6-0.2,1c0,0.8,0.4,1.5,1.1,2c0.7,0.5,1.7,0.8,2.9,0.8c1.1,0,1.9-0.2,2.5-0.7
				c0.6-0.5,0.8-1,0.8-1.7c0-0.3,0-0.5-0.1-0.8c-0.1-0.2-0.2-0.5-0.4-0.7c-0.2-0.2-0.4-0.5-0.8-0.7c-0.3-0.2-0.7-0.5-1.1-0.8
				c-0.1,0-0.2,0-0.2,0c-0.1,0-0.2,0-0.3,0C118.2,22.7,118.1,22.7,117.9,22.7z M119.8,15.5c-0.1-0.5-0.3-0.9-0.5-1.3
				c-0.2-0.4-0.5-0.8-0.9-1c-0.4-0.3-0.8-0.4-1.2-0.4c-0.3,0-0.6,0.1-0.9,0.2c-0.3,0.1-0.5,0.3-0.7,0.5c-0.2,0.2-0.3,0.5-0.4,0.8
				c-0.1,0.3-0.1,0.6-0.1,0.9c0,0.4,0.1,0.8,0.2,1.3c0.1,0.5,0.3,0.9,0.5,1.3c0.2,0.4,0.5,0.7,0.9,1c0.4,0.3,0.8,0.4,1.2,0.4
				c0.3,0,0.6-0.1,0.8-0.2c0.3-0.1,0.5-0.3,0.7-0.4c0.3-0.3,0.4-0.5,0.5-0.9c0.1-0.3,0.1-0.6,0.1-0.8C120,16.4,119.9,16,119.8,15.5z
				"/>
		</g>
		<g id="twittersvg">
			<path id="path-14" fill="#FFFFFF" d="M79,14.8c-0.7,0.3-1.4,0.5-2.1,0.6c0.8-0.5,1.3-1.2,1.6-2.1c-0.7,0.4-1.5,0.7-2.3,0.9
				c-0.7-0.7-1.6-1.2-2.7-1.2c-2,0-3.7,1.7-3.7,3.8c0,0.3,0,0.6,0.1,0.9c-3.1-0.2-5.8-1.7-7.6-4c-0.3,0.6-0.5,1.2-0.5,1.9
				c0,1.3,0.7,2.5,1.6,3.2c-0.6,0-1.2-0.2-1.7-0.5c0,0,0,0,0,0c0,1.8,1.3,3.4,3,3.7c-0.3,0.1-0.6,0.1-1,0.1c-0.2,0-0.5,0-0.7-0.1
				c0.5,1.5,1.8,2.6,3.4,2.6c-1.3,1-2.9,1.6-4.6,1.6c-0.3,0-0.6,0-0.9-0.1c1.6,1.1,3.6,1.7,5.7,1.7c6.8,0,10.5-5.8,10.5-10.8
				c0-0.2,0-0.3,0-0.5C77.9,16.2,78.5,15.5,79,14.8z"/>
		</g>
		<g id="facebooksvg">
			<path id="path-16" fill="#FFFFFF" d="M16.9,14.6c0,0.5,0,2.6,0,2.6H15v3.2h1.9V29h4v-8.7h2.7c0,0,0.3-1.5,0.4-3.2c-0.3,0-3,0-3,0
				s0-1.8,0-2.2c0-0.3,0.4-0.8,0.9-0.8c0.4,0,1.3,0,2.2,0c0-0.4,0-1.9,0-3.3c-1.1,0-2.4,0-3,0C16.8,11,16.9,14.2,16.9,14.6z"/>
		</g>
	</g>
	<g id="social-icons-hover">
		<g id="rss-hoversvg">
			<path id="path-17" fill="#FFFFFF" d="M366.6,67.4c0.4,0.4,0.6,0.9,0.6,1.5c0,0.6-0.2,1.1-0.6,1.5l0,0c-0.4,0.4-0.9,0.6-1.5,0.6
				s-1.1-0.2-1.5-0.6c-0.4-0.4-0.6-0.9-0.6-1.5c0-0.6,0.2-1.1,0.6-1.5l0,0c0.4-0.4,0.9-0.6,1.5-0.6S366.2,67,366.6,67.4z
				 M366.6,67.4L366.6,67.4C366.6,67.4,366.6,67.4,366.6,67.4L366.6,67.4z M363.6,70.4C363.6,70.4,363.6,70.4,363.6,70.4L363.6,70.4
				L363.6,70.4z M363,60.4v3.1c2,0,3.9,0.8,5.3,2.2c1.4,1.4,2.2,3.3,2.2,5.3h0v0h3.1c0-2.9-1.2-5.5-3.1-7.5
				C368.5,61.6,365.9,60.4,363,60.4z M363,55v3.1c7.1,0,12.9,5.8,12.9,12.9h3.1c0-4.4-1.8-8.4-4.7-11.3C371.4,56.8,367.4,55,363,55z
				"/>
		</g>
		<g id="you-tube-hoversvg">
			<path id="path-18" fill="#FFFFFF" d="M328.8,67.2c0,0-0.2,1.3-0.7,1.8c-0.7,0.7-1.5,0.7-1.8,0.8C323.8,70,320,70,320,70
				s-4.7,0-6.1-0.2c-0.4-0.1-1.3-0.1-2-0.8c-0.5-0.6-0.7-1.8-0.7-1.8s-0.2-1.5-0.2-3v-1.4c0-1.5,0.2-3,0.2-3s0.2-1.3,0.7-1.8
				c0.7-0.7,1.5-0.7,1.8-0.8C316.2,57,320,57,320,57h0c0,0,3.8,0,6.3,0.2c0.4,0,1.1,0,1.8,0.8c0.5,0.6,0.7,1.8,0.7,1.8
				s0.2,1.5,0.2,3v1.4C329,65.7,328.8,67.2,328.8,67.2z M317.8,60.2v6.5l5.6-3.3L317.8,60.2z"/>
		</g>
		<g id="pinterest-hoversvg">
			<path id="path-19" fill="#FFFFFF" d="M270.4,55c-4.9,0-7.4,3.5-7.4,6.5c0,1.8,0.7,3.4,2.1,4c0.2,0.1,0.5,0,0.5-0.3
				c0-0.2,0.2-0.6,0.2-0.8c0.1-0.3,0-0.3-0.1-0.6c-0.4-0.5-0.7-1.1-0.7-2c0-2.6,2-5,5.1-5c2.8,0,4.3,1.7,4.3,4c0,3-1.3,5.5-3.3,5.5
				c-1.1,0-1.9-0.9-1.6-2c0.3-1.3,0.9-2.7,0.9-3.7c0-0.8-0.5-1.6-1.4-1.6c-1.1,0-2,1.1-2,2.7c0,1,0.3,1.6,0.3,1.6s-1.1,4.8-1.3,5.6
				c-0.4,1.7-0.1,3.7,0,3.9c0,0.1,0.2,0.2,0.2,0.1c0.1-0.1,1.4-1.8,1.9-3.4c0.1-0.5,0.7-2.8,0.7-2.8c0.4,0.7,1.4,1.3,2.5,1.3
				c3.3,0,5.6-3,5.6-7.1C277,57.9,274.4,55,270.4,55z"/>
		</g>
		<g id="instragram-hoversvg">
			<path id="path-20" fill="#FFFFFF" d="M226.9,62.6h-1.6c0.1,0.4,0.2,0.9,0.2,1.4c0,3.1-2.5,5.5-5.5,5.5s-5.5-2.5-5.5-5.5
				c0-0.5,0.1-0.9,0.2-1.4h-1.6v7.6c0,0.4,0.3,0.7,0.7,0.7h12.5c0.4,0,0.7-0.3,0.7-0.7V62.6z M226.9,57.8c0-0.4-0.3-0.7-0.7-0.7
				h-2.1c-0.4,0-0.7,0.3-0.7,0.7v2.1c0,0.4,0.3,0.7,0.7,0.7h2.1c0.4,0,0.7-0.3,0.7-0.7V57.8z M220,60.5c-1.9,0-3.5,1.5-3.5,3.5
				c0,1.9,1.6,3.5,3.5,3.5s3.5-1.6,3.5-3.5C223.5,62.1,221.9,60.5,220,60.5 M226.9,73h-13.8c-1.1,0-2.1-0.9-2.1-2.1V57.1
				c0-1.1,0.9-2.1,2.1-2.1h13.8c1.1,0,2.1,0.9,2.1,2.1v13.8C229,72.1,228.1,73,226.9,73"/>
		</g>
		<g id="linkedin-hoversvg">
			<path id="path-21" fill="#FFFFFF" d="M165,71h-3.5V60.1h3.5V71z M163.1,58.8L163.1,58.8c-1.3,0-2.1-0.8-2.1-1.9
				c0-1.1,0.8-1.9,2.1-1.9s2.1,0.8,2.1,1.9C165.3,57.9,164.4,58.8,163.1,58.8z M179,71h-4v-5.6c0-1.5-0.6-2.5-2-2.5
				c-1,0-1.6,0.7-1.9,1.3c-0.1,0.2-0.1,0.6-0.1,0.9V71h-3.9c0,0,0.1-10,0-10.9h3.9v1.7c0.2-0.7,1.5-1.8,3.5-1.8
				c2.5,0,4.5,1.6,4.5,4.9V71z"/>
		</g>
		<g id="google-plus-hoversvg">
			<path id="path-22" fill="#FFFFFF" d="M127.2,64.2V67H126v-2.8h-2.8V63h2.8v-2.8h1.2V63h2.8v1.2H127.2z M120.4,56.8
				c0.1,0.1,0.3,0.2,0.5,0.4c0.2,0.2,0.4,0.4,0.5,0.6c0.2,0.2,0.3,0.5,0.4,0.9c0.1,0.3,0.2,0.7,0.2,1.1c0,0.4-0.1,0.8-0.2,1.1
				c-0.1,0.3-0.2,0.6-0.4,0.8c-0.2,0.2-0.4,0.5-0.6,0.7c-0.2,0.2-0.5,0.4-0.7,0.6c-0.1,0.2-0.3,0.3-0.4,0.5
				c-0.1,0.2-0.2,0.4-0.2,0.6c0,0.3,0.1,0.5,0.2,0.6c0.1,0.1,0.3,0.3,0.4,0.4l0.8,0.6c0.2,0.2,0.5,0.4,0.7,0.6
				c0.2,0.2,0.4,0.4,0.6,0.7c0.2,0.2,0.3,0.5,0.4,0.8c0.1,0.3,0.2,0.6,0.2,1c0,0.5-0.1,1-0.4,1.5c-0.3,0.5-0.6,1-1.1,1.4
				c-0.5,0.4-1.1,0.7-1.9,1c-0.7,0.2-1.6,0.4-2.5,0.4c-0.8,0-1.5-0.1-2.1-0.3c-0.6-0.2-1.1-0.4-1.5-0.7c-0.4-0.3-0.7-0.6-0.9-1
				c-0.2-0.4-0.3-0.8-0.3-1.2c0-0.4,0.1-0.9,0.4-1.4c0.2-0.5,0.7-1,1.4-1.3c0.3-0.2,0.7-0.4,1.1-0.5c0.4-0.1,0.8-0.2,1.2-0.3
				c0.4-0.1,0.8-0.1,1.1-0.2c0.3,0,0.6-0.1,0.9-0.1c-0.2-0.2-0.3-0.4-0.5-0.7c-0.1-0.2-0.2-0.5-0.2-0.9c0-0.2,0-0.4,0.1-0.5
				c0-0.1,0.1-0.3,0.2-0.4c-0.1,0-0.2,0-0.4,0c-0.1,0-0.2,0-0.4,0c-0.6,0-1.1-0.1-1.6-0.3c-0.5-0.2-0.9-0.5-1.2-0.8
				c-0.3-0.3-0.6-0.7-0.7-1.1c-0.2-0.4-0.2-0.9-0.2-1.3c0-0.5,0.1-1,0.4-1.6c0.2-0.5,0.6-1,1.1-1.4c0.6-0.5,1.3-0.9,2-1
				c0.7-0.1,1.4-0.2,2-0.2h4.6l-1.4,0.8H120.4z M117.9,66.7c-0.2,0-0.4,0-0.6,0c-0.2,0-0.5,0.1-0.7,0.1c-0.3,0.1-0.5,0.1-0.7,0.2
				c-0.1,0-0.3,0.1-0.5,0.2c-0.2,0.1-0.4,0.2-0.6,0.4c-0.2,0.2-0.4,0.4-0.5,0.7s-0.2,0.6-0.2,1c0,0.8,0.4,1.5,1.1,2
				c0.7,0.5,1.7,0.8,2.9,0.8c1.1,0,1.9-0.2,2.5-0.7c0.6-0.5,0.8-1,0.8-1.7c0-0.3,0-0.5-0.1-0.8c-0.1-0.2-0.2-0.5-0.4-0.7
				s-0.4-0.5-0.8-0.7c-0.3-0.2-0.7-0.5-1.1-0.8c-0.1,0-0.2,0-0.2,0c-0.1,0-0.2,0-0.3,0C118.2,66.7,118.1,66.7,117.9,66.7z
				 M119.8,59.5c-0.1-0.5-0.3-0.9-0.5-1.3c-0.2-0.4-0.5-0.8-0.9-1c-0.4-0.3-0.8-0.4-1.2-0.4c-0.3,0-0.6,0.1-0.9,0.2
				c-0.3,0.1-0.5,0.3-0.7,0.5c-0.2,0.2-0.3,0.5-0.4,0.8c-0.1,0.3-0.1,0.6-0.1,0.9c0,0.4,0.1,0.8,0.2,1.3c0.1,0.5,0.3,0.9,0.5,1.3
				c0.2,0.4,0.5,0.7,0.9,1c0.4,0.3,0.8,0.4,1.2,0.4c0.3,0,0.6-0.1,0.8-0.2c0.3-0.1,0.5-0.3,0.7-0.4c0.3-0.3,0.4-0.5,0.5-0.9
				c0.1-0.3,0.1-0.6,0.1-0.8C120,60.4,119.9,60,119.8,59.5z"/>
		</g>
		<g id="twitter-hoversvg">
			<path id="path-23" fill="#FFFFFF" d="M79,58.8c-0.7,0.3-1.4,0.5-2.1,0.6c0.8-0.5,1.3-1.2,1.6-2.1c-0.7,0.4-1.5,0.7-2.3,0.9
				c-0.7-0.7-1.6-1.2-2.7-1.2c-2,0-3.7,1.7-3.7,3.8c0,0.3,0,0.6,0.1,0.9c-3.1-0.2-5.8-1.7-7.6-4c-0.3,0.6-0.5,1.2-0.5,1.9
				c0,1.3,0.7,2.5,1.6,3.2c-0.6,0-1.2-0.2-1.7-0.5c0,0,0,0,0,0c0,1.8,1.3,3.4,3,3.7c-0.3,0.1-0.6,0.1-1,0.1c-0.2,0-0.5,0-0.7-0.1
				c0.5,1.5,1.8,2.6,3.4,2.6c-1.3,1-2.9,1.6-4.6,1.6c-0.3,0-0.6,0-0.9-0.1c1.6,1.1,3.6,1.7,5.7,1.7c6.8,0,10.5-5.8,10.5-10.8
				c0-0.2,0-0.3,0-0.5C77.9,60.2,78.5,59.5,79,58.8z"/>
		</g>
		<g id="facebook-hoversvg">
			<path id="path-24" fill="#FFFFFF" d="M16.9,58.6c0,0.5,0,2.6,0,2.6H15v3.2h1.9V73h4v-8.7h2.7c0,0,0.3-1.5,0.4-3.2c-0.3,0-3,0-3,0
				s0-1.8,0-2.2c0-0.3,0.4-0.8,0.9-0.8c0.4,0,1.3,0,2.2,0c0-0.4,0-1.9,0-3.3c-1.1,0-2.4,0-3,0C16.8,55,16.9,58.2,16.9,58.6z"/>
		</g>
	</g>
	<g id="rss-hoversvg-копия">
		<path id="path-25" fill="#FFFFFF" d="M366.6,67.4c0.4,0.4,0.6,0.9,0.6,1.5c0,0.6-0.2,1.1-0.6,1.5l0,0c-0.4,0.4-0.9,0.6-1.5,0.6
			s-1.1-0.2-1.5-0.6c-0.4-0.4-0.6-0.9-0.6-1.5c0-0.6,0.2-1.1,0.6-1.5l0,0c0.4-0.4,0.9-0.6,1.5-0.6S366.2,67,366.6,67.4z M366.6,67.4
			L366.6,67.4C366.6,67.4,366.6,67.4,366.6,67.4L366.6,67.4z M363.6,70.4C363.6,70.4,363.6,70.4,363.6,70.4L363.6,70.4L363.6,70.4z
			 M363,60.4v3.1c2,0,3.9,0.8,5.3,2.2c1.4,1.4,2.2,3.3,2.2,5.3h0v0h3.1c0-2.9-1.2-5.5-3.1-7.5C368.5,61.6,365.9,60.4,363,60.4z
			 M363,55v3.1c7.1,0,12.9,5.8,12.9,12.9h3.1c0-4.4-1.8-8.4-4.7-11.3C371.4,56.8,367.4,55,363,55z"/>
	</g>
</g>
</svg>
