<?xml version="1.0" encoding="utf-8"?>
<!-- Generator: Adobe Illustrator 19.1.0, SVG Export Plug-In . SVG Version: 6.00 Build 0)  -->
<svg version="1.1" id="Слой_1" xmlns="http://www.w3.org/2000/svg" xmlns:xlink="http://www.w3.org/1999/xlink" x="0px" y="0px"
	 width="314px" height="104px" viewBox="-140 368.9 314 104" style="enable-background:new -140 368.9 314 104;"
	 xml:space="preserve">
<style type="text/css">
	.st0{fill:#FFFFFF;}
	.st1{fill:#E4264F;}
</style>
<g>
	<g>
		<path class="st0" d="M-14.7,381.4h-2.7v-8.5h2.7V381.4z M-16.2,371.9L-16.2,371.9c-1,0-1.6-0.6-1.6-1.5c0-0.9,0.6-1.5,1.6-1.5
			s1.6,0.6,1.6,1.5C-14.5,371.2-15.2,371.9-16.2,371.9z M-3.8,381.4h-3.1v-4.4c0-1.2-0.5-1.9-1.6-1.9c-0.8,0-1.2,0.5-1.5,1
			c-0.1,0.2-0.1,0.5-0.1,0.7v4.6h-3c0,0,0.1-7.8,0-8.5h3v1.3c0.2-0.5,1.2-1.4,2.7-1.4c1.9,0,3.5,1.2,3.5,3.8V381.4z"/>
		<path class="st0" d="M-128.2,376.1v2.2h-0.9v-2.2h-2.2v-0.9h2.2V373h0.9v2.2h2.2v0.9H-128.2z M-133.5,370.4
			c0.1,0.1,0.2,0.2,0.4,0.3s0.3,0.3,0.4,0.5c0.2,0.2,0.2,0.4,0.3,0.7c0.1,0.2,0.2,0.5,0.2,0.9s-0.1,0.6-0.2,0.9
			c-0.1,0.2-0.2,0.5-0.3,0.6c-0.2,0.2-0.3,0.4-0.5,0.5s-0.4,0.3-0.5,0.5c-0.2,0.1-0.2,0.2-0.3,0.4c-0.1,0.2-0.2,0.3-0.2,0.5
			s0.1,0.3,0.2,0.5c0.1,0.1,0.2,0.2,0.3,0.3l0.6,0.5c0.2,0.2,0.4,0.3,0.5,0.5s0.3,0.3,0.5,0.5c0.2,0.2,0.2,0.4,0.3,0.6
			c0.1,0.2,0.2,0.5,0.2,0.8c0,0.4-0.1,0.8-0.3,1.2c-0.2,0.4-0.5,0.8-0.9,1.1c-0.4,0.3-0.9,0.5-1.5,0.8c-0.5,0.2-1.2,0.3-1.9,0.3
			c-0.6,0-1.2-0.1-1.6-0.2c-0.5-0.2-0.9-0.3-1.2-0.5c-0.3-0.2-0.5-0.5-0.7-0.8c-0.2-0.3-0.2-0.6-0.2-0.9s0.1-0.7,0.3-1.1
			c0.2-0.4,0.5-0.8,1.1-1c0.2-0.2,0.5-0.3,0.9-0.4c0.3-0.1,0.6-0.2,0.9-0.2c0.3-0.1,0.6-0.1,0.9-0.2c0.2,0,0.5-0.1,0.7-0.1
			c-0.2-0.2-0.2-0.3-0.4-0.5c-0.1-0.2-0.2-0.4-0.2-0.7c0-0.2,0-0.3,0.1-0.4c0-0.1,0.1-0.2,0.2-0.3c-0.1,0-0.2,0-0.3,0
			c-0.1,0-0.2,0-0.3,0c-0.5,0-0.9-0.1-1.2-0.2s-0.7-0.4-0.9-0.6s-0.5-0.5-0.5-0.9c-0.2-0.3-0.2-0.7-0.2-1c0-0.4,0.1-0.8,0.3-1.2
			c0.2-0.4,0.5-0.8,0.9-1.1c0.5-0.4,1-0.7,1.6-0.8c0.5-0.1,1.1-0.2,1.6-0.2h3.6l-1.1,0.6L-133.5,370.4L-133.5,370.4z M-135.5,378.1
			c-0.2,0-0.3,0-0.5,0s-0.4,0.1-0.5,0.1c-0.2,0.1-0.4,0.1-0.5,0.2c-0.1,0-0.2,0.1-0.4,0.2c-0.2,0.1-0.3,0.2-0.5,0.3
			s-0.3,0.3-0.4,0.5c-0.2,0.2-0.2,0.5-0.2,0.8c0,0.6,0.3,1.2,0.9,1.6c0.5,0.4,1.3,0.6,2.3,0.6c0.9,0,1.5-0.2,1.9-0.5
			c0.5-0.4,0.6-0.8,0.6-1.3c0-0.2,0-0.4-0.1-0.6c-0.1-0.2-0.2-0.4-0.3-0.5s-0.3-0.4-0.6-0.5c-0.2-0.2-0.5-0.4-0.9-0.6
			c-0.1,0-0.2,0-0.2,0c-0.1,0-0.2,0-0.2,0C-135.3,378.1-135.3,378.1-135.5,378.1z M-134,372.5c-0.1-0.4-0.2-0.7-0.4-1
			c-0.2-0.3-0.4-0.6-0.7-0.8c-0.3-0.2-0.6-0.3-0.9-0.3c-0.2,0-0.5,0.1-0.7,0.2c-0.2,0.1-0.4,0.2-0.5,0.4s-0.2,0.4-0.3,0.6
			s-0.1,0.5-0.1,0.7c0,0.3,0.1,0.6,0.2,1c0.1,0.4,0.2,0.7,0.4,1c0.2,0.3,0.4,0.5,0.7,0.8c0.3,0.2,0.6,0.3,0.9,0.3
			c0.2,0,0.5-0.1,0.6-0.2c0.2-0.1,0.4-0.2,0.5-0.3c0.2-0.2,0.3-0.4,0.4-0.7c0.1-0.2,0.1-0.5,0.1-0.6
			C-133.8,373.2-133.9,372.9-134,372.5z"/>
		<path class="st0" d="M-44.3,371.1c-0.5,0.2-1.1,0.4-1.6,0.5c0.6-0.4,1-0.9,1.2-1.6c-0.5,0.3-1.2,0.5-1.8,0.7
			c-0.5-0.5-1.3-0.9-2.1-0.9c-1.6,0-2.9,1.3-2.9,3c0,0.2,0,0.5,0.1,0.7c-2.4-0.2-4.5-1.3-5.9-3.1c-0.2,0.5-0.4,0.9-0.4,1.5
			c0,1,0.5,1.9,1.2,2.5c-0.5,0-0.9-0.2-1.3-0.4l0,0c0,1.4,1,2.6,2.3,2.9c-0.2,0.1-0.5,0.1-0.8,0.1c-0.2,0-0.4,0-0.5-0.1
			c0.4,1.2,1.4,2,2.6,2c-1,0.8-2.3,1.2-3.6,1.2c-0.2,0-0.5,0-0.7-0.1c1.2,0.9,2.8,1.3,4.4,1.3c5.3,0,8.2-4.5,8.2-8.4
			c0-0.2,0-0.2,0-0.4C-45.2,372.2-44.7,371.7-44.3,371.1z"/>
		<path class="st0" d="M-95,371.8c0,0.4,0,2,0,2h-1.5v2.5h1.5v6.7h3.1v-6.7h2.1c0,0,0.2-1.2,0.3-2.5c-0.2,0-2.3,0-2.3,0s0-1.4,0-1.7
			c0-0.2,0.3-0.6,0.7-0.6c0.3,0,1,0,1.7,0c0-0.3,0-1.5,0-2.6c-0.9,0-1.9,0-2.3,0C-95.1,369-95,371.4-95,371.8z"/>
		<path class="st0" d="M29.3,369c-2,0-3.7,1.7-3.7,3.8v5.5c0,0.5-0.4,0.9-0.9,0.9c-0.5,0-0.9-0.4-0.9-0.9v-2.4h-2.8v2.5
			c0,2.1,1.6,3.8,3.7,3.8c2,0,3.7-1.7,3.7-3.8v-5.5c0-0.5,0.4-0.9,0.9-0.9s0.9,0.4,0.9,0.9v1.1l1.2,0.5l1.6-0.5v-1.1
			C32.9,370.7,31.3,369,29.3,369z M30.1,375.9v2.5c0,2.1,1.6,3.8,3.7,3.8c2,0,3.7-1.7,3.7-3.8V376h-2.8v2.4c0,0.5-0.4,0.9-0.9,0.9
			s-0.9-0.4-0.9-0.9v-2.5l-1.6,0.5L30.1,375.9z"/>
		<path class="st0" d="M63.1,381.4V369h12.5v12.5H63.1z M74.8,375.2h-5.5v-5.5h-5.5v5.5h5.5v5.5h5.5V375.2z"/>
	</g>
	<g>
		<path class="st1" d="M-14.7,421.9h-2.7v-8.5h2.7V421.9z M-16.2,412.4L-16.2,412.4c-1,0-1.6-0.6-1.6-1.5c0-0.9,0.6-1.5,1.6-1.5
			s1.6,0.6,1.6,1.5C-14.5,411.7-15.2,412.4-16.2,412.4z M-3.8,421.9h-3.1v-4.4c0-1.2-0.5-1.9-1.6-1.9c-0.8,0-1.2,0.5-1.5,1
			c-0.1,0.2-0.1,0.5-0.1,0.7v4.6h-3c0,0,0.1-7.8,0-8.5h3v1.3c0.2-0.5,1.2-1.4,2.7-1.4c1.9,0,3.5,1.2,3.5,3.8V421.9z"/>
		<path class="st1" d="M-128.2,416.6v2.2h-0.9v-2.2h-2.2v-0.9h2.2v-2.2h0.9v2.2h2.2v0.9H-128.2z M-133.5,410.9
			c0.1,0.1,0.2,0.2,0.4,0.3s0.3,0.3,0.4,0.5c0.2,0.2,0.2,0.4,0.3,0.7c0.1,0.2,0.2,0.5,0.2,0.9s-0.1,0.6-0.2,0.9
			c-0.1,0.2-0.2,0.5-0.3,0.6c-0.2,0.2-0.3,0.4-0.5,0.5c-0.2,0.2-0.4,0.3-0.5,0.5c-0.2,0.1-0.2,0.2-0.3,0.4c-0.1,0.2-0.2,0.3-0.2,0.5
			s0.1,0.4,0.2,0.5c0.1,0.1,0.2,0.2,0.3,0.3l0.6,0.5c0.2,0.2,0.4,0.3,0.5,0.5c0.2,0.2,0.3,0.3,0.5,0.5c0.2,0.2,0.2,0.4,0.3,0.6
			c0.1,0.2,0.2,0.5,0.2,0.8c0,0.4-0.1,0.8-0.3,1.2c-0.2,0.4-0.5,0.8-0.9,1.1c-0.4,0.3-0.9,0.5-1.5,0.8c-0.5,0.2-1.2,0.3-1.9,0.3
			c-0.6,0-1.2-0.1-1.6-0.2c-0.5-0.2-0.9-0.3-1.2-0.5s-0.5-0.5-0.7-0.8s-0.2-0.6-0.2-0.9c0-0.3,0.1-0.7,0.3-1.1
			c0.2-0.4,0.5-0.8,1.1-1c0.2-0.2,0.5-0.3,0.9-0.4c0.3-0.1,0.6-0.2,0.9-0.2c0.3-0.1,0.6-0.1,0.9-0.2c0.2,0,0.5-0.1,0.7-0.1
			c-0.2-0.2-0.2-0.3-0.4-0.5c-0.1-0.2-0.2-0.4-0.2-0.7c0-0.2,0-0.3,0.1-0.4c0-0.1,0.1-0.2,0.2-0.3c-0.1,0-0.2,0-0.3,0
			c-0.1,0-0.2,0-0.3,0c-0.5,0-0.9-0.1-1.2-0.2c-0.4-0.2-0.7-0.4-0.9-0.6c-0.2-0.2-0.5-0.5-0.5-0.9c-0.2-0.3-0.2-0.7-0.2-1
			c0-0.4,0.1-0.8,0.3-1.2c0.2-0.4,0.5-0.8,0.9-1.1c0.5-0.4,1-0.7,1.6-0.8c0.5-0.1,1.1-0.2,1.6-0.2h3.6l-1.1,0.6L-133.5,410.9
			L-133.5,410.9z M-135.5,418.6c-0.2,0-0.3,0-0.5,0s-0.4,0.1-0.5,0.1s-0.4,0.2-0.5,0.2c-0.1,0-0.2,0.1-0.4,0.2
			c-0.2,0.1-0.3,0.2-0.5,0.3s-0.3,0.3-0.4,0.5c-0.2,0.2-0.2,0.5-0.2,0.8c0,0.6,0.3,1.2,0.9,1.6c0.5,0.4,1.3,0.6,2.3,0.6
			c0.9,0,1.5-0.2,1.9-0.5c0.5-0.4,0.6-0.8,0.6-1.3c0-0.2,0-0.4-0.1-0.6c-0.1-0.2-0.2-0.4-0.3-0.5s-0.3-0.4-0.6-0.5
			c-0.2-0.2-0.5-0.4-0.9-0.6c-0.1,0-0.2,0-0.2,0c-0.1,0-0.2,0-0.2,0C-135.3,418.6-135.3,418.6-135.5,418.6z M-134,413
			c-0.1-0.4-0.2-0.7-0.4-1c-0.2-0.3-0.4-0.6-0.7-0.8c-0.3-0.2-0.6-0.3-0.9-0.3c-0.2,0-0.5,0.1-0.7,0.2c-0.2,0.1-0.4,0.2-0.5,0.4
			s-0.2,0.4-0.3,0.6c-0.1,0.2-0.1,0.5-0.1,0.7c0,0.3,0.1,0.6,0.2,1c0.1,0.4,0.2,0.7,0.4,1s0.4,0.5,0.7,0.8c0.3,0.2,0.6,0.3,0.9,0.3
			c0.2,0,0.5-0.1,0.6-0.2c0.2-0.1,0.4-0.2,0.5-0.3c0.2-0.2,0.3-0.4,0.4-0.7c0.1-0.2,0.1-0.5,0.1-0.6
			C-133.8,413.7-133.9,413.4-134,413z"/>
		<path class="st1" d="M-44.3,411.6c-0.5,0.2-1.1,0.4-1.6,0.5c0.6-0.4,1-0.9,1.2-1.6c-0.5,0.3-1.2,0.5-1.8,0.7
			c-0.5-0.5-1.3-0.9-2.1-0.9c-1.6,0-2.9,1.3-2.9,3c0,0.2,0,0.5,0.1,0.7c-2.4-0.2-4.5-1.3-5.9-3.1c-0.2,0.5-0.4,0.9-0.4,1.5
			c0,1,0.5,1.9,1.2,2.5c-0.5,0-0.9-0.2-1.3-0.4l0,0c0,1.4,1,2.6,2.3,2.9c-0.2,0.1-0.5,0.1-0.8,0.1c-0.2,0-0.4,0-0.5-0.1
			c0.4,1.2,1.4,2,2.6,2c-1,0.8-2.3,1.2-3.6,1.2c-0.2,0-0.5,0-0.7-0.1c1.2,0.9,2.8,1.3,4.4,1.3c5.3,0,8.2-4.5,8.2-8.4
			c0-0.2,0-0.2,0-0.4C-45.2,412.7-44.7,412.2-44.3,411.6z"/>
		<path class="st1" d="M-95,412.3c0,0.4,0,2,0,2h-1.5v2.5h1.5v6.7h3.1v-6.7h2.1c0,0,0.2-1.2,0.3-2.5c-0.2,0-2.3,0-2.3,0s0-1.4,0-1.7
			c0-0.2,0.3-0.6,0.7-0.6c0.3,0,1,0,1.7,0c0-0.3,0-1.5,0-2.6c-0.9,0-1.9,0-2.3,0C-95.1,409.5-95,411.9-95,412.3z"/>
		<path class="st1" d="M29.3,409.5c-2,0-3.7,1.7-3.7,3.8v5.5c0,0.5-0.4,0.9-0.9,0.9c-0.5,0-0.9-0.4-0.9-0.9v-2.4h-2.8v2.5
			c0,2.1,1.6,3.8,3.7,3.8c2,0,3.7-1.7,3.7-3.8v-5.5c0-0.5,0.4-0.9,0.9-0.9s0.9,0.4,0.9,0.9v1.1l1.2,0.5l1.6-0.5v-1.1
			C32.9,411.2,31.3,409.5,29.3,409.5z M30.1,416.4v2.5c0,2.1,1.6,3.8,3.7,3.8c2,0,3.7-1.7,3.7-3.8v-2.4h-2.8v2.4
			c0,0.5-0.4,0.9-0.9,0.9s-0.9-0.4-0.9-0.9v-2.5l-1.6,0.5L30.1,416.4z"/>
		<path class="st1" d="M63.1,421.9v-12.5h12.5v12.5H63.1z M74.8,415.7h-5.5v-5.5h-5.5v5.5h5.5v5.5h5.5V415.7z"/>
	</g>
</g>
</svg>
