<svg xmlns="http://www.w3.org/2000/svg" xmlns:xlink="http://www.w3.org/1999/xlink" preserveAspectRatio="xMidYMid" width="15" height="15" viewBox="0 0 15 15">
  <defs>
    <style>

      .cls-2 {
        fill: #7a7a7a;
      }
    </style>
  </defs>
  <path d="M14.392,10.357 C14.392,10.357 10.350,14.390 10.350,14.390 C9.554,15.184 8.264,15.184 7.468,14.390 C7.468,14.390 -0.015,6.920 -0.015,6.920 C-0.015,6.920 -0.015,0.013 -0.015,0.013 C-0.015,0.013 6.909,0.013 6.909,0.013 C6.909,0.013 14.392,7.483 14.392,7.483 C15.187,8.276 15.187,9.563 14.392,10.357 ZM13.716,8.205 C13.716,8.205 6.499,1.001 6.499,1.001 C6.499,1.001 0.975,1.001 0.975,1.001 C0.975,1.001 0.975,6.511 0.975,6.511 C0.975,6.511 8.192,13.715 8.192,13.715 C8.588,14.110 9.230,14.110 9.625,13.715 C9.625,13.715 13.716,9.635 13.716,9.635 C14.112,9.240 14.112,8.600 13.716,8.205 ZM4.000,5.000 C3.448,5.000 3.000,4.552 3.000,4.000 C3.000,3.448 3.448,3.000 4.000,3.000 C4.552,3.000 5.000,3.448 5.000,4.000 C5.000,4.552 4.552,5.000 4.000,5.000 Z" id="path-1" class="cls-2" fill-rule="evenodd"/>
</svg>
