<?xml version="1.0" encoding="utf-8"?>
<!-- Generator: Adobe Illustrator 19.2.1, SVG Export Plug-In . SVG Version: 6.00 Build 0)  -->
<svg version="1.1" id="Слой_1" xmlns="http://www.w3.org/2000/svg" xmlns:xlink="http://www.w3.org/1999/xlink" x="0px" y="0px"
	 width="32px" height="26px" viewBox="0 0 32 26" style="enable-background:new 0 0 32 26;" xml:space="preserve">
<style type="text/css">
	.st0{fill:#C75A7E;}
</style>
<path id="path-1" class="st0" d="M25.4,19c0,0-0.4,0.6-0.4,0.9V26H6v-6.1C6,19.6,6.2,19,6.2,19H0v-2.8c0-2.8,1.6-5.2,3.9-6.2
	C3,9.4,2.5,8.4,2.5,7.3c0-1.9,1.6-3.5,3.5-3.5s3.5,1.6,3.5,3.5c0,1.1-0.5,2.1-1.4,2.7c0.9,0.3,1.5,0.8,2,1.3c0.6-0.5,1.3-1,2-1.3
	c-1.2-1-1.9-2.6-1.9-4.3c0-3.1,2.6-5.7,5.7-5.7c3.2,0,5.7,2.6,5.7,5.7c0,1.7-0.8,3.3-2,4.3c0.8,0.4,1.5,0.9,2.2,1.5
	c0.5-0.5,1.1-1.1,2.1-1.5c-0.8-0.6-1.4-1.6-1.4-2.8c0-1.9,1.6-3.5,3.5-3.5s3.5,1.6,3.5,3.5c0,1.1-0.5,2.1-1.4,2.8
	c2.3,0.9,3.9,3.4,3.9,6.2V19H25.4z M8.3,7.3c0-1.3-1.1-2.4-2.4-2.4C4.6,4.9,3.6,6,3.6,7.3c0,1.3,1.1,2.4,2.4,2.4
	C7.2,9.6,8.3,8.6,8.3,7.3z M5.9,10.7c-2.7,0-4.9,2.5-4.9,5.5V18h5.3c0.4-2,1.4-4.4,2.9-5.9C8.6,11.4,7.4,10.7,5.9,10.7z M15.9,2.2
	c-1.9,0-3.5,1.6-3.5,3.5c0,1.9,1.6,3.5,3.5,3.5c1.9,0,3.5-1.6,3.5-3.5C19.5,3.8,17.9,2.2,15.9,2.2z M16,11.4c-4.1,0-7,3.8-7,8.5V24
	h14v-4.1C23,15.2,20.1,11.4,16,11.4z M28.3,7.3c0-1.3-1.1-2.4-2.4-2.4S23.6,6,23.6,7.3s1.1,2.4,2.4,2.4C27.3,9.6,28.3,8.6,28.3,7.3z
	 M31,16.2c0-3-2.3-5.5-4.9-5.5c-1.6,0-2.8,0.8-3.4,1.5c1.4,1.6,2.3,3.8,2.6,5.8H31V16.2z"/>
</svg>
