<svg xmlns="http://www.w3.org/2000/svg" xmlns:xlink="http://www.w3.org/1999/xlink" preserveAspectRatio="xMidYMid" width="961" height="418" viewBox="0 0 961 418">
  <defs>
    <style>

      .cls-3 {
        stroke: #539dce;
        stroke-width: 1px;
        fill: none;
        opacity: 0.5;
      }
    </style>
  </defs>
  <g id="testim-bgsvg">
    <path d="M204.717,83.392 C212.357,93.726 224.593,100.500 238.500,100.500 C238.500,100.500 238.500,100.430 238.500,100.430 C228.663,99.784 220.780,92.407 219.268,82.909 C238.253,78.906 252.500,62.193 252.500,42.166 C252.500,19.154 233.696,0.500 210.500,0.500 C187.304,0.500 168.500,19.154 168.500,42.166 C168.500,63.227 184.265,80.591 204.717,83.392 Z" id="path-1" class="cls-3" fill-rule="evenodd"/>
    <path d="M30.080,200.893 C25.351,207.300 17.776,211.500 9.167,211.500 C9.167,211.500 9.167,211.456 9.167,211.456 C15.256,211.056 20.136,206.482 21.072,200.593 C9.320,198.112 0.500,187.749 0.500,175.333 C0.500,161.065 12.141,149.500 26.500,149.500 C40.859,149.500 52.500,161.065 52.500,175.333 C52.500,188.390 42.741,199.156 30.080,200.893 Z" id="path-2" class="cls-3" fill-rule="evenodd"/>
    <path d="M761.283,235.393 C753.643,245.726 741.407,252.500 727.500,252.500 C727.500,252.500 727.500,252.430 727.500,252.430 C737.336,251.784 745.220,244.407 746.732,234.909 C727.747,230.906 713.500,214.193 713.500,194.166 C713.500,171.154 732.304,152.500 755.500,152.500 C778.696,152.500 797.500,171.154 797.500,194.166 C797.500,215.227 781.735,232.591 761.283,235.393 Z" id="path-3" class="cls-3" fill-rule="evenodd"/>
    <path d="M303.283,373.392 C295.643,383.726 283.407,390.500 269.500,390.500 C269.500,390.500 269.500,390.430 269.500,390.430 C279.336,389.784 287.220,382.407 288.732,372.909 C269.747,368.907 255.500,352.193 255.500,332.166 C255.500,309.154 274.304,290.500 297.500,290.500 C320.696,290.500 339.500,309.154 339.500,332.166 C339.500,353.227 323.735,370.591 303.283,373.392 Z" id="path-4" class="cls-3" fill-rule="evenodd"/>
    <path d="M924.283,386.392 C916.643,396.725 904.407,403.500 890.500,403.500 C890.500,403.500 890.500,403.430 890.500,403.430 C900.336,402.784 908.220,395.407 909.732,385.909 C890.747,381.906 876.500,365.193 876.500,345.166 C876.500,322.155 895.304,303.500 918.500,303.500 C941.696,303.500 960.500,322.155 960.500,345.166 C960.500,366.227 944.735,383.591 924.283,386.392 Z" id="path-5" class="cls-3" fill-rule="evenodd"/>
    <path d="M232.590,410.486 C235.774,414.722 240.872,417.500 246.667,417.500 C246.667,417.500 246.667,417.471 246.667,417.471 C242.568,417.206 239.283,414.182 238.653,410.288 C246.564,408.647 252.500,401.794 252.500,393.583 C252.500,384.148 244.665,376.500 235.000,376.500 C225.335,376.500 217.500,384.148 217.500,393.583 C217.500,402.218 224.069,409.337 232.590,410.486 Z" id="path-6" class="cls-3" fill-rule="evenodd"/>
    <path d="M806.590,348.486 C809.774,352.722 814.872,355.500 820.667,355.500 C820.667,355.500 820.667,355.471 820.667,355.471 C816.568,355.206 813.283,352.182 812.653,348.288 C820.564,346.647 826.500,339.794 826.500,331.583 C826.500,322.148 818.665,314.500 809.000,314.500 C799.335,314.500 791.500,322.148 791.500,331.583 C791.500,340.218 798.069,347.337 806.590,348.486 Z" id="path-7" class="cls-3" fill-rule="evenodd"/>
  </g>
</svg>
