<svg xmlns="http://www.w3.org/2000/svg" xmlns:xlink="http://www.w3.org/1999/xlink" preserveAspectRatio="xMidYMid" width="24.03" height="20.25" viewBox="0 0 24.03 20.25">
  <defs>
    <style>
      .cls-1 {
        fill: #55acee;
        fill-rule: evenodd;
      }
    </style>
  </defs>
  <path d="M24.023,2.465 C23.094,2.876 22.165,3.150 21.237,3.287 C22.298,2.602 22.961,1.644 23.359,0.412 C22.431,0.960 21.369,1.370 20.308,1.644 C19.379,0.686 18.185,0.001 16.726,0.001 C14.072,0.001 11.817,2.328 11.817,5.203 C11.817,5.614 11.817,6.025 11.950,6.435 C7.837,6.161 4.255,4.108 1.867,0.960 C1.469,1.781 1.203,2.602 1.203,3.560 C1.203,5.340 2.132,6.983 3.326,7.941 C2.530,7.941 1.734,7.667 1.071,7.257 L1.071,7.257 C1.071,9.721 2.795,11.911 5.051,12.322 C4.653,12.459 4.255,12.459 3.724,12.459 C3.459,12.459 3.061,12.459 2.795,12.322 C3.459,14.375 5.184,15.881 7.306,15.881 C5.582,17.250 3.459,18.071 1.203,18.071 C0.805,18.071 0.407,18.071 0.009,17.934 C2.132,19.440 4.785,20.261 7.572,20.261 C16.593,20.261 21.502,12.322 21.502,5.477 C21.502,5.203 21.502,5.066 21.502,4.793 C22.563,4.382 23.359,3.424 24.023,2.465 Z" class="cls-1"/>
</svg>
