<svg xmlns="http://www.w3.org/2000/svg" xmlns:xlink="http://www.w3.org/1999/xlink" preserveAspectRatio="xMidYMid" width="34" height="34" viewBox="0 0 34 34">
  <defs>
    <style>

      .cls-2 {
        fill: #c75a7e;
      }
    </style>
  </defs>
  <path d="M31.344,5.312 C29.879,5.312 28.687,4.122 28.687,2.656 C28.687,1.191 29.879,-0.000 31.344,-0.000 C32.809,-0.000 34.000,1.191 34.000,2.656 C34.000,4.122 32.809,5.312 31.344,5.312 ZM31.344,1.062 C30.464,1.062 29.750,1.777 29.750,2.656 C29.750,3.536 30.464,4.250 31.344,4.250 C32.223,4.250 32.937,3.536 32.937,2.656 C32.937,1.777 32.223,1.062 31.344,1.062 ZM30.959,14.054 C30.959,14.765 30.682,15.434 30.175,15.937 C30.175,15.937 28.680,17.433 28.680,17.433 C28.180,17.935 27.513,18.212 26.802,18.212 C26.279,18.212 25.776,18.061 25.349,17.780 C25.349,17.780 19.673,31.992 19.673,31.992 C19.281,32.985 18.416,33.715 17.360,33.934 C17.144,33.978 16.927,34.000 16.712,34.000 C16.693,34.000 16.648,34.000 16.629,33.999 C15.812,33.980 15.039,33.649 14.456,33.067 C14.456,33.067 0.941,19.701 0.941,19.701 C0.188,18.949 -0.141,17.884 0.055,16.846 C0.250,15.814 0.941,14.944 1.906,14.520 C1.906,14.520 16.332,8.741 16.332,8.741 C16.075,8.326 15.937,7.847 15.937,7.346 C15.937,6.635 16.215,5.968 16.717,5.467 C16.717,5.467 18.215,3.966 18.215,3.966 C18.720,3.464 19.386,3.188 20.096,3.188 C20.806,3.188 21.472,3.464 21.975,3.965 C21.975,3.965 30.181,12.175 30.181,12.175 C30.681,12.672 30.959,13.342 30.959,14.054 ZM2.762,16.466 C2.441,16.606 2.209,16.897 2.144,17.241 C2.078,17.588 2.188,17.942 2.436,18.190 C2.436,18.190 15.960,31.565 15.960,31.565 C16.154,31.760 16.415,31.869 16.684,31.875 C16.765,31.876 16.847,31.870 16.928,31.853 C17.278,31.780 17.568,31.535 17.700,31.202 C17.700,31.202 22.724,18.625 22.724,18.625 C18.271,13.874 13.819,15.300 9.368,13.820 C9.368,13.820 2.762,16.466 2.762,16.466 ZM28.678,13.678 C28.678,13.678 20.470,5.468 20.470,5.468 C20.263,5.260 19.926,5.260 19.719,5.468 C19.719,5.468 18.217,6.971 18.217,6.971 C18.009,7.178 18.009,7.515 18.217,7.722 C18.217,7.722 20.039,9.544 20.039,9.544 C20.039,9.544 11.017,13.158 11.017,13.158 C11.915,13.351 12.829,13.472 13.771,13.588 C16.704,13.948 19.954,14.351 23.152,17.544 C23.152,17.544 23.025,17.866 23.025,17.866 C23.025,17.866 24.547,14.053 24.547,14.053 C24.547,14.053 26.425,15.930 26.425,15.930 C26.633,16.138 26.969,16.138 27.177,15.930 C27.177,15.930 28.679,14.429 28.679,14.429 C28.888,14.222 28.888,13.885 28.678,13.678 ZM17.531,22.312 C16.067,22.312 14.875,21.121 14.875,19.656 C14.875,18.191 16.066,17.000 17.531,17.000 C18.996,17.000 20.187,18.191 20.187,19.656 C20.187,21.121 18.995,22.312 17.531,22.312 ZM17.531,18.063 C16.650,18.063 15.937,18.776 15.937,19.656 C15.937,20.536 16.650,21.250 17.531,21.250 C18.411,21.250 19.125,20.536 19.125,19.656 C19.125,18.776 18.411,18.063 17.531,18.063 ZM13.812,25.500 C13.226,25.500 12.750,25.024 12.750,24.438 C12.750,23.851 13.226,23.375 13.812,23.375 C14.399,23.375 14.875,23.851 14.875,24.438 C14.875,25.024 14.399,25.500 13.812,25.500 ZM10.625,20.188 C9.453,20.188 8.500,19.234 8.500,18.063 C8.500,16.891 9.453,15.937 10.625,15.937 C11.797,15.937 12.750,16.891 12.750,18.063 C12.750,19.234 11.797,20.188 10.625,20.188 ZM10.625,17.000 C10.039,17.000 9.562,17.475 9.562,18.063 C9.562,18.650 10.039,19.125 10.625,19.125 C11.211,19.125 11.687,18.650 11.687,18.063 C11.687,17.475 11.211,17.000 10.625,17.000 ZM29.750,8.500 C29.750,7.913 30.226,7.437 30.812,7.437 C31.399,7.437 31.875,7.913 31.875,8.500 C31.875,9.087 31.399,9.563 30.812,9.563 C30.226,9.563 29.750,9.087 29.750,8.500 Z" id="path-1" class="cls-2" fill-rule="evenodd"/>
</svg>
