<svg xmlns="http://www.w3.org/2000/svg" xmlns:xlink="http://www.w3.org/1999/xlink" preserveAspectRatio="xMidYMid" width="155" height="49" viewBox="0 0 155 49">
  <defs>
    <style>

      .cls-2 {
        fill: #ffffff;
      }
    </style>
  </defs>
  <path d="M146.240,23.551 C146.265,24.197 146.357,24.752 146.516,25.217 C146.676,25.683 146.886,26.064 147.148,26.362 C147.410,26.659 147.716,26.879 148.068,27.022 C148.420,27.164 148.804,27.236 149.222,27.236 C149.868,27.236 150.416,27.093 150.866,26.808 C151.316,26.523 151.643,26.033 151.848,25.337 C151.848,25.337 154.756,25.337 154.756,25.337 C154.641,25.974 154.426,26.540 154.111,27.035 C153.796,27.529 153.400,27.946 152.921,28.285 C152.443,28.625 151.891,28.881 151.265,29.053 C150.639,29.224 149.958,29.310 149.222,29.310 C148.232,29.310 147.354,29.162 146.590,28.864 C145.825,28.567 145.181,28.141 144.657,27.588 C144.134,27.035 143.733,26.360 143.455,25.563 C143.177,24.767 143.038,23.870 143.038,22.873 C143.038,21.859 143.174,20.953 143.449,20.157 C143.723,19.360 144.117,18.686 144.633,18.133 C145.148,17.579 145.776,17.158 146.516,16.869 C147.256,16.579 148.101,16.435 149.050,16.435 C149.958,16.435 150.778,16.573 151.510,16.850 C152.242,17.126 152.868,17.535 153.387,18.076 C153.907,18.616 154.306,19.283 154.584,20.075 C154.862,20.867 155.001,21.770 155.001,22.785 C155.001,22.785 155.001,23.551 155.001,23.551 C155.001,23.551 146.240,23.551 146.240,23.551 ZM150.933,19.201 C150.447,18.673 149.819,18.409 149.050,18.409 C148.289,18.409 147.665,18.673 147.179,19.201 C146.692,19.729 146.387,20.530 146.265,21.603 C146.265,21.603 151.848,21.603 151.848,21.603 C151.725,20.530 151.420,19.729 150.933,19.201 ZM141.385,19.201 C140.853,19.201 140.350,19.329 139.876,19.585 C139.401,19.840 138.968,20.236 138.575,20.773 C138.575,20.773 138.575,29.021 138.575,29.021 C138.575,29.021 135.458,29.021 135.458,29.021 C135.458,29.021 135.458,16.711 135.458,16.711 C135.458,16.711 138.489,16.711 138.489,16.711 C138.489,16.711 138.489,18.610 138.489,18.610 C138.963,17.873 139.487,17.326 140.060,16.969 C140.632,16.613 141.229,16.435 141.851,16.435 C142.006,16.435 142.162,16.441 142.317,16.453 C142.473,16.466 142.636,16.489 142.808,16.523 C142.808,16.523 142.808,19.377 142.808,19.377 C142.628,19.319 142.419,19.274 142.182,19.245 C141.945,19.216 141.679,19.201 141.385,19.201 ZM130.544,27.889 C130.012,28.367 129.411,28.724 128.740,28.958 C128.070,29.193 127.309,29.310 126.458,29.310 C125.869,29.310 125.321,29.233 124.814,29.078 C124.307,28.923 123.867,28.694 123.495,28.392 C123.123,28.091 122.828,27.716 122.611,27.267 C122.395,26.819 122.286,26.301 122.286,25.714 C122.286,22.864 124.683,21.439 129.477,21.439 C129.477,21.439 130.520,21.439 130.520,21.439 C130.520,20.794 130.499,20.320 130.458,20.018 C130.417,19.817 130.360,19.633 130.286,19.465 C130.213,19.297 130.106,19.151 129.967,19.025 C129.820,18.807 129.587,18.650 129.268,18.554 C128.949,18.457 128.565,18.409 128.115,18.409 C127.305,18.409 126.693,18.562 126.280,18.868 C125.867,19.174 125.632,19.628 125.575,20.232 C125.575,20.232 122.777,20.232 122.777,20.232 C122.941,17.701 124.757,16.435 128.225,16.435 C129.068,16.435 129.810,16.502 130.452,16.636 C131.094,16.770 131.673,17.009 132.188,17.353 C132.671,17.671 133.031,18.120 133.268,18.698 C133.505,19.277 133.624,20.065 133.624,21.062 C133.624,21.062 133.624,29.021 133.624,29.021 C133.624,29.021 130.544,29.021 130.544,29.021 C130.544,29.021 130.544,27.889 130.544,27.889 ZM130.520,23.350 C130.520,23.350 129.317,23.350 129.317,23.350 C128.025,23.350 127.059,23.520 126.421,23.860 C125.783,24.199 125.464,24.754 125.464,25.526 C125.464,26.104 125.656,26.534 126.041,26.814 C126.425,27.096 126.937,27.236 127.575,27.236 C127.869,27.236 128.160,27.200 128.446,27.129 C128.732,27.058 129.002,26.961 129.256,26.840 C129.509,26.718 129.744,26.567 129.961,26.387 C130.178,26.207 130.364,26.008 130.520,25.790 C130.520,25.790 130.520,23.350 130.520,23.350 ZM115.282,29.021 C115.282,29.021 113.025,20.395 113.025,20.395 C113.025,20.395 110.767,29.021 110.767,29.021 C110.767,29.021 107.773,29.021 107.773,29.021 C107.773,29.021 104.239,16.711 104.239,16.711 C104.239,16.711 107.331,16.711 107.331,16.711 C107.331,16.711 109.307,25.689 109.307,25.689 C109.307,25.689 111.675,16.711 111.675,16.711 C111.675,16.711 114.375,16.711 114.375,16.711 C114.375,16.711 115.859,22.131 115.859,22.131 C115.859,22.131 116.743,25.689 116.743,25.689 C116.743,25.689 118.730,16.711 118.730,16.711 C118.730,16.711 121.798,16.711 121.798,16.711 C121.798,16.711 118.276,29.021 118.276,29.021 C118.276,29.021 115.282,29.021 115.282,29.021 ZM101.289,29.235 C100.692,29.235 100.193,29.176 99.792,29.059 C99.391,28.942 99.062,28.774 98.805,28.556 C98.547,28.338 98.352,28.072 98.222,27.757 C98.091,27.443 97.995,27.085 97.933,26.683 C97.872,26.280 97.839,25.838 97.835,25.356 C97.831,24.874 97.829,24.361 97.829,23.815 C97.829,23.815 97.829,19.063 97.829,19.063 C97.829,19.063 96.283,19.063 96.283,19.063 C96.283,19.063 96.283,16.711 96.283,16.711 C96.283,16.711 97.829,16.711 97.829,16.711 C97.829,16.711 97.829,13.644 97.829,13.644 C97.829,13.644 100.933,13.644 100.933,13.644 C100.933,13.644 100.933,16.711 100.933,16.711 C100.933,16.711 102.884,16.711 102.884,16.711 C102.884,16.711 102.884,19.063 102.884,19.063 C102.884,19.063 100.933,19.063 100.933,19.063 C100.933,19.063 100.933,24.985 100.933,24.985 C100.933,25.379 100.958,25.700 101.007,25.947 C101.056,26.194 101.130,26.387 101.228,26.526 C101.326,26.664 101.445,26.758 101.584,26.808 C101.723,26.859 101.882,26.883 102.062,26.883 C102.381,26.883 102.721,26.863 103.081,26.821 C103.081,26.821 103.081,29.046 103.081,29.046 C102.811,29.105 102.530,29.151 102.240,29.184 C101.950,29.218 101.633,29.235 101.289,29.235 ZM93.958,14.096 C93.483,14.096 93.139,14.232 92.927,14.504 C92.714,14.777 92.608,15.232 92.608,15.869 C92.608,15.869 92.608,16.711 92.608,16.711 C92.608,16.711 94.767,16.711 94.767,16.711 C94.767,16.711 94.767,19.063 94.767,19.063 C94.767,19.063 92.608,19.063 92.608,19.063 C92.608,19.063 92.608,29.021 92.608,29.021 C92.608,29.021 89.503,29.021 89.503,29.021 C89.503,29.021 89.503,19.063 89.503,19.063 C89.503,19.063 87.761,19.063 87.761,19.063 C87.761,19.063 87.761,16.711 87.761,16.711 C87.761,16.711 89.503,16.711 89.503,16.711 C89.503,16.711 89.503,15.781 89.503,15.781 C89.503,14.356 89.820,13.308 90.454,12.638 C91.088,11.967 92.056,11.632 93.356,11.632 C93.757,11.632 94.115,11.646 94.430,11.675 C94.745,11.705 95.041,11.749 95.320,11.808 C95.320,11.808 95.320,14.234 95.320,14.234 C95.107,14.201 94.886,14.169 94.657,14.140 C94.428,14.111 94.195,14.096 93.958,14.096 ZM85.388,27.650 C84.868,28.195 84.241,28.608 83.505,28.889 C82.768,29.170 81.946,29.310 81.038,29.310 C80.122,29.310 79.294,29.170 78.554,28.889 C77.813,28.608 77.183,28.195 76.664,27.650 C76.144,27.106 75.742,26.433 75.455,25.633 C75.169,24.832 75.026,23.912 75.026,22.873 C75.026,21.825 75.169,20.901 75.455,20.100 C75.742,19.300 76.144,18.627 76.664,18.082 C77.183,17.537 77.813,17.126 78.554,16.850 C79.294,16.573 80.122,16.435 81.038,16.435 C81.946,16.435 82.768,16.573 83.505,16.850 C84.241,17.126 84.868,17.537 85.388,18.082 C85.907,18.627 86.308,19.300 86.591,20.100 C86.873,20.901 87.014,21.825 87.014,22.873 C87.014,23.912 86.873,24.832 86.591,25.633 C86.308,26.433 85.907,27.106 85.388,27.650 ZM83.640,21.056 C83.509,20.540 83.320,20.115 83.075,19.780 C82.830,19.444 82.533,19.193 82.185,19.025 C81.838,18.858 81.455,18.773 81.038,18.773 C80.605,18.773 80.214,18.858 79.866,19.025 C79.519,19.193 79.222,19.444 78.977,19.780 C78.731,20.115 78.541,20.540 78.406,21.056 C78.271,21.571 78.204,22.177 78.204,22.873 C78.204,23.569 78.271,24.172 78.406,24.683 C78.541,25.194 78.731,25.618 78.977,25.953 C79.222,26.288 79.519,26.540 79.866,26.708 C80.214,26.875 80.605,26.959 81.038,26.959 C81.455,26.959 81.838,26.875 82.185,26.708 C82.533,26.540 82.830,26.288 83.075,25.953 C83.320,25.618 83.509,25.194 83.640,24.683 C83.770,24.172 83.836,23.569 83.836,22.873 C83.836,22.177 83.770,21.571 83.640,21.056 ZM71.746,27.915 C71.153,28.367 70.451,28.713 69.642,28.952 C68.832,29.191 67.944,29.310 66.979,29.310 C64.672,29.310 62.905,28.807 61.678,27.801 C60.451,26.795 59.784,25.333 59.678,23.413 C59.678,23.413 62.734,23.413 62.734,23.413 C62.783,23.958 62.920,24.432 63.145,24.834 C63.369,25.236 63.666,25.572 64.034,25.840 C64.402,26.109 64.830,26.309 65.316,26.444 C65.803,26.578 66.329,26.645 66.893,26.645 C67.441,26.645 67.938,26.590 68.384,26.482 C68.830,26.372 69.208,26.215 69.519,26.010 C69.830,25.805 70.069,25.553 70.237,25.255 C70.404,24.958 70.488,24.620 70.488,24.243 C70.488,23.908 70.410,23.619 70.255,23.375 C70.100,23.133 69.869,22.916 69.562,22.728 C69.255,22.539 68.869,22.372 68.402,22.225 C67.936,22.078 67.392,21.925 66.770,21.766 C65.863,21.548 65.034,21.328 64.286,21.106 C63.537,20.884 62.885,20.612 62.329,20.289 C61.772,19.966 61.326,19.574 60.991,19.113 C60.656,18.652 60.443,18.065 60.353,17.353 C60.329,17.168 60.310,16.982 60.298,16.793 C60.286,16.605 60.287,16.410 60.304,16.209 C60.353,15.546 60.535,14.941 60.850,14.391 C61.165,13.843 61.594,13.371 62.138,12.977 C62.682,12.583 63.329,12.275 64.077,12.053 C64.826,11.831 65.654,11.720 66.562,11.720 C67.552,11.720 68.451,11.837 69.261,12.072 C70.071,12.306 70.764,12.650 71.341,13.103 C71.918,13.555 72.370,14.107 72.697,14.756 C73.024,15.406 73.208,16.146 73.249,16.976 C73.249,16.976 70.157,16.976 70.157,16.976 C69.993,15.240 68.828,14.373 66.660,14.373 C66.145,14.373 65.686,14.425 65.286,14.530 C64.885,14.635 64.545,14.781 64.267,14.970 C63.989,15.158 63.777,15.383 63.629,15.643 C63.482,15.903 63.408,16.196 63.408,16.523 C63.408,16.833 63.472,17.097 63.599,17.315 C63.725,17.533 63.930,17.724 64.212,17.887 C64.494,18.050 64.856,18.204 65.298,18.346 C65.740,18.489 66.280,18.631 66.918,18.773 C67.507,18.907 68.081,19.042 68.642,19.176 C69.202,19.310 69.732,19.469 70.231,19.654 C70.730,19.838 71.190,20.052 71.611,20.295 C72.032,20.538 72.392,20.833 72.691,21.181 C72.989,21.529 73.223,21.940 73.390,22.414 C73.558,22.887 73.642,23.443 73.642,24.080 C73.642,24.893 73.474,25.622 73.139,26.267 C72.803,26.913 72.339,27.462 71.746,27.915 ZM46.875,45.491 C46.124,48.520 43.835,49.613 41.489,48.677 C41.489,48.677 3.652,28.862 3.652,28.862 C1.684,27.920 -1.202,26.167 0.542,23.343 C0.542,23.343 15.908,3.273 15.908,3.273 C17.461,1.395 18.706,-0.448 21.294,0.086 C21.294,0.086 52.221,7.636 52.221,7.636 C54.567,8.280 56.034,10.521 55.331,13.155 C55.331,13.155 46.875,45.491 46.875,45.491 ZM30.901,12.009 C30.901,12.009 26.429,12.009 26.429,12.009 C26.429,12.009 22.978,16.472 22.978,16.472 C22.788,16.724 22.600,16.980 22.415,17.240 C22.230,17.499 22.047,17.751 21.867,17.994 C21.687,17.751 21.507,17.499 21.327,17.240 C21.147,16.980 20.962,16.724 20.772,16.472 C20.772,16.472 17.335,12.009 17.335,12.009 C17.335,12.009 12.848,12.009 12.848,12.009 C12.848,12.009 19.511,20.069 19.511,20.069 C19.511,20.069 12.263,29.021 12.263,29.021 C12.263,29.021 16.750,29.021 16.750,29.021 C16.750,29.021 20.652,23.891 20.652,23.891 C20.652,23.891 21.867,22.194 21.867,22.194 C21.867,22.194 27.029,29.021 27.029,29.021 C27.029,29.021 31.486,29.021 31.486,29.021 C31.486,29.021 24.223,20.069 24.223,20.069 C24.223,20.069 30.901,12.009 30.901,12.009 ZM48.939,22.665 C48.789,22.242 48.556,21.860 48.241,21.521 C47.926,21.181 47.536,20.884 47.070,20.628 C46.605,20.373 46.052,20.177 45.412,20.043 C46.403,19.658 47.140,19.157 47.626,18.541 C48.111,17.925 48.353,17.193 48.353,16.347 C48.353,15.676 48.196,15.075 47.881,14.542 C47.565,14.010 47.108,13.555 46.508,13.178 C45.907,12.801 45.174,12.512 44.309,12.310 C43.444,12.109 42.471,12.009 41.390,12.009 C41.390,12.009 33.677,12.009 33.677,12.009 C33.677,12.009 33.677,29.021 33.677,29.021 C33.677,29.021 41.586,29.021 41.586,29.021 C44.107,29.021 46.000,28.586 47.265,27.714 C48.531,26.842 49.164,25.605 49.164,24.004 C49.164,23.535 49.089,23.089 48.939,22.665 ZM41.360,26.368 C41.360,26.368 37.534,26.368 37.534,26.368 C37.534,26.368 37.534,21.603 37.534,21.603 C37.534,21.603 41.135,21.603 41.135,21.603 C41.886,21.603 42.521,21.649 43.041,21.741 C43.561,21.833 43.979,21.976 44.294,22.168 C44.609,22.361 44.837,22.608 44.977,22.910 C45.117,23.212 45.187,23.572 45.187,23.992 C45.187,24.796 44.872,25.394 44.242,25.783 C43.611,26.173 42.651,26.368 41.360,26.368 ZM41.210,18.950 C41.210,18.950 37.534,18.950 37.534,18.950 C37.534,18.950 37.534,14.662 37.534,14.662 C37.534,14.662 41.015,14.662 41.015,14.662 C41.666,14.662 42.213,14.706 42.659,14.794 C43.104,14.882 43.466,15.012 43.747,15.184 C44.026,15.356 44.229,15.573 44.354,15.838 C44.479,16.102 44.542,16.410 44.542,16.762 C44.542,17.558 44.272,18.122 43.731,18.452 C43.191,18.785 42.351,18.950 41.210,18.950 Z" id="path-1" class="cls-2" fill-rule="evenodd"/>
</svg>
