<svg xmlns="http://www.w3.org/2000/svg" width="76.969" height="42.65" viewBox="0 0 76.969 42.65"><defs><style>.cls-1 { fill: #fff; fill-rule: evenodd; }</style></defs><path id="Forma_1" data-name="Forma 1" class="cls-1" d="M61.296 24.09l.023-9.17 14.48 9.18 1.117-.01v-1.24L64.24 14.82l12.7-.03.013-5.44-12.256.03 12.272-7.82V-.01l-.6.01-14.746 9.39h-.3l.023-9.36-5.571.02-.023 9.35h-.067L40.985.09h-.951v1.34l12.589 7.98-12.609.03-.013 5.44 13.044-.03-13.064 8.32v1.02l1.472-.01 14.292-9.11-.023 9.08h.279M3.887 41.86a.651.651 0 0 1-.805.73l-2.361-.01a.668.668 0 0 1-.735-.81L.103 27a.73.73 0 0 1 .858-.79l2.362.02a.66.66 0 0 1 .734.81zm23.352-5.79a.674.674 0 0 1-.749.78l-14.885-.23a.77.77 0 0 1-.845-.81l.068-3.79a.755.755 0 0 1 .8-.84l14.886.24a.73.73 0 0 1 .791.86l-.068 3.79zM8.995 41.94a.645.645 0 0 1-.805.72l-2.361-.01a.769.769 0 0 1-.844-.81l.226-14.77a.674.674 0 0 1 .749-.78l2.417.07a.682.682 0 0 1 .788.75zm23.492-.31a.669.669 0 0 1-.749.78l-2.417-.06a.689.689 0 0 1-.788-.76l.226-14.77a.674.674 0 0 1 .749-.78l2.361.01a.77.77 0 0 1 .845.81zm5.108.08a.718.718 0 0 1-.858.78l-2.361-.01a.661.661 0 0 1-.735-.81l.117-14.77a.729.729 0 0 1 .858-.79l2.361.02a.66.66 0 0 1 .735.81l-.117 14.77z"/></svg>