<svg xmlns="http://www.w3.org/2000/svg" preserveAspectRatio="xMidYMid" width="44" height="45" viewBox="0 0 44 45"><defs><style>.cls-1 { fill: #fff; fill-rule: evenodd; }</style></defs><path d="M39.561 44.999H4.439C1.992 44.999 0 42.994 0 40.531V9.253c0-2.465 1.992-4.469 4.439-4.469h4.624V2.172C9.063.972 10.028 0 11.22 0h.342c1.191 0 2.156.972 2.156 2.172v2.612h16.509V2.172c0-1.2.965-2.172 2.156-2.172h.343c1.191 0 2.156.972 2.156 2.172v2.612h4.679C42.008 4.784 44 6.788 44 9.253v31.278c0 2.463-1.992 4.468-4.439 4.468zM38.982 15.6H5.018v24.348h33.964V15.6zm-24.239 7.909l4.086-.609 1.839-3.724c.252-.509.768-.831 1.331-.831.565 0 1.082.322 1.331.831l1.841 3.724 4.086.61c.557.083 1.022.478 1.196 1.018.174.54.029 1.133-.373 1.531l-2.949 2.912.684 4.1c.095.561-.135 1.126-.591 1.461-.259.188-.566.285-.873.285-.236 0-.472-.057-.689-.17l-3.663-1.924-3.662 1.924c-.499.263-1.105.219-1.562-.115-.456-.335-.684-.9-.591-1.461l.686-4.1-2.95-2.912c-.404-.398-.547-.992-.373-1.532.174-.539.637-.934 1.196-1.018z" class="cls-1"/></svg>