<svg xmlns="http://www.w3.org/2000/svg" preserveAspectRatio="xMidYMid" width="53" height="50" viewBox="0 0 53 50"><defs><style>.cls-1 { fill: #fff; fill-rule: evenodd; }</style></defs><path d="M52.957 50H41.773v-7.598c0-.812.67-1.493 1.471-1.493h8.285c.8 0 1.471.681 1.471 1.493V50h-.043zm-2.856-15.701c0 1.813-1.448 3.283-3.234 3.283s-3.234-1.47-3.234-3.283 1.448-3.282 3.234-3.282 3.234 1.469 3.234 3.282zm-7.82-17.874c5.462 0 9.875 4.523 9.875 10.024h-19.75c0-5.544 4.413-10.024 9.875-10.024zm0-1.922c-2.3 0-4.164-1.892-4.164-4.226 0-2.335 1.864-4.227 4.164-4.227s4.164 1.892 4.164 4.227c0 2.334-1.864 4.226-4.164 4.226zm-5.506 20.016c0 1.862-1.486 3.371-3.32 3.371-1.834 0-3.321-1.509-3.321-3.371 0-1.861 1.487-3.371 3.321-3.371s3.32 1.51 3.32 3.371zM0 0h30.978v19.543H0V0zm2.271 34.519c0-1.861 1.487-3.371 3.321-3.371s3.321 1.51 3.321 3.371c0 1.862-1.487 3.371-3.321 3.371s-3.321-1.509-3.321-3.371zm-.8 6.39h8.285c.801 0 1.471.681 1.471 1.493V50H0v-7.598c0-.812.671-1.493 1.471-1.493zm14.71-6.39c0-1.861 1.487-3.371 3.321-3.371s3.32 1.51 3.32 3.371c0 1.862-1.486 3.371-3.32 3.371-1.834 0-3.321-1.509-3.321-3.371zm-.8 6.39h8.285c.801 0 1.471.681 1.471 1.493V50H13.91v-7.598c0-.812.67-1.493 1.471-1.493zm13.953 0h8.285c.8 0 1.471.681 1.471 1.493V50H27.863v-7.598c0-.812.67-1.493 1.471-1.493z" class="cls-1"/></svg>