<svg xmlns="http://www.w3.org/2000/svg" preserveAspectRatio="xMidYMid" width="53" height="40" viewBox="0 0 53 40"><defs><style>.cls-1 { fill: #fff; fill-rule: evenodd; }</style></defs><path d="M44.935 34.973c-1.4 0-2.629-.108-3.695-.278.022.2.047.4.047.6 0 2.353-6.119 4.706-14.787 4.706-9.243 0-14.787-2.353-14.787-4.706 0-.211.069-.42.092-.636-1.099.193-2.348.314-3.74.314C3.023 34.973 0 33.684 0 32.402c0-2.569 3.023-5.133 8.065-5.133 2.995 0 5.328.962 6.702 2.293 2.527-2.155 6.511-3.681 11.733-3.681 5.081 0 9.143 1.507 11.713 3.667 1.348-1.323 3.654-2.279 6.722-2.279 4.901 0 8.065 2.564 8.065 5.133 0 1.282-3.339 2.571-8.065 2.571zm0-9.092c-1.594 0-3.034-.652-4.078-1.719-1.039-1.066-1.683-2.536-1.683-4.163 0-1.624.644-3.094 1.683-4.16 1.044-1.067 2.484-1.723 4.078-1.723 1.589 0 3.029.656 4.073 1.723 1.044 1.066 1.688 2.536 1.688 4.16 0 1.627-.644 3.097-1.688 4.163-1.044 1.062-2.484 1.719-4.073 1.719zM26.5 23.528c-3.182 0-6.063-1.319-8.148-3.446-2.083-2.128-3.374-5.07-3.374-8.318 0-3.25 1.291-6.191 3.374-8.319C20.437 1.316 23.318-.001 26.5-.001c3.182 0 6.062 1.317 8.148 3.446 2.082 2.128 3.374 5.069 3.374 8.319 0 3.248-1.292 6.19-3.374 8.318-2.086 2.127-4.966 3.446-8.148 3.446zM8.065 25.881c-1.592 0-3.032-.657-4.076-1.723-1.042-1.066-1.685-2.537-1.685-4.159 0-1.621.643-3.092 1.685-4.16 1.044-1.063 2.484-1.723 4.076-1.723 1.59 0 3.03.66 4.075 1.723 1.044 1.068 1.686 2.539 1.686 4.16 0 1.622-.642 3.093-1.686 4.159-1.045 1.066-2.485 1.723-4.075 1.723z" class="cls-1"/></svg>