<svg xmlns="http://www.w3.org/2000/svg" preserveAspectRatio="xMidYMid" width="53" height="40" viewBox="0 0 53 40"><defs><style>.cls-1 { fill: #fff; fill-rule: evenodd; }</style></defs><path d="M0 28.35V3.538C0 1.58 1.537 0 3.442 0h35.734c1.905 0 3.443 1.58 3.443 3.538v5.63h-4.688V4.829H4.698v22.208h25.818V31.9h-5.358v3.95h2.738c.455 0 .823.378.823.845v2.459c0 .468-.368.846-.823.846H14.722c-.454 0-.823-.378-.823-.846v-2.47c0-.467.369-.846.823-.846h2.739v-3.949H3.442C1.537 31.889 0 30.309 0 28.35zm53-13.763V37.73c0 1.246-.953 2.259-2.133 2.259H35.301c-1.18 0-2.133-1.013-2.133-2.259V14.175c0-.935.542-1.736 1.299-2.08.26-.112.531-.179.834-.179h15.545c.292 0 .573.067.833.179.769.344 1.299 1.145 1.299 2.08v.412H53zm-3.486 1.046H36.676v20.639h12.838V15.633z" class="cls-1"/></svg>