<svg xmlns="http://www.w3.org/2000/svg" width="59.656" height="40.031" viewBox="0 0 59.656 40.031"><defs><style>.cls-1 { fill: #fff; fill-rule: evenodd; }</style></defs><path id="Rounded_Rectangle_1" data-name="Rounded Rectangle 1" class="cls-1" d="M52.348 35.41H26.656a1.315 1.315 0 0 0-1.3 1.32v.813a1.315 1.315 0 0 0 1.3 1.321h30.021V35.41h-4.329zM23.938 0a7.311 7.311 0 1 1-7.245 7.311A7.278 7.278 0 0 1 23.938 0zm17.676 25.242l-16.6-.009h-.395v-1.946l-.013-1.627a7.007 7.007 0 0 0-6.975-7.038c-.13 0-.26 0-.389.011l-.01-.011a6.606 6.606 0 0 0-6.576 6.636V40h13.963v-7.984L24.434 32a.173.173 0 0 0-.025 0 3.365 3.365 0 0 1-2.488-1.1l-5.665-6.246a.491.491 0 0 1 .03-.69.481.481 0 0 1 .684.03l5.667 6.243a2.489 2.489 0 0 0 1.794.828l.666.01h16.517a2.9165 2.9165 0 0 0 0-5.833zm17.167-10.348a1.291 1.291 0 0 0-1.643.812l-5.482 16.159H32.027a1.3055 1.3055 0 0 0 0 2.611h20.535a1.288 1.288 0 0 0 1.062-.561 1.312 1.312 0 0 0 .192-.364l5.77-17a1.308 1.308 0 0 0-.805-1.657zM1.718 9.49l1.468-.31c1.216-.257 2.462 1.769 2.784 3.292l5.826 27.573L6.656 40 .099 12.712A2.583 2.583 0 0 1 1.718 9.49z"/></svg>