<svg xmlns="http://www.w3.org/2000/svg" preserveAspectRatio="xMidYMid" width="46" height="45" viewBox="0 0 46 45"><defs><style>.cls-1 { fill: #fff; fill-rule: evenodd; }</style></defs><path d="M20.725 45c0-6.546 4.857-11.944 11.121-12.702v8.608h3.033v-8.608C41.143 33.056 46 38.454 46 45H20.725zm12.638-17.4c-3.851 0-6.973-3.16-6.973-7.059 0-3.898 3.122-7.059 6.973-7.059 3.85 0 6.972 3.161 6.972 7.059 0 3.899-3.122 7.059-6.972 7.059zm-10.006-7.059c0 3.058 1.346 5.804 3.469 7.663-2.849 2.634-6.639 4.242-10.802 4.242C7.174 32.446 0 25.182 0 16.223 0 7.263 7.174 0 16.024 0c6.926 0 12.824 4.448 15.062 10.676-4.424 1.046-7.729 5.072-7.729 9.865zM17.541 5.118h-3.033v9.57H5.055v3.07h12.486V5.118z" class="cls-1"/></svg>