<svg xmlns="http://www.w3.org/2000/svg" preserveAspectRatio="xMidYMid" width="48" height="50" viewBox="0 0 48 50"><defs><style>.cls-1 { fill: #fff; fill-rule: evenodd; }</style></defs><path d="M36.8 22.826h-.828c-1.711 2.604-4.223 4.605-7.172 5.669v5.201c1.767 0 3.2 1.46 3.2 3.261v3.26H16v-3.26c0-1.801 1.433-3.261 3.2-3.261v-5.201c-2.949-1.064-5.461-3.065-7.172-5.669H11.2c-6.176 0-11.2-5.12-11.2-11.413V4.891c0-.901.717-1.63 1.6-1.63h8V1.63c0-.9.716-1.63 1.6-1.63h25.6c.884 0 1.6.73 1.6 1.63v1.631h8c.883 0 1.6.729 1.6 1.63v6.522c0 6.293-5.024 11.413-11.2 11.413zM9.6 14.674V6.522H3.2v4.891c0 4.228 3.175 7.712 7.223 8.112-.524-1.521-.823-3.148-.823-4.851zm22.249-2.599c-.189-.59-.69-1.02-1.292-1.109l-3.54-.525-1.583-3.268c-.269-.557-.825-.909-1.434-.909-.61 0-1.166.352-1.435.909l-1.583 3.268-3.54.525c-.602.089-1.103.519-1.291 1.109-.188.591-.032 1.239.405 1.672l2.562 2.543-.606 3.593c-.103.611.144 1.23.637 1.594.494.367 1.147.413 1.685.125L24 19.906l3.165 1.696c.551.294 1.202.233 1.686-.125.493-.364.739-.983.636-1.594l-.605-3.593 2.562-2.543c.436-.433.592-1.082.405-1.672zM44.8 6.522h-6.4v8.152c0 1.703-.299 3.33-.823 4.851 4.048-.4 7.223-3.884 7.223-8.112V6.522zm-32 36.956h22.4c1.767 0 3.2 1.46 3.2 3.261v1.63c0 .901-.717 1.631-1.6 1.631H11.2c-.884 0-1.6-.73-1.6-1.631v-1.63c0-1.801 1.433-3.261 3.2-3.261z" class="cls-1"/></svg>